{"glyphs":{"0":{"ha":950,"x_min":118,"x_max":831,"o":"m 831 754 l 831 110 q 721 0 831 0 l 228 0 q 118 110 118 0 l 118 754 q 228 864 118 864 l 721 864 q 831 754 831 864 m 679 125 l 679 739 q 672 774 679 767 q 636 782 664 782 l 315 782 q 281 774 289 782 q 272 739 272 767 l 272 125 q 281 90 272 97 q 315 82 289 82 l 636 82 q 672 90 664 82 q 679 125 679 97 z "},"1":{"ha":486,"x_min":38,"x_max":368,"o":"m 368 864 l 368 0 l 213 0 l 213 782 l 38 782 l 38 864 l 368 864 z "},"2":{"ha":871,"x_min":81,"x_max":793,"o":"m 233 739 l 233 569 l 81 569 l 81 754 q 190 864 81 864 l 678 864 q 788 754 788 864 l 788 679 q 772 555 788 599 q 703 463 756 511 l 286 82 l 793 82 l 793 0 l 81 0 l 81 81 l 550 508 q 615 589 596 551 q 635 683 635 626 l 635 739 q 627 774 635 767 q 592 782 619 782 l 276 782 q 242 774 250 782 q 233 739 233 767 z "},"3":{"ha":921,"x_min":104,"x_max":815,"o":"m 256 739 l 256 594 l 104 594 l 104 754 q 214 864 104 864 l 706 864 q 815 754 815 864 l 815 515 q 753 439 815 443 q 815 364 815 432 l 815 110 q 706 0 815 0 l 214 0 q 104 110 104 0 l 104 268 l 256 268 l 256 125 q 264 90 256 97 q 299 82 272 82 l 619 82 q 655 90 647 82 q 663 125 663 97 l 663 353 q 655 388 663 381 q 619 396 647 396 l 379 396 l 379 479 l 619 479 q 655 487 647 479 q 663 522 663 494 l 663 739 q 655 774 663 767 q 619 782 647 782 l 299 782 q 264 774 272 782 q 256 739 256 767 z "},"4":{"ha":919,"x_min":51,"x_max":893,"o":"m 893 222 l 893 140 l 736 140 l 736 0 l 592 0 l 592 140 l 51 140 l 51 229 l 456 864 l 615 864 l 214 222 l 592 222 l 592 456 l 736 456 l 736 222 l 893 222 z "},"5":{"ha":892,"x_min":118,"x_max":813,"o":"m 278 526 l 703 526 q 813 417 813 526 l 813 110 q 703 0 813 0 l 228 0 q 118 110 118 0 l 118 275 l 271 275 l 271 125 q 278 90 271 97 q 314 82 286 82 l 617 82 q 652 90 644 82 q 660 125 660 97 l 660 401 q 652 436 660 428 q 617 444 644 444 l 121 444 l 121 864 l 799 864 l 799 782 l 278 782 l 278 526 z "},"6":{"ha":915,"x_min":118,"x_max":810,"o":"m 658 125 l 658 368 q 650 403 658 394 q 615 411 642 411 l 272 411 l 272 125 q 281 90 272 97 q 315 82 289 82 l 615 82 q 650 90 642 82 q 658 125 658 97 m 272 493 l 700 493 q 810 383 810 493 l 810 110 q 700 0 810 0 l 228 0 q 118 110 118 0 l 118 754 q 228 864 118 864 l 694 864 q 804 754 804 864 l 804 594 l 653 594 l 653 739 q 644 774 653 767 q 610 782 636 782 l 315 782 q 281 774 289 782 q 272 739 272 767 l 272 493 z "},"7":{"ha":729,"x_min":51,"x_max":704,"o":"m 704 864 l 704 785 l 326 0 l 165 0 l 542 782 l 51 782 l 51 864 l 704 864 z "},"8":{"ha":928,"x_min":118,"x_max":811,"o":"m 228 864 l 701 864 q 811 754 811 864 l 811 510 q 749 433 811 438 q 811 358 811 426 l 811 110 q 701 0 811 0 l 228 0 q 118 110 118 0 l 118 358 q 181 433 118 426 q 118 510 118 438 l 118 754 q 228 864 118 864 m 269 350 l 269 125 q 278 90 269 97 q 313 82 286 82 l 617 82 q 652 90 644 82 q 660 125 660 97 l 660 350 q 652 385 660 378 q 617 393 644 393 l 313 393 q 278 385 286 393 q 269 350 269 378 m 660 519 l 660 739 q 652 774 660 767 q 617 782 644 782 l 313 782 q 278 774 286 782 q 269 739 269 767 l 269 519 q 278 484 269 492 q 313 476 286 476 l 617 476 q 652 484 644 476 q 660 519 660 492 z "},"9":{"ha":922,"x_min":111,"x_max":803,"o":"m 308 442 l 650 442 l 650 739 q 642 774 650 767 q 607 782 633 782 l 308 782 q 273 774 281 782 q 265 739 265 767 l 265 485 q 273 450 265 458 q 308 442 281 442 m 221 864 l 693 864 q 803 754 803 864 l 803 110 q 693 0 803 0 l 229 0 q 119 110 119 0 l 119 258 l 272 258 l 272 125 q 281 90 272 97 q 315 82 289 82 l 607 82 q 642 90 633 82 q 650 125 650 97 l 650 360 l 221 360 q 111 469 111 360 l 111 754 q 221 864 111 864 z "},"\u0000":{"ha":0,"x_min":0,"x_max":0,"o":""},"\r":{"ha":0,"x_min":0,"x_max":0,"o":""}," ":{"ha":381,"x_min":0,"x_max":0,"o":""},"!":{"ha":410,"x_min":117,"x_max":293,"o":"m 117 864 l 293 864 l 267 278 l 144 278 l 117 864 m 121 0 l 121 167 l 288 167 l 288 0 l 121 0 z "},"\"":{"ha":517,"x_min":82,"x_max":435,"o":"m 82 864 l 217 864 l 217 551 l 82 551 l 82 864 m 300 864 l 435 864 l 435 551 l 300 551 l 300 864 z "},"#":{"ha":1318,"x_min":79,"x_max":1238,"o":"m 807 317 l 883 546 l 532 546 l 456 317 l 807 317 m 1238 546 l 1015 546 l 939 317 l 1172 317 l 1172 222 l 908 222 l 835 0 l 703 0 l 776 222 l 425 222 l 351 0 l 221 0 l 294 222 l 79 222 l 79 317 l 325 317 l 401 546 l 144 546 l 144 642 l 432 642 l 506 864 l 636 864 l 563 642 l 914 642 l 988 864 l 1119 864 l 1046 642 l 1238 642 l 1238 546 z "},"$":{"ha":907,"x_min":101,"x_max":801,"o":"m 297 476 l 692 476 q 801 367 801 476 l 801 110 q 692 0 801 0 l 522 0 l 522 -126 l 375 -126 l 375 0 l 214 0 q 104 110 104 0 l 104 250 l 257 250 l 257 125 q 265 90 257 97 q 300 82 272 82 l 608 82 q 644 90 636 82 q 651 125 651 97 l 651 351 q 644 386 651 378 q 608 394 636 394 l 211 394 q 101 504 101 394 l 101 754 q 211 864 101 864 l 375 864 l 375 992 l 522 992 l 522 864 l 688 864 q 797 754 797 864 l 797 614 l 646 614 l 646 739 q 638 774 646 767 q 603 782 631 782 l 297 782 q 262 774 269 782 q 254 739 254 767 l 254 519 q 262 484 254 492 q 297 476 269 476 z "},"%":{"ha":1529,"x_min":78,"x_max":1451,"o":"m 1451 376 l 1451 92 q 1364 0 1451 0 l 1031 0 q 943 92 943 0 l 943 376 q 1031 468 943 468 l 1364 468 q 1451 376 1451 468 m 1332 110 l 1332 358 q 1326 389 1332 382 q 1296 396 1319 396 l 1099 396 q 1069 389 1075 396 q 1063 358 1063 382 l 1063 110 q 1069 78 1063 85 q 1099 71 1075 71 l 1296 71 q 1326 78 1319 71 q 1332 110 1332 85 m 1021 864 l 1153 864 l 503 0 l 372 0 l 1021 864 m 585 771 l 585 488 q 499 396 585 396 l 165 396 q 78 488 78 396 l 78 771 q 165 863 78 863 l 499 863 q 585 771 585 863 m 467 504 l 467 753 q 460 785 467 778 q 431 792 454 792 l 233 792 q 203 785 210 792 q 197 753 197 778 l 197 504 q 203 474 197 481 q 233 467 210 467 l 431 467 q 460 474 454 467 q 467 504 467 481 z "},"&":{"ha":1172,"x_min":104,"x_max":1125,"o":"m 294 82 l 772 82 l 454 344 l 311 292 q 264 261 276 279 q 251 210 251 243 l 251 125 q 259 90 251 97 q 294 82 267 82 m 722 619 l 722 739 q 714 774 722 767 q 679 782 706 782 l 407 782 q 372 774 381 782 q 364 739 364 767 l 364 629 q 403 542 364 581 q 433 514 419 525 q 494 464 489 469 l 639 517 q 703 556 685 533 q 722 619 722 578 m 214 0 q 104 110 104 0 l 104 226 q 127 310 104 281 q 210 360 150 339 l 367 417 l 353 429 q 298 474 304 468 q 275 495 292 481 q 253 517 258 510 q 239 537 249 524 q 226 561 229 550 q 217 614 217 597 l 217 754 q 326 864 217 864 l 760 864 q 869 754 869 864 l 869 628 q 841 516 869 556 q 747 453 813 476 l 582 392 l 950 83 q 971 125 971 89 l 971 317 l 1092 317 l 1092 115 q 1036 11 1092 36 l 1125 -62 l 947 -62 l 872 0 l 214 0 z "},"'":{"ha":304,"x_min":82,"x_max":222,"o":"m 82 864 l 222 864 l 222 551 l 82 551 l 82 864 z "},"(":{"ha":478,"x_min":129,"x_max":549,"o":"m 129 204 l 129 488 q 500 996 129 996 l 549 996 l 549 914 l 511 914 q 281 504 281 901 l 281 188 q 511 -222 281 -210 l 549 -222 l 549 -304 l 500 -304 q 129 204 129 -304 z "},")":{"ha":478,"x_min":-71,"x_max":349,"o":"m 349 488 l 349 204 q -22 -304 349 -304 l -71 -304 l -71 -222 l -33 -222 q 197 188 197 -210 l 197 504 q -33 914 197 901 l -71 914 l -71 996 l -22 996 q 349 488 349 996 z "},"*":{"ha":663,"x_min":78,"x_max":585,"o":"m 272 906 l 393 906 l 393 817 q 381 721 393 768 q 464 761 411 744 l 549 790 l 585 675 l 500 647 q 408 632 454 632 q 471 564 449 597 l 524 492 l 426 421 l 374 493 q 329 576 349 531 q 285 494 315 538 l 233 424 l 136 494 l 188 565 q 253 633 214 603 q 163 650 218 635 l 78 678 l 115 793 l 199 765 q 285 725 238 753 q 272 817 272 768 l 272 906 z "},"+":{"ha":911,"x_min":82,"x_max":831,"o":"m 831 486 l 831 378 l 529 378 l 529 160 l 383 160 l 383 378 l 82 378 l 82 486 l 383 486 l 383 703 l 529 703 l 529 486 l 831 486 z "},",":{"ha":318,"x_min":82,"x_max":249,"o":"m 82 -192 l 82 174 l 249 174 l 249 81 l 138 -192 l 82 -192 z "},"-":{"ha":565,"x_min":82,"x_max":482,"o":"m 82 336 l 82 418 l 482 418 l 482 336 l 82 336 z "},".":{"ha":332,"x_min":82,"x_max":249,"o":"m 82 0 l 82 167 l 249 167 l 249 0 l 82 0 z "},"/":{"ha":565,"x_min":-31,"x_max":686,"o":"m 543 971 l 686 971 l 111 -189 l -31 -189 l 543 971 z "},":":{"ha":332,"x_min":82,"x_max":249,"o":"m 82 104 l 82 269 l 249 269 l 249 104 l 82 104 m 82 404 l 82 569 l 249 569 l 249 404 l 82 404 z "},";":{"ha":318,"x_min":82,"x_max":249,"o":"m 82 507 l 82 674 l 249 674 l 249 507 l 82 507 m 82 -192 l 82 174 l 249 174 l 249 81 l 138 -192 l 82 -192 z "},"<":{"ha":933,"x_min":54,"x_max":856,"o":"m 856 560 l 182 432 l 856 303 l 856 185 l 54 369 l 54 497 l 856 678 l 856 560 z "},"=":{"ha":960,"x_min":106,"x_max":854,"o":"m 106 503 l 106 614 l 854 614 l 854 503 l 106 503 m 106 249 l 106 360 l 854 360 l 854 249 l 106 249 z "},">":{"ha":933,"x_min":78,"x_max":879,"o":"m 751 432 l 78 560 l 78 678 l 879 497 l 879 369 l 78 185 l 78 303 l 751 432 z "},"?":{"ha":811,"x_min":40,"x_max":736,"o":"m 294 0 l 294 167 l 461 167 l 461 0 l 294 0 m 150 864 l 626 864 q 736 757 736 864 l 736 481 q 626 372 736 372 l 449 372 l 442 278 l 317 278 l 306 457 l 546 457 q 578 466 571 457 q 586 501 586 475 l 586 738 q 578 774 586 764 q 546 783 571 783 l 231 783 q 197 774 204 783 q 190 738 190 764 l 190 601 l 40 601 l 40 757 q 150 864 40 864 z "},"@":{"ha":1546,"x_min":119,"x_max":1440,"o":"m 567 592 l 831 592 q 903 549 889 592 l 903 592 l 1036 592 l 1036 164 l 1268 164 q 1301 172 1293 164 q 1308 204 1308 179 l 1308 656 q 1301 690 1308 682 q 1268 697 1293 697 l 294 697 q 260 690 268 697 q 253 656 253 682 l 253 25 q 260 -8 253 0 q 294 -15 268 -15 l 1219 -15 l 1219 -100 l 224 -100 q 119 4 119 -100 l 119 678 q 224 782 119 782 l 1336 782 q 1440 678 1440 782 l 1440 186 q 1336 82 1440 82 l 913 82 l 913 168 q 831 108 903 108 l 567 108 q 464 213 464 108 l 464 488 q 567 592 464 592 m 597 469 l 597 231 q 604 198 597 206 q 638 190 611 190 l 858 190 q 892 200 882 190 q 903 235 903 210 l 903 465 q 892 500 903 490 q 858 510 882 510 l 638 510 q 604 502 611 510 q 597 469 597 494 z "},"A":{"ha":964,"x_min":43,"x_max":921,"o":"m 288 253 l 674 253 l 481 765 l 288 253 m 769 0 l 706 171 l 257 171 l 193 0 l 43 0 l 376 864 l 586 864 l 921 0 l 769 0 z "},"B":{"ha":971,"x_min":132,"x_max":853,"o":"m 132 864 l 743 864 q 853 754 853 864 l 853 508 q 789 431 853 435 q 853 357 853 424 l 853 110 q 743 0 853 0 l 132 0 l 132 864 m 704 122 l 704 349 q 697 383 704 375 q 661 392 689 392 l 285 392 l 285 82 l 658 82 q 695 90 686 82 q 704 122 704 97 m 704 517 l 704 739 q 697 774 704 767 q 661 782 689 782 l 285 782 l 285 474 l 661 474 q 697 481 689 474 q 704 517 704 489 z "},"C":{"ha":907,"x_min":118,"x_max":826,"o":"m 826 569 l 674 569 l 674 739 q 666 774 674 767 q 631 782 658 782 l 315 782 q 281 774 289 782 q 272 739 272 767 l 272 125 q 281 90 272 97 q 315 82 289 82 l 631 82 q 666 90 658 82 q 674 125 674 97 l 674 294 l 826 294 l 826 110 q 717 0 826 0 l 228 0 q 118 110 118 0 l 118 754 q 228 864 118 864 l 717 864 q 826 754 826 864 l 826 569 z "},"D":{"ha":974,"x_min":132,"x_max":856,"o":"m 701 125 l 701 739 q 694 774 701 767 q 658 782 686 782 l 285 782 l 285 82 l 658 82 q 694 90 686 82 q 701 125 701 97 m 132 864 l 746 864 q 856 754 856 864 l 856 110 q 746 0 856 0 l 132 0 l 132 864 z "},"E":{"ha":825,"x_min":132,"x_max":761,"o":"m 288 82 l 761 82 l 761 0 l 132 0 l 132 864 l 742 864 l 742 782 l 288 782 l 288 483 l 685 483 l 685 401 l 288 401 l 288 82 z "},"F":{"ha":783,"x_min":132,"x_max":743,"o":"m 743 782 l 288 782 l 288 450 l 689 450 l 689 368 l 288 368 l 288 0 l 132 0 l 132 864 l 743 864 l 743 782 z "},"G":{"ha":933,"x_min":118,"x_max":828,"o":"m 828 599 l 675 599 l 675 739 q 667 774 675 767 q 632 782 658 782 l 315 782 q 281 774 289 782 q 272 739 272 767 l 272 125 q 281 90 272 97 q 315 82 289 82 l 633 82 q 669 90 661 82 q 676 125 676 97 l 676 363 l 461 363 l 461 444 l 828 444 l 828 110 q 718 0 828 0 l 228 0 q 118 110 118 0 l 118 754 q 228 864 118 864 l 718 864 q 828 754 828 864 l 828 599 z "},"H":{"ha":1040,"x_min":132,"x_max":910,"o":"m 756 864 l 910 864 l 910 0 l 756 0 l 756 392 l 285 392 l 285 0 l 132 0 l 132 864 l 285 864 l 285 474 l 756 474 l 756 864 z "},"I":{"ha":444,"x_min":144,"x_max":300,"o":"m 144 864 l 300 864 l 300 0 l 144 0 l 144 864 z "},"J":{"ha":833,"x_min":51,"x_max":715,"o":"m 51 308 l 206 308 l 206 125 q 214 90 206 97 q 249 82 222 82 l 518 82 q 553 90 544 82 q 561 125 561 97 l 561 864 l 715 864 l 715 110 q 606 0 715 0 l 161 0 q 51 110 51 0 l 51 308 z "},"K":{"ha":943,"x_min":132,"x_max":914,"o":"m 718 864 l 897 864 l 490 442 l 914 0 l 731 0 l 314 442 l 718 864 m 132 864 l 281 864 l 281 0 l 132 0 l 132 864 z "},"L":{"ha":760,"x_min":132,"x_max":722,"o":"m 283 82 l 722 82 l 722 0 l 132 0 l 132 864 l 283 864 l 283 82 z "},"M":{"ha":1214,"x_min":132,"x_max":1083,"o":"m 265 0 l 132 0 l 132 864 l 296 864 l 601 303 l 918 864 l 1083 864 l 1083 0 l 949 0 l 949 690 l 664 188 l 540 188 l 265 690 l 265 0 z "},"N":{"ha":1006,"x_min":132,"x_max":875,"o":"m 735 864 l 875 864 l 875 0 l 729 0 l 272 699 l 272 0 l 132 0 l 132 864 l 283 864 l 735 171 l 735 864 z "},"O":{"ha":936,"x_min":118,"x_max":818,"o":"m 818 754 l 818 110 q 708 0 818 0 l 228 0 q 118 110 118 0 l 118 754 q 228 864 118 864 l 708 864 q 818 754 818 864 m 667 125 l 667 739 q 658 774 667 767 q 624 782 650 782 l 314 782 q 278 774 286 782 q 271 739 271 767 l 271 125 q 278 90 271 97 q 314 82 286 82 l 624 82 q 658 90 650 82 q 667 125 667 97 z "},"P":{"ha":935,"x_min":132,"x_max":857,"o":"m 706 407 l 706 739 q 697 774 706 767 q 663 782 689 782 l 283 782 l 283 364 l 663 364 q 697 372 689 364 q 706 407 706 381 m 132 864 l 747 864 q 857 754 857 864 l 857 392 q 747 282 857 282 l 283 282 l 283 0 l 132 0 l 132 864 z "},"Q":{"ha":889,"x_min":94,"x_max":796,"o":"m 246 739 l 246 125 q 253 90 246 97 q 289 82 261 82 l 601 82 q 636 90 628 82 q 644 125 644 97 l 644 739 q 636 774 644 767 q 601 782 628 782 l 289 782 q 253 774 261 782 q 246 739 246 767 m 204 0 q 94 110 94 0 l 94 754 q 204 864 94 864 l 685 864 q 794 754 794 864 l 794 110 q 685 0 794 0 l 633 0 l 796 -135 l 613 -135 l 457 0 l 204 0 z "},"R":{"ha":963,"x_min":132,"x_max":865,"o":"m 283 782 l 283 392 l 664 392 q 699 400 692 392 q 707 435 707 408 l 707 739 q 699 774 707 767 q 664 782 692 782 l 283 782 m 283 310 l 283 0 l 132 0 l 132 864 l 749 864 q 858 754 858 864 l 858 419 q 749 310 858 310 l 669 310 l 865 0 l 707 0 l 517 310 l 283 310 z "},"S":{"ha":908,"x_min":104,"x_max":804,"o":"m 653 125 l 653 351 q 644 386 653 378 q 610 394 636 394 l 214 394 q 104 504 104 394 l 104 754 q 214 864 104 864 l 690 864 q 800 754 800 864 l 800 611 l 647 611 l 647 739 q 639 774 647 767 q 604 782 631 782 l 300 782 q 265 774 272 782 q 257 739 257 767 l 257 519 q 265 484 257 492 q 300 476 272 476 l 694 476 q 804 367 804 476 l 804 110 q 694 0 804 0 l 217 0 q 107 110 107 0 l 107 253 l 260 253 l 260 125 q 267 90 260 97 q 303 82 275 82 l 610 82 q 644 90 636 82 q 653 125 653 97 z "},"T":{"ha":792,"x_min":13,"x_max":779,"o":"m 779 864 l 779 782 l 472 782 l 472 0 l 319 0 l 319 782 l 13 782 l 13 864 l 779 864 z "},"U":{"ha":958,"x_min":118,"x_max":839,"o":"m 271 864 l 271 125 q 278 90 271 97 q 314 82 286 82 l 646 82 q 681 90 672 82 q 689 125 689 97 l 689 864 l 839 864 l 839 110 q 729 0 839 0 l 228 0 q 118 110 118 0 l 118 864 l 271 864 z "},"V":{"ha":965,"x_min":46,"x_max":919,"o":"m 767 864 l 919 864 l 585 0 l 379 0 l 46 864 l 200 864 l 482 103 l 767 864 z "},"W":{"ha":1478,"x_min":47,"x_max":1431,"o":"m 1281 864 l 1431 864 l 1139 0 l 939 0 l 738 696 l 536 0 l 338 0 l 47 864 l 201 864 l 438 107 l 657 864 l 819 864 l 1036 107 l 1281 864 z "},"X":{"ha":939,"x_min":42,"x_max":897,"o":"m 557 444 l 897 0 l 729 0 l 469 346 l 206 0 l 42 0 l 382 439 l 56 864 l 224 864 l 469 538 l 713 864 l 876 864 l 557 444 z "},"Y":{"ha":896,"x_min":11,"x_max":883,"o":"m 532 0 l 379 0 l 379 282 l 11 864 l 165 864 l 454 390 l 731 864 l 883 864 l 532 282 l 532 0 z "},"Z":{"ha":878,"x_min":78,"x_max":800,"o":"m 800 864 l 800 782 l 251 82 l 786 82 l 786 0 l 78 0 l 78 82 l 626 782 l 93 782 l 93 864 l 800 864 z "},"[":{"ha":456,"x_min":131,"x_max":510,"o":"m 510 918 l 283 918 l 283 -224 l 510 -224 l 510 -306 l 131 -306 l 131 1000 l 510 1000 l 510 918 z "},"\\":{"ha":554,"x_min":-121,"x_max":597,"o":"m -121 971 l 22 971 l 597 -189 l 454 -189 l -121 971 z "},"]":{"ha":456,"x_min":-54,"x_max":325,"o":"m 325 1000 l 325 -306 l -54 -306 l -54 -224 l 172 -224 l 172 918 l -54 918 l -54 1000 l 325 1000 z "},"^":{"ha":900,"x_min":71,"x_max":831,"o":"m 361 928 l 539 928 l 831 456 l 681 456 l 451 836 l 219 456 l 71 456 l 361 928 z "},"_":{"ha":818,"x_min":1,"x_max":815,"o":"m 1 -82 l 1 0 l 815 0 l 815 -82 l 1 -82 z "},"`":{"ha":650,"x_min":233,"x_max":603,"o":"m 408 904 l 603 703 l 461 703 l 233 904 l 408 904 z "},"a":{"ha":881,"x_min":106,"x_max":763,"o":"m 297 82 l 567 82 q 603 92 592 82 q 614 129 614 103 l 614 544 q 603 581 614 571 q 567 592 592 592 l 297 592 q 262 583 269 592 q 254 549 254 575 l 254 125 q 262 90 254 97 q 297 82 269 82 m 614 674 l 763 674 l 763 0 l 614 0 l 614 43 q 538 0 596 0 l 215 0 q 106 110 106 0 l 106 564 q 215 674 106 674 l 538 674 q 614 631 596 674 l 614 674 z "},"b":{"ha":881,"x_min":118,"x_max":775,"o":"m 628 125 l 628 549 q 619 583 628 575 q 585 592 611 592 l 315 592 q 279 581 290 592 q 268 544 268 571 l 268 499 l 267 499 l 267 163 l 268 163 l 268 129 q 279 92 268 103 q 315 82 290 82 l 585 82 q 619 90 611 82 q 628 125 628 97 m 344 674 l 665 674 q 775 564 775 674 l 775 110 q 665 0 775 0 l 344 0 q 267 46 282 0 l 267 0 l 118 0 l 118 929 l 267 929 l 267 628 q 344 674 282 674 z "},"c":{"ha":826,"x_min":106,"x_max":747,"o":"m 747 450 l 600 450 l 600 549 q 592 583 600 575 q 557 592 583 592 l 297 592 q 262 583 269 592 q 254 549 254 575 l 254 125 q 262 90 254 97 q 297 82 269 82 l 557 82 q 592 90 583 82 q 600 125 600 97 l 600 224 l 747 224 l 747 110 q 638 0 747 0 l 215 0 q 106 110 106 0 l 106 564 q 215 674 106 674 l 638 674 q 747 564 747 674 l 747 450 z "},"d":{"ha":881,"x_min":106,"x_max":763,"o":"m 297 82 l 567 82 q 603 92 592 82 q 614 129 614 103 l 614 544 q 603 581 614 571 q 567 592 592 592 l 297 592 q 262 583 269 592 q 254 549 254 575 l 254 125 q 262 90 254 97 q 297 82 269 82 m 614 929 l 763 929 l 763 0 l 614 0 l 614 43 q 538 0 596 0 l 215 0 q 106 110 106 0 l 106 564 q 215 674 106 674 l 538 674 q 614 631 596 674 l 614 929 z "},"e":{"ha":869,"x_min":106,"x_max":776,"o":"m 254 386 l 631 386 l 631 549 q 622 583 631 575 q 588 592 614 592 l 297 592 q 262 583 269 592 q 254 549 254 575 l 254 386 m 215 674 l 667 674 q 776 564 776 674 l 776 304 l 254 304 l 254 125 q 262 90 254 97 q 297 82 269 82 l 585 82 q 619 90 611 82 q 628 125 628 97 l 628 196 l 774 196 l 774 110 q 664 0 774 0 l 215 0 q 106 110 106 0 l 106 564 q 215 674 106 674 z "},"f":{"ha":529,"x_min":74,"x_max":515,"o":"m 515 843 l 365 843 q 331 835 339 843 q 322 800 322 828 l 322 674 l 515 674 l 515 592 l 322 592 l 322 0 l 174 0 l 174 592 l 74 592 l 74 674 l 174 674 l 174 819 q 283 929 174 929 l 515 929 l 515 843 z "},"g":{"ha":869,"x_min":106,"x_max":764,"o":"m 297 82 l 567 82 q 603 92 592 82 q 614 129 614 103 l 614 544 q 603 581 614 571 q 567 592 592 592 l 297 592 q 262 583 269 592 q 254 549 254 575 l 254 125 q 262 90 254 97 q 297 82 269 82 m 763 24 l 764 24 l 764 -86 q 654 -196 764 -196 l 132 -196 l 132 -114 l 572 -114 q 608 -106 600 -114 q 615 -71 615 -97 l 615 8 l 614 8 l 614 43 q 538 0 596 0 l 215 0 q 106 110 106 0 l 106 564 q 215 674 106 674 l 538 674 q 614 631 596 674 l 614 674 l 763 674 l 763 24 z "},"h":{"ha":882,"x_min":118,"x_max":776,"o":"m 344 674 l 667 674 q 776 564 776 674 l 776 0 l 629 0 l 629 549 q 622 583 629 575 q 586 592 614 592 l 315 592 q 279 581 290 592 q 268 544 268 571 l 268 501 l 267 501 l 267 0 l 118 0 l 118 929 l 267 929 l 267 628 q 344 674 282 674 z "},"i":{"ha":410,"x_min":128,"x_max":283,"o":"m 279 0 l 131 0 l 131 674 l 279 674 l 279 0 m 128 803 l 128 931 l 283 931 l 283 803 l 128 803 z "},"j":{"ha":399,"x_min":-53,"x_max":283,"o":"m 131 -71 l 131 674 l 281 674 l 281 -86 q 171 -196 281 -196 l -53 -196 l -53 -114 l 88 -114 q 122 -106 114 -114 q 131 -71 131 -97 m 128 803 l 128 931 l 283 931 l 283 803 l 128 803 z "},"k":{"ha":853,"x_min":118,"x_max":824,"o":"m 118 0 l 118 929 l 267 929 l 267 0 l 118 0 m 824 674 l 478 340 l 824 0 l 642 0 l 303 340 l 643 674 l 824 674 z "},"l":{"ha":411,"x_min":132,"x_max":279,"o":"m 279 0 l 132 0 l 132 929 l 279 929 l 279 0 z "},"m":{"ha":1349,"x_min":118,"x_max":1243,"o":"m 843 674 l 1133 674 q 1243 564 1243 674 l 1243 0 l 1096 0 l 1096 549 q 1088 583 1096 575 q 1053 592 1081 592 l 813 592 q 764 542 764 592 l 764 0 l 615 0 l 615 549 q 608 583 615 575 q 572 592 600 592 l 315 592 q 278 581 289 592 q 267 544 267 571 l 267 0 l 118 0 l 118 674 l 267 674 l 267 628 q 343 674 282 674 l 654 674 q 756 617 735 674 q 843 674 772 674 z "},"n":{"ha":881,"x_min":118,"x_max":775,"o":"m 344 674 l 665 674 q 775 564 775 674 l 775 0 l 628 0 l 628 549 q 619 583 628 575 q 585 592 611 592 l 315 592 q 279 581 290 592 q 268 544 268 571 l 268 500 l 267 500 l 267 0 l 118 0 l 118 674 l 267 674 l 267 628 q 344 674 282 674 z "},"o":{"ha":872,"x_min":106,"x_max":767,"o":"m 619 125 l 619 549 q 611 583 619 575 q 576 592 603 592 l 296 592 q 261 583 269 592 q 253 549 253 575 l 253 125 q 261 90 253 97 q 296 82 269 82 l 576 82 q 611 90 603 82 q 619 125 619 97 m 215 674 l 657 674 q 767 564 767 674 l 767 110 q 657 0 767 0 l 215 0 q 106 110 106 0 l 106 564 q 215 674 106 674 z "},"p":{"ha":893,"x_min":118,"x_max":788,"o":"m 639 125 l 639 549 q 631 583 639 575 q 596 592 622 592 l 315 592 q 278 581 289 592 q 267 544 267 571 l 267 129 q 278 92 267 103 q 315 82 289 82 l 596 82 q 631 90 622 82 q 639 125 639 97 m 343 674 l 678 674 q 788 564 788 674 l 788 110 q 678 0 788 0 l 343 0 q 267 46 282 0 l 267 -196 l 118 -196 l 118 674 l 265 674 l 265 624 q 343 674 282 674 z "},"q":{"ha":885,"x_min":147,"x_max":817,"o":"m 339 82 l 621 82 q 657 92 646 82 q 668 129 668 103 l 668 544 q 657 581 668 571 q 621 592 646 592 l 339 592 q 303 583 311 592 q 296 549 296 575 l 296 125 q 303 90 296 97 q 339 82 311 82 m 669 674 l 817 674 l 817 -196 l 668 -196 l 668 43 q 592 0 650 0 l 257 0 q 147 110 147 0 l 147 564 q 257 674 147 674 l 592 674 q 669 628 654 674 l 669 674 z "},"r":{"ha":531,"x_min":118,"x_max":517,"o":"m 385 674 l 517 674 l 517 588 l 360 588 q 267 483 267 588 l 267 0 l 118 0 l 118 674 l 267 674 l 267 588 q 385 674 290 674 z "},"s":{"ha":811,"x_min":103,"x_max":719,"o":"m 572 124 l 572 251 q 564 286 572 278 q 529 294 556 294 l 213 294 q 103 404 103 294 l 103 564 q 213 674 103 674 l 606 674 q 715 564 715 674 l 715 486 l 571 486 l 571 550 q 563 585 571 578 q 528 593 556 593 l 293 593 q 258 585 267 593 q 250 550 250 578 l 250 419 q 258 384 250 392 q 293 376 267 376 l 610 376 q 719 267 719 376 l 719 110 q 610 0 719 0 l 215 0 q 106 110 106 0 l 106 188 l 251 188 l 251 124 q 259 89 251 97 q 294 81 267 81 l 529 81 q 564 89 556 81 q 572 124 572 97 z "},"t":{"ha":521,"x_min":49,"x_max":468,"o":"m 468 592 l 306 592 l 306 131 q 314 95 306 103 q 349 88 322 88 l 467 88 l 467 0 l 267 0 q 157 110 157 0 l 157 592 l 49 592 l 49 674 l 157 674 l 157 799 l 306 799 l 306 674 l 468 674 l 468 592 z "},"u":{"ha":881,"x_min":106,"x_max":763,"o":"m 614 674 l 763 674 l 763 0 l 614 0 l 614 43 q 538 0 596 0 l 215 0 q 106 110 106 0 l 106 674 l 254 674 l 254 125 q 262 90 254 97 q 297 82 269 82 l 567 82 q 603 92 592 82 q 614 129 614 103 l 614 674 z "},"v":{"ha":835,"x_min":36,"x_max":797,"o":"m 36 674 l 183 674 l 415 97 l 651 674 l 797 674 l 519 0 l 314 0 l 36 674 z "},"w":{"ha":1240,"x_min":36,"x_max":1204,"o":"m 1063 674 l 1204 674 l 974 0 l 779 0 l 619 558 l 464 0 l 269 0 l 36 674 l 178 674 l 369 97 l 539 674 l 704 674 l 869 97 l 1063 674 z "},"x":{"ha":843,"x_min":42,"x_max":804,"o":"m 508 346 l 804 0 l 633 0 l 415 254 l 186 0 l 42 0 l 343 332 l 53 674 l 226 674 l 438 421 l 656 674 l 801 674 l 508 346 z "},"y":{"ha":817,"x_min":43,"x_max":808,"o":"m 304 -196 l 163 -196 l 163 -114 l 254 -114 q 358 -60 332 -114 l 386 0 l 333 0 l 43 674 l 196 674 l 429 100 l 658 674 l 808 674 l 488 -65 q 420 -165 458 -133 q 304 -196 382 -196 z "},"z":{"ha":717,"x_min":76,"x_max":642,"o":"m 642 82 l 642 0 l 76 0 l 76 82 l 481 592 l 94 592 l 94 674 l 639 674 l 639 592 l 233 82 l 642 82 z "},"{":{"ha":568,"x_min":100,"x_max":618,"o":"m 399 844 l 399 513 q 288 343 399 356 q 370 293 342 338 q 399 175 399 249 l 399 -151 q 411 -208 399 -190 q 457 -225 424 -225 l 618 -225 l 618 -307 l 411 -307 q 285 -270 324 -307 q 247 -150 247 -233 l 247 154 q 218 269 247 233 q 124 304 189 304 l 100 304 l 100 386 l 124 386 q 218 422 189 386 q 247 536 247 457 l 247 842 q 285 963 247 925 q 411 1000 324 1000 l 618 1000 l 618 918 l 457 918 q 411 901 424 918 q 399 844 399 883 z "},"|":{"ha":407,"x_min":132,"x_max":275,"o":"m 132 1026 l 275 1026 l 275 -164 l 132 -164 l 132 1026 z "},"}":{"ha":571,"x_min":-47,"x_max":471,"o":"m 172 513 l 172 844 q 160 901 172 883 q 114 918 147 918 l -47 918 l -47 1000 l 160 1000 q 285 963 247 1000 q 324 842 324 925 l 324 536 q 353 422 324 457 q 449 386 383 386 l 471 386 l 471 304 l 449 304 q 353 268 383 304 q 324 154 324 232 l 324 -150 q 285 -270 324 -233 q 160 -307 247 -307 l -47 -307 l -47 -225 l 114 -225 q 160 -208 147 -225 q 172 -151 172 -190 l 172 175 q 201 293 172 249 q 285 343 229 338 q 172 513 172 356 z "},"~":{"ha":1088,"x_min":104,"x_max":983,"o":"m 531 304 q 433 353 490 331 q 328 375 376 375 q 264 363 281 375 q 247 318 247 350 l 247 235 l 104 235 l 104 354 q 211 461 104 461 l 365 461 q 564 390 464 461 q 654 342 600 364 q 758 319 708 319 q 824 333 807 319 q 840 379 840 347 l 840 461 l 983 461 l 983 342 q 875 233 983 233 l 725 233 q 531 304 636 233 z "},"¡":{"ha":390,"x_min":107,"x_max":283,"o":"m 135 394 l 257 394 l 283 -190 l 107 -190 l 135 394 m 111 674 l 278 674 l 278 506 l 111 506 l 111 674 z "},"¢":{"ha":824,"x_min":104,"x_max":746,"o":"m 746 450 l 599 450 l 599 549 q 591 583 599 575 q 556 592 583 592 l 296 592 q 261 583 269 592 q 253 549 253 575 l 253 125 q 261 90 253 97 q 296 82 269 82 l 556 82 q 591 90 583 82 q 599 125 599 97 l 599 224 l 746 224 l 746 110 q 636 0 746 0 l 494 0 l 494 -107 l 349 -107 l 349 0 l 214 0 q 104 110 104 0 l 104 564 q 214 674 104 674 l 349 674 l 349 779 l 494 779 l 494 674 l 636 674 q 746 564 746 674 l 746 450 z "},"£":{"ha":967,"x_min":89,"x_max":890,"o":"m 890 101 l 890 0 l 101 0 l 101 92 q 210 242 210 96 l 210 378 l 89 378 l 89 460 l 210 460 l 210 754 q 319 864 210 864 l 763 864 q 872 754 872 864 l 872 603 l 721 603 l 721 739 q 713 774 721 767 q 678 782 706 782 l 406 782 q 370 774 378 782 q 363 739 363 767 l 363 460 l 754 460 l 754 378 l 363 378 l 363 251 q 354 150 363 183 q 319 101 346 117 l 890 101 z "},"¤":{"ha":1011,"x_min":90,"x_max":921,"o":"m 354 235 l 667 235 q 725 247 710 235 q 740 301 740 260 l 740 521 q 725 578 740 564 q 667 593 710 593 l 354 593 q 295 578 310 593 q 281 521 281 564 l 281 301 q 295 247 281 258 q 354 235 310 235 m 867 538 l 867 292 q 857 228 867 253 l 921 164 l 833 76 l 753 156 q 711 153 728 153 l 307 153 q 260 157 281 153 l 178 76 l 90 164 l 161 233 q 153 292 153 258 l 153 538 q 161 596 153 571 l 90 665 l 178 754 l 261 672 q 307 675 289 675 l 711 675 q 751 672 726 675 l 833 754 l 921 665 l 857 601 q 867 538 867 576 z "},"¥":{"ha":993,"x_min":60,"x_max":933,"o":"m 864 456 l 864 374 l 636 374 l 581 282 l 581 278 l 864 278 l 864 196 l 581 196 l 581 0 l 428 0 l 428 196 l 142 196 l 142 278 l 428 278 l 428 282 l 369 374 l 142 374 l 142 456 l 318 456 l 60 864 l 215 864 l 503 390 l 779 864 l 933 864 l 686 456 l 864 456 z "},"¦":{"ha":382,"x_min":121,"x_max":263,"o":"m 121 346 l 263 346 l 263 -164 l 121 -164 l 121 346 m 263 517 l 121 517 l 121 1026 l 263 1026 l 263 517 z "},"§":{"ha":924,"x_min":144,"x_max":796,"o":"m 749 208 l 749 54 q 639 -56 749 -56 l 254 -56 q 144 54 144 -56 l 144 129 l 296 129 l 296 69 q 303 34 296 42 q 339 26 311 26 l 557 26 q 591 35 583 26 q 599 69 599 43 l 599 196 q 591 231 599 222 q 557 239 583 239 l 257 239 q 147 349 147 239 l 147 469 q 218 588 147 571 q 190 654 190 615 l 190 813 q 300 922 190 922 l 686 922 q 796 813 796 922 l 796 738 l 646 738 l 646 797 q 638 833 646 825 q 603 840 631 840 l 385 840 q 350 833 358 840 q 342 797 342 825 l 342 669 q 350 634 342 642 q 385 626 358 626 l 685 626 q 794 517 794 626 l 794 393 q 722 278 794 293 q 749 208 749 249 m 600 544 l 340 544 q 306 536 314 544 q 297 501 297 528 l 297 364 q 306 328 297 336 q 340 321 314 321 l 600 321 q 635 328 628 321 q 643 364 643 336 l 643 501 q 635 536 643 528 q 600 544 628 544 z "},"¨":{"ha":853,"x_min":143,"x_max":708,"o":"m 515 874 l 708 874 l 708 749 l 515 749 l 515 874 m 143 874 l 336 874 l 336 749 l 143 749 l 143 874 z "},"©":{"ha":1458,"x_min":117,"x_max":1342,"o":"m 1342 474 l 1342 381 q 1264 92 1342 185 q 1007 0 1186 0 l 451 0 q 194 92 272 0 q 117 381 117 185 l 117 474 q 195 767 117 671 q 451 864 274 864 l 1007 864 q 1263 767 1185 864 q 1342 474 1342 671 m 467 83 l 992 83 q 1159 158 1110 83 q 1208 375 1208 233 l 1208 479 q 992 783 1208 783 l 467 783 q 250 479 250 783 l 250 375 q 299 158 250 233 q 467 83 349 83 m 875 333 l 875 374 l 1000 374 l 1000 318 q 890 208 1000 208 l 569 208 q 460 318 460 208 l 460 561 q 569 671 460 671 l 890 671 q 1000 561 1000 671 l 1000 506 l 875 506 l 875 546 q 867 581 875 572 q 832 589 858 589 l 629 589 q 594 581 603 589 q 586 546 586 572 l 586 333 q 594 298 586 306 q 629 290 603 290 l 832 290 q 867 298 858 290 q 875 333 875 306 z "},"ª":{"ha":601,"x_min":79,"x_max":511,"o":"m 214 449 l 371 449 q 407 481 407 449 l 407 772 q 371 806 407 806 l 214 806 q 188 800 194 806 q 182 775 182 794 l 182 479 q 188 454 182 460 q 214 449 194 449 m 407 864 l 511 864 l 511 389 l 407 389 l 407 424 q 351 389 394 389 l 157 389 q 79 467 79 389 l 79 786 q 157 864 79 864 l 351 864 q 407 829 394 864 l 407 864 z "},"«":{"ha":778,"x_min":140,"x_max":660,"o":"m 317 143 l 140 357 l 317 571 l 475 571 l 297 357 l 475 143 l 317 143 m 500 143 l 324 357 l 500 571 l 660 571 l 482 357 l 660 143 l 500 143 z "},"¬":{"ha":1044,"x_min":85,"x_max":957,"o":"m 957 551 l 957 221 l 853 221 l 853 426 l 85 426 l 85 551 l 957 551 z "},"­":{"ha":469,"x_min":76,"x_max":393,"o":"m 76 358 l 76 440 l 393 440 l 393 358 l 76 358 z "},"®":{"ha":861,"x_min":81,"x_max":781,"o":"m 781 735 l 781 683 q 736 522 781 574 q 590 469 692 469 l 271 469 q 125 522 169 469 q 81 683 81 574 l 81 735 q 125 899 81 844 q 271 953 169 953 l 590 953 q 736 899 692 953 q 781 735 781 844 m 281 528 l 582 528 q 694 679 694 528 l 694 739 q 582 899 694 899 l 281 899 q 167 739 167 899 l 167 679 q 281 528 167 528 m 299 849 l 506 849 q 553 804 553 849 l 553 724 q 511 679 553 679 l 499 679 l 565 579 l 486 579 l 422 676 l 372 676 l 372 579 l 299 579 l 299 849 m 479 742 l 479 786 q 464 801 479 801 l 372 801 l 372 728 l 464 728 q 479 742 479 728 z "},"¯":{"ha":853,"x_min":167,"x_max":686,"o":"m 167 764 l 167 844 l 686 844 l 686 764 l 167 764 z "},"°":{"ha":785,"x_min":83,"x_max":703,"o":"m 703 757 l 703 567 q 594 460 703 460 l 190 460 q 83 567 83 460 l 83 757 q 190 864 83 864 l 594 864 q 703 757 703 864 m 564 582 l 564 743 q 556 778 564 769 q 521 786 547 786 l 267 786 q 231 778 239 786 q 224 743 224 769 l 224 582 q 231 547 224 556 q 267 539 239 539 l 521 539 q 556 547 547 539 q 564 582 564 556 z "},"±":{"ha":958,"x_min":103,"x_max":851,"o":"m 103 167 l 103 263 l 851 263 l 851 167 l 103 167 m 547 547 l 851 547 l 851 446 l 547 446 l 547 318 l 407 318 l 407 446 l 103 446 l 103 547 l 407 547 l 407 703 l 547 703 l 547 547 z "},"²":{"ha":531,"x_min":88,"x_max":467,"o":"m 183 782 l 183 708 l 88 708 l 88 804 q 147 864 88 864 l 407 864 q 467 804 467 864 l 467 749 q 408 610 467 658 l 213 451 l 463 451 l 463 389 l 90 389 l 90 450 l 324 649 q 368 751 368 686 l 368 782 q 364 801 368 797 q 344 806 360 806 l 207 806 q 188 801 192 806 q 183 782 183 797 z "},"³":{"ha":567,"x_min":90,"x_max":481,"o":"m 188 782 l 188 715 l 90 715 l 90 804 q 150 864 90 864 l 419 864 q 481 804 481 864 l 481 672 q 446 631 481 633 q 481 589 481 626 l 481 449 q 419 389 481 389 l 150 389 q 90 449 90 389 l 90 538 l 188 538 l 188 472 q 192 452 188 457 q 211 447 196 447 l 357 447 q 376 452 372 447 q 381 472 381 457 l 381 576 q 376 596 381 592 q 357 600 372 600 l 222 600 l 222 660 l 357 660 q 376 664 372 660 q 381 683 381 668 l 381 782 q 376 801 381 797 q 357 806 372 806 l 211 806 q 192 801 197 806 q 188 782 188 797 z "},"´":{"ha":853,"x_min":235,"x_max":604,"o":"m 235 703 l 429 904 l 604 904 l 376 703 l 235 703 z "},"µ":{"ha":894,"x_min":118,"x_max":776,"o":"m 628 674 l 776 674 l 776 0 l 628 0 l 628 46 q 550 0 613 0 l 267 0 l 267 -196 l 118 -196 l 118 674 l 267 674 l 267 125 q 275 90 267 97 q 310 82 283 82 l 579 82 q 617 92 606 82 q 628 129 628 103 l 628 674 z "},"¶":{"ha":1032,"x_min":103,"x_max":903,"o":"m 593 864 l 593 -196 l 456 -196 l 456 311 l 213 311 q 103 421 103 311 l 103 754 q 213 864 103 864 l 593 864 m 765 864 l 903 864 l 903 -196 l 765 -196 l 765 864 z "},"·":{"ha":379,"x_min":108,"x_max":274,"o":"m 108 353 l 108 521 l 274 521 l 274 353 l 108 353 z "},"¸":{"ha":853,"x_min":250,"x_max":597,"o":"m 457 -178 l 457 -68 l 597 -68 l 597 -187 q 476 -308 597 -308 l 250 -308 l 250 -228 l 410 -228 q 447 -217 436 -228 q 457 -178 457 -206 z "},"¹":{"ha":347,"x_min":38,"x_max":254,"o":"m 254 864 l 254 389 l 150 389 l 150 806 l 38 806 l 38 864 l 254 864 z "},"º":{"ha":604,"x_min":90,"x_max":510,"o":"m 510 790 l 510 463 q 436 389 510 389 l 165 389 q 90 463 90 389 l 90 790 q 165 864 90 864 l 436 864 q 510 790 510 864 m 408 476 l 408 778 q 403 801 408 796 q 379 806 397 806 l 221 806 q 197 801 203 806 q 192 778 192 796 l 192 476 q 197 453 192 458 q 221 447 203 447 l 379 447 q 403 453 397 447 q 408 476 408 458 z "},"»":{"ha":768,"x_min":115,"x_max":635,"o":"m 635 357 l 458 143 l 300 143 l 478 357 l 300 571 l 458 571 l 635 357 m 451 357 l 275 143 l 115 143 l 293 357 l 115 571 l 275 571 l 451 357 z "},"¿":{"ha":863,"x_min":117,"x_max":813,"o":"m 557 672 l 557 506 l 390 506 l 390 672 l 557 672 m 663 71 l 813 71 l 813 -85 q 703 -192 813 -192 l 226 -192 q 117 -85 117 -192 l 117 192 q 226 300 117 300 l 404 300 l 411 394 l 535 394 l 547 215 l 306 215 q 274 206 281 215 q 267 171 267 197 l 267 -65 q 274 -101 267 -92 q 306 -111 281 -111 l 622 -111 q 656 -101 649 -111 q 663 -65 663 -92 l 663 71 z "},"À":{"ha":963,"x_min":42,"x_max":921,"o":"m 532 931 l 392 931 l 164 1131 l 339 1131 l 532 931 m 288 253 l 674 253 l 481 765 l 288 253 m 769 0 l 706 171 l 257 171 l 193 0 l 42 0 l 376 864 l 585 864 l 921 0 l 769 0 z "},"Á":{"ha":963,"x_min":43,"x_max":921,"o":"m 793 1132 l 565 931 l 424 931 l 618 1132 l 793 1132 m 288 253 l 674 253 l 481 765 l 288 253 m 769 0 l 706 171 l 257 171 l 193 0 l 43 0 l 376 864 l 586 864 l 921 0 l 769 0 z "},"Â":{"ha":963,"x_min":43,"x_max":921,"o":"m 481 1067 l 329 929 l 165 929 l 400 1132 l 561 1132 l 796 929 l 633 929 l 481 1067 m 288 253 l 674 253 l 481 765 l 288 253 m 769 0 l 706 171 l 257 171 l 193 0 l 43 0 l 376 864 l 586 864 l 921 0 l 769 0 z "},"Ã":{"ha":963,"x_min":43,"x_max":921,"o":"m 319 1007 l 319 929 l 194 929 l 194 1013 q 296 1121 194 1121 l 329 1121 q 496 1066 375 1121 q 638 1011 617 1011 q 665 1018 660 1011 q 671 1044 671 1025 l 671 1121 l 794 1121 l 794 1038 q 772 957 794 985 q 694 929 749 929 l 657 929 q 491 984 610 929 q 344 1039 372 1039 q 319 1007 319 1039 m 288 253 l 674 253 l 481 765 l 288 253 m 769 0 l 706 171 l 257 171 l 193 0 l 43 0 l 376 864 l 586 864 l 921 0 l 769 0 z "},"Ä":{"ha":963,"x_min":42,"x_max":921,"o":"m 765 1056 l 765 929 l 574 929 l 574 1056 l 765 1056 m 393 1056 l 393 929 l 201 929 l 201 1056 l 393 1056 m 288 253 l 674 253 l 481 765 l 288 253 m 769 0 l 706 171 l 257 171 l 193 0 l 42 0 l 376 864 l 585 864 l 921 0 l 769 0 z "},"Å":{"ha":963,"x_min":43,"x_max":921,"o":"m 358 1064 l 358 1036 q 365 1004 358 1011 q 399 997 372 997 l 564 997 q 597 1004 590 997 q 604 1036 604 1011 l 604 1064 q 597 1096 604 1089 q 564 1103 590 1103 l 399 1103 q 365 1096 372 1103 q 358 1064 358 1089 m 611 929 l 351 929 q 257 1024 257 929 l 257 1076 q 351 1171 257 1171 l 611 1171 q 706 1076 706 1171 l 706 1024 q 611 929 706 929 m 288 253 l 674 253 l 481 765 l 288 253 m 769 0 l 706 171 l 257 171 l 193 0 l 43 0 l 376 864 l 586 864 l 921 0 l 769 0 z "},"Æ":{"ha":1425,"x_min":38,"x_max":1347,"o":"m 733 279 l 733 757 l 397 279 l 733 279 m 888 82 l 1347 82 l 1347 0 l 733 0 l 733 197 l 340 197 l 201 0 l 38 0 l 653 864 l 1329 864 l 1329 782 l 888 782 l 888 483 l 1285 483 l 1285 401 l 888 401 l 888 82 z "},"Ç":{"ha":904,"x_min":117,"x_max":825,"o":"m 390 -178 l 390 -68 l 531 -68 l 531 -187 q 410 -308 531 -308 l 183 -308 l 183 -228 l 343 -228 q 380 -217 369 -228 q 390 -178 390 -206 m 825 569 l 672 569 l 672 739 q 664 774 672 767 q 629 782 656 782 l 314 782 q 278 774 286 782 q 271 739 271 767 l 271 125 q 278 90 271 97 q 314 82 286 82 l 629 82 q 664 90 656 82 q 672 125 672 97 l 672 294 l 825 294 l 825 110 q 715 0 825 0 l 226 0 q 117 110 117 0 l 117 754 q 226 864 117 864 l 715 864 q 825 754 825 864 l 825 569 z "},"È":{"ha":824,"x_min":131,"x_max":760,"o":"m 514 929 l 372 929 l 144 1131 l 319 1131 l 514 929 m 286 82 l 760 82 l 760 0 l 131 0 l 131 864 l 740 864 l 740 782 l 286 782 l 286 483 l 683 483 l 683 401 l 286 401 l 286 82 z "},"É":{"ha":824,"x_min":131,"x_max":760,"o":"m 753 1131 l 525 929 l 383 929 l 578 1131 l 753 1131 m 286 82 l 760 82 l 760 0 l 131 0 l 131 864 l 740 864 l 740 782 l 286 782 l 286 483 l 683 483 l 683 401 l 286 401 l 286 82 z "},"Ê":{"ha":824,"x_min":129,"x_max":760,"o":"m 444 1067 l 293 929 l 129 929 l 364 1132 l 525 1132 l 760 929 l 597 929 l 444 1067 m 286 401 l 286 82 l 760 82 l 760 0 l 131 0 l 131 864 l 740 864 l 740 782 l 286 782 l 286 483 l 683 483 l 683 401 l 286 401 z "},"Ë":{"ha":838,"x_min":131,"x_max":760,"o":"m 718 1056 l 718 929 l 526 929 l 526 1056 l 718 1056 m 346 1056 l 346 929 l 154 929 l 154 1056 l 346 1056 m 288 82 l 760 82 l 760 0 l 131 0 l 131 864 l 740 864 l 740 782 l 288 782 l 288 483 l 683 483 l 683 401 l 288 401 l 288 82 z "},"Ì":{"ha":438,"x_min":-93,"x_max":299,"o":"m 143 864 l 299 864 l 299 0 l 143 0 l 143 864 m 82 1131 l 276 929 l 135 929 l -93 1131 l 82 1131 z "},"Í":{"ha":438,"x_min":143,"x_max":528,"o":"m 143 864 l 299 864 l 299 0 l 143 0 l 143 864 m 158 929 l 353 1131 l 528 1131 l 300 929 l 158 929 z "},"Î":{"ha":438,"x_min":-87,"x_max":543,"o":"m 143 864 l 299 864 l 299 0 l 143 0 l 143 864 m -87 931 l 147 1133 l 308 1133 l 543 931 l 381 931 l 228 1068 l 76 931 l -87 931 z "},"Ï":{"ha":438,"x_min":-62,"x_max":503,"o":"m 143 864 l 297 864 l 297 0 l 143 0 l 143 864 m -62 1056 l 131 1056 l 131 929 l -62 929 l -62 1056 m 310 1056 l 503 1056 l 503 929 l 310 929 l 310 1056 z "},"Ð":{"ha":996,"x_min":81,"x_max":879,"o":"m 725 125 l 725 739 q 717 774 725 767 q 682 782 708 782 l 311 782 l 311 478 l 571 478 l 571 393 l 311 393 l 311 82 l 682 82 q 717 90 708 82 q 725 125 725 97 m 157 864 l 769 864 q 879 754 879 864 l 879 110 q 769 0 879 0 l 157 0 l 157 393 l 81 393 l 81 478 l 157 478 l 157 864 z "},"Ñ":{"ha":1004,"x_min":131,"x_max":874,"o":"m 733 864 l 874 864 l 874 0 l 728 0 l 271 699 l 271 0 l 131 0 l 131 864 l 282 864 l 733 171 l 733 864 m 354 1039 q 329 1007 329 1039 l 329 929 l 204 929 l 204 1013 q 306 1121 204 1121 l 339 1121 q 506 1066 385 1121 q 648 1011 626 1011 q 675 1018 669 1011 q 681 1044 681 1025 l 681 1121 l 804 1121 l 804 1038 q 781 957 804 985 q 704 929 758 929 l 667 929 q 501 984 619 929 q 354 1039 382 1039 z "},"Ò":{"ha":936,"x_min":118,"x_max":818,"o":"m 818 754 l 818 110 q 708 0 818 0 l 228 0 q 118 110 118 0 l 118 754 q 228 864 118 864 l 708 864 q 818 754 818 864 m 667 125 l 667 739 q 658 774 667 767 q 624 782 650 782 l 314 782 q 278 774 286 782 q 271 739 271 767 l 271 125 q 278 90 271 97 q 314 82 286 82 l 624 82 q 658 90 650 82 q 667 125 667 97 m 350 1131 l 544 929 l 403 929 l 175 1131 l 350 1131 z "},"Ó":{"ha":936,"x_min":118,"x_max":818,"o":"m 411 929 l 606 1131 l 781 1131 l 553 929 l 411 929 m 818 754 l 818 110 q 708 0 818 0 l 228 0 q 118 110 118 0 l 118 754 q 228 864 118 864 l 708 864 q 818 754 818 864 m 667 125 l 667 739 q 658 774 667 767 q 624 782 650 782 l 314 782 q 278 774 286 782 q 271 739 271 767 l 271 125 q 278 90 271 97 q 314 82 286 82 l 624 82 q 658 90 650 82 q 667 125 667 97 z "},"Ô":{"ha":936,"x_min":118,"x_max":818,"o":"m 153 929 l 388 1132 l 549 1132 l 783 929 l 621 929 l 468 1067 l 317 929 l 153 929 m 818 754 l 818 110 q 708 0 818 0 l 228 0 q 118 110 118 0 l 118 754 q 228 864 118 864 l 708 864 q 818 754 818 864 m 667 125 l 667 739 q 658 774 667 767 q 624 782 650 782 l 314 782 q 278 774 286 782 q 271 739 271 767 l 271 125 q 278 90 271 97 q 314 82 286 82 l 624 82 q 658 90 650 82 q 667 125 667 97 z "},"Õ":{"ha":936,"x_min":118,"x_max":818,"o":"m 818 754 l 818 110 q 708 0 818 0 l 228 0 q 118 110 118 0 l 118 754 q 228 864 118 864 l 708 864 q 818 754 818 864 m 667 125 l 667 739 q 658 774 667 767 q 624 782 650 782 l 314 782 q 278 774 286 782 q 271 739 271 767 l 271 125 q 278 90 271 97 q 314 82 286 82 l 624 82 q 658 90 650 82 q 667 125 667 97 m 314 1039 q 289 1007 289 1039 l 289 929 l 164 929 l 164 1013 q 265 1121 164 1121 l 299 1121 q 465 1066 344 1121 q 608 1011 586 1011 q 635 1018 629 1011 q 640 1044 640 1025 l 640 1121 l 764 1121 l 764 1038 q 741 957 764 985 q 664 929 718 929 l 626 929 q 460 984 579 929 q 314 1039 342 1039 z "},"Ö":{"ha":931,"x_min":118,"x_max":818,"o":"m 818 754 l 818 110 q 708 0 818 0 l 228 0 q 118 110 118 0 l 118 754 q 228 864 118 864 l 708 864 q 818 754 818 864 m 667 125 l 667 739 q 658 774 667 767 q 624 782 650 782 l 313 782 q 278 774 286 782 q 269 739 269 767 l 269 125 q 278 90 269 97 q 313 82 286 82 l 624 82 q 658 90 650 82 q 667 125 667 97 m 560 1056 l 753 1056 l 753 929 l 560 929 l 560 1056 m 188 1056 l 381 1056 l 381 929 l 188 929 l 188 1056 z "},"×":{"ha":917,"x_min":115,"x_max":810,"o":"m 810 610 l 564 439 l 803 271 l 729 182 l 463 368 l 194 182 l 122 272 l 361 439 l 115 610 l 189 700 l 461 510 l 735 700 l 810 610 z "},"Ø":{"ha":981,"x_min":110,"x_max":872,"o":"m 701 121 l 701 656 l 296 81 q 319 78 301 78 l 658 78 q 694 86 686 78 q 701 121 701 94 m 276 743 l 276 203 l 688 782 q 658 786 678 786 l 319 786 q 284 778 292 786 q 276 743 276 769 m 850 754 l 850 110 q 740 0 850 0 l 239 0 l 215 -33 l 110 -33 l 154 31 q 131 110 131 58 l 131 754 q 240 864 131 864 l 744 864 l 768 897 l 872 897 l 826 832 q 850 754 850 804 z "},"Ù":{"ha":958,"x_min":118,"x_max":839,"o":"m 271 864 l 271 125 q 278 90 271 97 q 314 82 286 82 l 646 82 q 681 90 672 82 q 689 125 689 97 l 689 864 l 839 864 l 839 110 q 729 0 839 0 l 228 0 q 118 110 118 0 l 118 864 l 271 864 m 372 1131 l 567 929 l 425 929 l 197 1131 l 372 1131 z "},"Ú":{"ha":958,"x_min":118,"x_max":839,"o":"m 415 929 l 610 1131 l 785 1131 l 557 929 l 415 929 m 271 864 l 271 125 q 278 90 271 97 q 314 82 286 82 l 646 82 q 681 90 672 82 q 689 125 689 97 l 689 864 l 839 864 l 839 110 q 729 0 839 0 l 228 0 q 118 110 118 0 l 118 864 l 271 864 z "},"Û":{"ha":958,"x_min":118,"x_max":839,"o":"m 161 929 l 396 1132 l 557 1132 l 792 929 l 629 929 l 476 1067 l 325 929 l 161 929 m 271 864 l 271 125 q 278 90 271 97 q 314 82 286 82 l 646 82 q 681 90 672 82 q 689 125 689 97 l 689 864 l 839 864 l 839 110 q 729 0 839 0 l 228 0 q 118 110 118 0 l 118 864 l 271 864 z "},"Ü":{"ha":958,"x_min":118,"x_max":840,"o":"m 689 864 l 840 864 l 840 110 q 731 0 840 0 l 228 0 q 118 110 118 0 l 118 864 l 271 864 l 271 125 q 278 90 271 97 q 314 82 286 82 l 646 82 q 681 90 672 82 q 689 125 689 97 l 689 864 m 190 1056 l 383 1056 l 383 929 l 190 929 l 190 1056 m 563 1056 l 756 1056 l 756 929 l 563 929 l 563 1056 z "},"Ý":{"ha":894,"x_min":11,"x_max":883,"o":"m 775 1131 l 547 929 l 406 929 l 600 1131 l 775 1131 m 532 0 l 379 0 l 379 282 l 11 864 l 165 864 l 454 390 l 731 864 l 883 864 l 532 282 l 532 0 z "},"Þ":{"ha":935,"x_min":132,"x_max":843,"o":"m 693 267 l 693 597 q 685 633 693 625 q 650 640 678 640 l 285 640 l 285 224 l 650 224 q 685 231 678 224 q 693 267 693 239 m 285 722 l 733 722 q 843 613 843 722 l 843 251 q 733 142 843 142 l 285 142 l 285 0 l 132 0 l 132 864 l 285 864 l 285 722 z "},"ß":{"ha":1153,"x_min":132,"x_max":1076,"o":"m 449 211 l 594 211 l 594 124 q 603 89 594 97 q 638 81 611 81 l 888 81 q 922 89 914 81 q 931 124 931 97 l 931 279 q 922 314 931 306 q 888 322 914 322 l 557 322 q 447 432 447 322 l 447 536 q 551 646 447 646 l 825 646 q 866 653 857 646 q 875 683 875 660 l 875 735 q 867 771 875 763 q 832 779 858 779 l 326 779 q 291 770 300 779 q 282 735 282 761 l 282 0 l 132 0 l 132 754 q 242 864 132 864 l 915 864 q 1025 754 1025 864 l 1025 660 q 928 565 1025 565 l 633 565 q 598 558 606 565 q 590 522 590 550 l 590 446 q 598 411 590 419 q 633 403 606 403 l 967 403 q 1076 293 1076 403 l 1076 110 q 967 0 1076 0 l 558 0 q 449 110 449 0 l 449 211 z "},"à":{"ha":879,"x_min":104,"x_max":761,"o":"m 522 739 l 381 739 l 153 940 l 328 940 l 522 739 m 296 82 l 565 82 q 601 92 590 82 q 613 129 613 103 l 613 544 q 601 581 613 571 q 565 592 590 592 l 296 592 q 261 583 269 592 q 253 549 253 575 l 253 125 q 261 90 253 97 q 296 82 269 82 m 613 674 l 761 674 l 761 0 l 613 0 l 613 43 q 536 0 594 0 l 214 0 q 104 110 104 0 l 104 564 q 214 674 104 674 l 536 674 q 613 631 594 674 l 613 674 z "},"á":{"ha":879,"x_min":104,"x_max":761,"o":"m 740 940 l 513 739 l 371 739 l 565 940 l 740 940 m 296 82 l 565 82 q 601 92 590 82 q 613 129 613 103 l 613 544 q 601 581 613 571 q 565 592 590 592 l 296 592 q 261 583 269 592 q 253 549 253 575 l 253 125 q 261 90 253 97 q 296 82 269 82 m 613 674 l 761 674 l 761 0 l 613 0 l 613 43 q 536 0 594 0 l 214 0 q 104 110 104 0 l 104 564 q 214 674 104 674 l 536 674 q 613 631 594 674 l 613 674 z "},"â":{"ha":879,"x_min":104,"x_max":761,"o":"m 436 876 l 285 739 l 121 739 l 356 942 l 517 942 l 751 739 l 589 739 l 436 876 m 296 82 l 565 82 q 601 92 590 82 q 613 129 613 103 l 613 544 q 601 581 613 571 q 565 592 590 592 l 296 592 q 261 583 269 592 q 253 549 253 575 l 253 125 q 261 90 253 97 q 296 82 269 82 m 613 674 l 761 674 l 761 0 l 613 0 l 613 43 q 536 0 594 0 l 214 0 q 104 110 104 0 l 104 564 q 214 674 104 674 l 536 674 q 613 631 594 674 l 613 674 z "},"ã":{"ha":879,"x_min":104,"x_max":761,"o":"m 261 817 l 261 739 l 136 739 l 136 822 q 238 931 136 931 l 271 931 q 438 876 317 931 q 580 821 558 821 q 607 828 601 821 q 613 854 613 835 l 613 931 l 736 931 l 736 847 q 713 767 736 794 q 636 739 690 739 l 599 739 q 433 794 551 739 q 286 849 314 849 q 261 817 261 849 m 296 82 l 565 82 q 601 92 590 82 q 613 129 613 103 l 613 544 q 601 581 613 571 q 565 592 590 592 l 296 592 q 261 583 269 592 q 253 549 253 575 l 253 125 q 261 90 253 97 q 296 82 269 82 m 613 674 l 761 674 l 761 0 l 613 0 l 613 43 q 536 0 594 0 l 214 0 q 104 110 104 0 l 104 564 q 214 674 104 674 l 536 674 q 613 631 594 674 l 613 674 z "},"ä":{"ha":879,"x_min":104,"x_max":761,"o":"m 724 864 l 724 739 l 531 739 l 531 864 l 724 864 m 351 864 l 351 739 l 158 739 l 158 864 l 351 864 m 296 82 l 565 82 q 601 92 590 82 q 613 129 613 103 l 613 544 q 601 581 613 571 q 565 592 590 592 l 296 592 q 261 583 269 592 q 253 549 253 575 l 253 125 q 261 90 253 97 q 296 82 269 82 m 613 674 l 761 674 l 761 0 l 613 0 l 613 43 q 536 0 594 0 l 214 0 q 104 110 104 0 l 104 564 q 214 674 104 674 l 536 674 q 613 631 594 674 l 613 674 z "},"å":{"ha":879,"x_min":104,"x_max":761,"o":"m 311 874 l 311 846 q 318 815 311 822 q 351 807 325 807 l 517 807 q 550 814 543 807 q 557 846 557 821 l 557 874 q 550 906 557 899 q 517 913 543 913 l 351 913 q 318 905 325 913 q 311 874 311 897 m 564 739 l 304 739 q 210 833 210 739 l 210 886 q 304 981 210 981 l 564 981 q 658 886 658 981 l 658 833 q 564 739 658 739 m 296 82 l 565 82 q 601 92 590 82 q 613 129 613 103 l 613 544 q 601 581 613 571 q 565 592 590 592 l 296 592 q 261 583 269 592 q 253 549 253 575 l 253 125 q 261 90 253 97 q 296 82 269 82 m 613 674 l 761 674 l 761 0 l 613 0 l 613 43 q 536 0 594 0 l 214 0 q 104 110 104 0 l 104 564 q 214 674 104 674 l 536 674 q 613 631 594 674 l 613 674 z "},"æ":{"ha":1353,"x_min":106,"x_max":1244,"o":"m 297 82 l 543 82 q 578 91 568 82 q 589 124 589 100 l 589 300 l 254 225 l 254 125 q 262 90 254 97 q 297 82 269 82 m 1056 592 l 779 592 q 744 583 753 592 q 736 549 736 575 l 736 386 l 1099 386 l 1099 549 q 1091 583 1099 575 q 1056 592 1083 592 m 1232 304 l 736 304 l 736 125 q 744 90 736 97 q 779 82 753 82 l 1051 82 q 1086 90 1078 82 q 1094 125 1094 97 l 1094 194 l 1240 194 l 1240 110 q 1131 0 1240 0 l 756 0 q 661 53 676 0 q 558 0 646 0 l 215 0 q 106 110 106 0 l 106 278 l 589 388 l 589 550 q 578 583 589 574 q 543 592 568 592 l 297 592 q 262 583 269 592 q 254 549 254 575 l 254 429 l 106 429 l 106 564 q 215 674 106 674 l 558 674 q 661 621 646 674 q 756 674 676 674 l 1135 674 q 1244 564 1244 674 l 1244 306 l 1232 306 l 1232 304 z "},"ç":{"ha":824,"x_min":104,"x_max":746,"o":"m 351 -178 l 351 -68 l 492 -68 l 492 -187 q 371 -308 492 -308 l 144 -308 l 144 -228 l 304 -228 q 341 -217 331 -228 q 351 -178 351 -206 m 746 450 l 599 450 l 599 549 q 591 583 599 575 q 556 592 583 592 l 296 592 q 261 583 269 592 q 253 549 253 575 l 253 125 q 261 90 253 97 q 296 82 269 82 l 556 82 q 591 90 583 82 q 599 125 599 97 l 599 224 l 746 224 l 746 110 q 636 0 746 0 l 214 0 q 104 110 104 0 l 104 564 q 214 674 104 674 l 636 674 q 746 564 746 674 l 746 450 z "},"è":{"ha":865,"x_min":104,"x_max":775,"o":"m 528 739 l 386 739 l 158 940 l 333 940 l 528 739 m 253 386 l 629 386 l 629 549 q 622 583 629 575 q 586 592 614 592 l 296 592 q 261 583 269 592 q 253 549 253 575 l 253 386 m 214 674 l 665 674 q 775 564 775 674 l 775 304 l 253 304 l 253 125 q 261 90 253 97 q 296 82 269 82 l 583 82 q 619 90 611 82 q 626 125 626 97 l 626 196 l 772 196 l 772 110 q 663 0 772 0 l 214 0 q 104 110 104 0 l 104 564 q 214 674 104 674 z "},"é":{"ha":865,"x_min":104,"x_max":775,"o":"m 753 940 l 525 739 l 383 739 l 578 940 l 753 940 m 253 386 l 629 386 l 629 549 q 622 583 629 575 q 586 592 614 592 l 296 592 q 261 583 269 592 q 253 549 253 575 l 253 386 m 214 674 l 665 674 q 775 564 775 674 l 775 304 l 253 304 l 253 125 q 261 90 253 97 q 296 82 269 82 l 583 82 q 619 90 611 82 q 626 125 626 97 l 626 196 l 772 196 l 772 110 q 663 0 772 0 l 214 0 q 104 110 104 0 l 104 564 q 214 674 104 674 z "},"ê":{"ha":865,"x_min":104,"x_max":775,"o":"m 443 876 l 292 739 l 128 739 l 363 942 l 524 942 l 758 739 l 596 739 l 443 876 m 253 386 l 629 386 l 629 549 q 622 583 629 575 q 586 592 614 592 l 296 592 q 261 583 269 592 q 253 549 253 575 l 253 386 m 214 674 l 665 674 q 775 564 775 674 l 775 304 l 253 304 l 253 125 q 261 90 253 97 q 296 82 269 82 l 583 82 q 619 90 611 82 q 626 125 626 97 l 626 196 l 772 196 l 772 110 q 663 0 772 0 l 214 0 q 104 110 104 0 l 104 564 q 214 674 104 674 z "},"ë":{"ha":865,"x_min":104,"x_max":775,"o":"m 349 865 l 349 739 l 156 739 l 156 865 l 349 865 m 721 865 l 721 739 l 528 739 l 528 865 l 721 865 m 214 674 l 665 674 q 775 564 775 674 l 775 304 l 253 304 l 253 125 q 261 90 253 97 q 296 82 269 82 l 583 82 q 619 90 611 82 q 626 125 626 97 l 626 196 l 771 196 l 771 110 q 661 0 771 0 l 214 0 q 104 110 104 0 l 104 564 q 214 674 104 674 m 253 386 l 629 386 l 629 549 q 622 583 629 575 q 586 592 614 592 l 296 592 q 261 583 269 592 q 253 549 253 575 l 253 386 z "},"ì":{"ha":410,"x_min":-103,"x_max":279,"o":"m 279 0 l 131 0 l 131 674 l 279 674 l 279 0 m 72 940 l 267 739 l 125 739 l -103 940 l 72 940 z "},"í":{"ha":410,"x_min":131,"x_max":511,"o":"m 279 0 l 131 0 l 131 674 l 279 674 l 279 0 m 142 739 l 336 940 l 511 940 l 283 739 l 142 739 z "},"î":{"ha":410,"x_min":-108,"x_max":522,"o":"m 279 0 l 131 0 l 131 674 l 279 674 l 279 0 m -108 739 l 126 942 l 288 942 l 522 739 l 360 739 l 207 876 l 56 739 l -108 739 z "},"ï":{"ha":410,"x_min":-72,"x_max":493,"o":"m 279 0 l 131 0 l 131 674 l 279 674 l 279 0 m 300 865 l 493 865 l 493 740 l 300 740 l 300 865 m -72 865 l 121 865 l 121 740 l -72 740 l -72 865 z "},"ð":{"ha":590,"x_min":131,"x_max":822,"o":"m 674 125 l 674 443 l 322 443 q 287 435 294 443 q 279 400 279 428 l 279 125 q 287 90 279 97 q 322 82 294 82 l 631 82 q 666 90 658 82 q 674 125 674 97 m 822 438 l 822 110 q 713 0 822 0 l 240 0 q 131 110 131 0 l 131 415 q 240 525 131 525 l 661 525 q 581 665 640 597 l 346 603 l 346 681 l 521 728 q 331 864 446 794 l 531 864 q 656 764 597 818 l 818 807 l 818 729 l 714 701 q 822 438 822 574 z "},"ñ":{"ha":881,"x_min":118,"x_max":775,"o":"m 274 815 l 274 738 l 149 738 l 149 821 q 250 929 149 929 l 283 929 q 450 874 329 929 q 592 819 571 819 q 619 826 614 819 q 625 853 625 833 l 625 929 l 749 929 l 749 846 q 726 765 749 793 q 649 738 703 738 l 611 738 q 445 792 564 738 q 299 847 326 847 q 274 815 274 847 m 344 674 l 665 674 q 775 564 775 674 l 775 0 l 628 0 l 628 549 q 619 583 628 575 q 585 592 611 592 l 315 592 q 279 581 290 592 q 268 544 268 571 l 268 500 l 267 500 l 267 0 l 118 0 l 118 674 l 267 674 l 267 628 q 344 674 282 674 z "},"ò":{"ha":872,"x_min":106,"x_max":767,"o":"m 515 739 l 374 739 l 146 940 l 321 940 l 515 739 m 619 125 l 619 549 q 611 583 619 575 q 576 592 603 592 l 296 592 q 261 583 269 592 q 253 549 253 575 l 253 125 q 261 90 253 97 q 296 82 269 82 l 576 82 q 611 90 603 82 q 619 125 619 97 m 215 674 l 657 674 q 767 564 767 674 l 767 110 q 657 0 767 0 l 215 0 q 106 110 106 0 l 106 564 q 215 674 106 674 z "},"ó":{"ha":872,"x_min":106,"x_max":767,"o":"m 753 940 l 525 739 l 383 739 l 578 940 l 753 940 m 619 125 l 619 549 q 611 583 619 575 q 576 592 603 592 l 296 592 q 261 583 269 592 q 253 549 253 575 l 253 125 q 261 90 253 97 q 296 82 269 82 l 576 82 q 611 90 603 82 q 619 125 619 97 m 215 674 l 657 674 q 767 564 767 674 l 767 110 q 657 0 767 0 l 215 0 q 106 110 106 0 l 106 564 q 215 674 106 674 z "},"ô":{"ha":872,"x_min":106,"x_max":767,"o":"m 438 876 l 286 739 l 122 739 l 357 942 l 518 942 l 753 739 l 590 739 l 438 876 m 619 125 l 619 549 q 611 583 619 575 q 576 592 603 592 l 296 592 q 261 583 269 592 q 253 549 253 575 l 253 125 q 261 90 253 97 q 296 82 269 82 l 576 82 q 611 90 603 82 q 619 125 619 97 m 215 674 l 657 674 q 767 564 767 674 l 767 110 q 657 0 767 0 l 215 0 q 106 110 106 0 l 106 564 q 215 674 106 674 z "},"õ":{"ha":872,"x_min":106,"x_max":767,"o":"m 267 817 l 267 739 l 142 739 l 142 822 q 243 931 142 931 l 276 931 q 443 876 322 931 q 585 821 564 821 q 613 828 607 821 q 618 854 618 835 l 618 931 l 742 931 l 742 847 q 719 767 742 794 q 642 739 696 739 l 604 739 q 438 794 557 739 q 292 849 319 849 q 267 817 267 849 m 619 125 l 619 549 q 611 583 619 575 q 576 592 603 592 l 296 592 q 261 583 269 592 q 253 549 253 575 l 253 125 q 261 90 253 97 q 296 82 269 82 l 576 82 q 611 90 603 82 q 619 125 619 97 m 215 674 l 657 674 q 767 564 767 674 l 767 110 q 657 0 767 0 l 215 0 q 106 110 106 0 l 106 564 q 215 674 106 674 z "},"ö":{"ha":872,"x_min":106,"x_max":767,"o":"m 215 674 l 657 674 q 767 564 767 674 l 767 110 q 657 0 767 0 l 215 0 q 106 110 106 0 l 106 564 q 215 674 106 674 m 619 549 q 611 583 619 575 q 576 592 603 592 l 296 592 q 261 583 269 592 q 253 549 253 575 l 253 125 q 261 90 253 97 q 296 82 269 82 l 576 82 q 611 90 603 82 q 619 125 619 97 l 619 549 m 158 865 l 351 865 l 351 739 l 158 739 l 158 865 m 531 865 l 724 865 l 724 739 l 531 739 l 531 865 z "},"÷":{"ha":910,"x_min":78,"x_max":826,"o":"m 78 378 l 78 486 l 826 486 l 826 378 l 78 378 m 376 703 l 529 703 l 529 586 l 376 586 l 376 703 m 376 278 l 529 278 l 529 160 l 376 160 l 376 278 z "},"ø":{"ha":896,"x_min":101,"x_max":808,"o":"m 638 121 l 638 500 l 289 76 l 593 76 q 629 85 621 76 q 638 121 638 93 m 260 554 l 260 158 l 619 594 q 593 597 613 597 l 304 597 q 268 590 276 597 q 260 554 260 582 m 779 564 l 779 110 q 669 0 779 0 l 225 0 l 197 -33 l 101 -33 l 149 24 q 117 110 117 50 l 117 564 q 226 674 117 674 l 683 674 l 711 707 l 808 707 l 756 643 q 779 564 779 615 z "},"ù":{"ha":881,"x_min":106,"x_max":763,"o":"m 532 739 l 390 739 l 163 940 l 338 940 l 532 739 m 614 674 l 763 674 l 763 0 l 614 0 l 614 43 q 538 0 596 0 l 215 0 q 106 110 106 0 l 106 674 l 254 674 l 254 125 q 262 90 254 97 q 297 82 269 82 l 567 82 q 603 92 592 82 q 614 129 614 103 l 614 674 z "},"ú":{"ha":881,"x_min":106,"x_max":763,"o":"m 738 940 l 510 739 l 368 739 l 563 940 l 738 940 m 614 674 l 763 674 l 763 0 l 614 0 l 614 43 q 538 0 596 0 l 215 0 q 106 110 106 0 l 106 674 l 254 674 l 254 125 q 262 90 254 97 q 297 82 269 82 l 567 82 q 603 92 592 82 q 614 129 614 103 l 614 674 z "},"û":{"ha":881,"x_min":106,"x_max":763,"o":"m 432 876 l 281 739 l 117 739 l 351 942 l 513 942 l 747 739 l 585 739 l 432 876 m 614 674 l 763 674 l 763 0 l 614 0 l 614 43 q 538 0 596 0 l 215 0 q 106 110 106 0 l 106 674 l 254 674 l 254 125 q 262 90 254 97 q 297 82 269 82 l 567 82 q 603 92 592 82 q 614 129 614 103 l 614 674 z "},"ü":{"ha":886,"x_min":106,"x_max":763,"o":"m 717 865 l 717 739 l 524 739 l 524 865 l 717 865 m 344 865 l 344 739 l 151 739 l 151 865 l 344 865 m 614 674 l 763 674 l 763 0 l 614 0 l 614 43 q 538 0 596 0 l 215 0 q 106 110 106 0 l 106 674 l 254 674 l 254 125 q 262 90 254 97 q 297 82 269 82 l 567 82 q 603 92 592 82 q 614 129 614 103 l 614 674 z "},"ý":{"ha":815,"x_min":43,"x_max":808,"o":"m 304 -196 l 163 -196 l 163 -114 l 254 -114 q 358 -60 332 -114 l 386 0 l 333 0 l 43 674 l 196 674 l 429 100 l 658 674 l 808 674 l 488 -65 q 420 -165 458 -133 q 304 -196 382 -196 m 375 739 l 569 940 l 744 940 l 517 739 l 375 739 z "},"þ":{"ha":881,"x_min":118,"x_max":775,"o":"m 626 139 l 626 561 q 619 597 626 589 q 583 604 611 604 l 315 604 q 278 594 289 604 q 267 557 267 583 l 267 143 q 278 106 267 117 q 315 96 289 96 l 583 96 q 619 103 611 96 q 626 139 626 111 m 343 686 l 665 686 q 775 576 775 686 l 775 124 q 665 14 775 14 l 343 14 q 267 60 282 14 l 267 -196 l 118 -196 l 118 929 l 265 929 l 265 636 q 343 686 282 686 z "},"ÿ":{"ha":825,"x_min":43,"x_max":807,"o":"m 304 -196 l 163 -196 l 163 -114 l 254 -114 q 358 -60 332 -114 l 386 0 l 333 0 l 43 674 l 194 674 l 428 100 l 658 674 l 807 674 l 488 -65 q 420 -165 458 -133 q 304 -196 382 -196 m 521 865 l 714 865 l 714 739 l 521 739 l 521 865 m 149 865 l 342 865 l 342 739 l 149 739 l 149 865 z "},"Ā":{"ha":963,"x_min":43,"x_max":921,"o":"m 743 1011 l 743 931 l 224 931 l 224 1011 l 743 1011 m 288 253 l 674 253 l 481 765 l 288 253 m 769 0 l 706 171 l 257 171 l 193 0 l 43 0 l 376 864 l 586 864 l 921 0 l 769 0 z "},"ā":{"ha":879,"x_min":104,"x_max":761,"o":"m 683 821 l 683 740 l 164 740 l 164 821 l 683 821 m 296 82 l 565 82 q 601 92 590 82 q 613 129 613 103 l 613 544 q 601 581 613 571 q 565 592 590 592 l 296 592 q 261 583 269 592 q 253 549 253 575 l 253 125 q 261 90 253 97 q 296 82 269 82 m 613 674 l 761 674 l 761 0 l 613 0 l 613 43 q 536 0 594 0 l 214 0 q 104 110 104 0 l 104 564 q 214 674 104 674 l 536 674 q 613 631 594 674 l 613 674 z "},"Ă":{"ha":963,"x_min":43,"x_max":921,"o":"m 661 929 l 301 929 q 192 1039 192 929 l 192 1122 l 326 1122 l 326 1051 q 334 1017 326 1025 q 369 1008 342 1008 l 593 1008 q 628 1017 619 1008 q 636 1051 636 1025 l 636 1122 l 771 1122 l 771 1039 q 661 929 771 929 m 288 253 l 674 253 l 481 765 l 288 253 m 769 0 l 706 171 l 257 171 l 193 0 l 43 0 l 376 864 l 586 864 l 921 0 l 769 0 z "},"ă":{"ha":879,"x_min":104,"x_max":761,"o":"m 615 739 l 256 739 q 146 849 146 739 l 146 932 l 281 932 l 281 861 q 289 826 281 833 q 324 818 297 818 l 547 818 q 583 826 575 818 q 590 861 590 833 l 590 932 l 725 932 l 725 849 q 615 739 725 739 m 296 82 l 565 82 q 601 92 590 82 q 613 129 613 103 l 613 544 q 601 581 613 571 q 565 592 590 592 l 296 592 q 261 583 269 592 q 253 549 253 575 l 253 125 q 261 90 253 97 q 296 82 269 82 m 613 674 l 761 674 l 761 0 l 613 0 l 613 43 q 536 0 594 0 l 214 0 q 104 110 104 0 l 104 564 q 214 674 104 674 l 536 674 q 613 631 594 674 l 613 674 z "},"Ą":{"ha":963,"x_min":43,"x_max":943,"o":"m 288 253 l 674 253 l 481 765 l 288 253 m 715 -247 l 943 -247 l 943 -322 l 663 -322 q 553 -212 553 -322 l 553 -158 q 663 -49 553 -49 l 769 -49 l 769 0 l 706 171 l 257 171 l 193 0 l 43 0 l 376 864 l 586 864 l 921 0 l 914 0 l 914 -124 l 715 -124 q 679 -131 688 -124 q 671 -165 671 -139 l 671 -204 q 679 -239 671 -231 q 715 -247 688 -247 z "},"ą":{"ha":879,"x_min":104,"x_max":786,"o":"m 296 82 l 565 82 q 601 92 590 82 q 613 129 613 103 l 613 544 q 601 581 613 571 q 565 592 590 592 l 296 592 q 261 583 269 592 q 253 549 253 575 l 253 125 q 261 90 253 97 q 296 82 269 82 m 558 -247 l 786 -247 l 786 -322 l 506 -322 q 396 -212 396 -322 l 396 -158 q 506 -49 396 -49 l 613 -49 l 613 43 q 536 0 594 0 l 214 0 q 104 110 104 0 l 104 564 q 214 674 104 674 l 536 674 q 613 631 594 674 l 613 674 l 761 674 l 761 0 l 757 0 l 757 -124 l 558 -124 q 522 -131 531 -124 q 514 -165 514 -139 l 514 -204 q 522 -239 514 -231 q 558 -247 531 -247 z "},"Ć":{"ha":904,"x_min":117,"x_max":825,"o":"m 765 1132 l 538 931 l 396 931 l 590 1132 l 765 1132 m 825 569 l 672 569 l 672 739 q 664 774 672 767 q 629 782 656 782 l 314 782 q 278 774 286 782 q 271 739 271 767 l 271 125 q 278 90 271 97 q 314 82 286 82 l 629 82 q 664 90 656 82 q 672 125 672 97 l 672 294 l 825 294 l 825 110 q 715 0 825 0 l 226 0 q 117 110 117 0 l 117 754 q 226 864 117 864 l 715 864 q 825 754 825 864 l 825 569 z "},"ć":{"ha":824,"x_min":104,"x_max":746,"o":"m 739 940 l 511 739 l 369 739 l 564 940 l 739 940 m 746 450 l 599 450 l 599 549 q 591 583 599 575 q 556 592 583 592 l 296 592 q 261 583 269 592 q 253 549 253 575 l 253 125 q 261 90 253 97 q 296 82 269 82 l 556 82 q 591 90 583 82 q 599 125 599 97 l 599 224 l 746 224 l 746 110 q 636 0 746 0 l 214 0 q 104 110 104 0 l 104 564 q 214 674 104 674 l 636 674 q 746 564 746 674 l 746 450 z "},"Č":{"ha":904,"x_min":117,"x_max":825,"o":"m 556 929 l 394 929 l 160 1131 l 324 1131 l 475 994 l 628 1131 l 790 1131 l 556 929 m 825 569 l 672 569 l 672 739 q 664 774 672 767 q 629 782 656 782 l 314 782 q 278 774 286 782 q 271 739 271 767 l 271 125 q 278 90 271 97 q 314 82 286 82 l 629 82 q 664 90 656 82 q 672 125 672 97 l 672 294 l 825 294 l 825 110 q 715 0 825 0 l 226 0 q 117 110 117 0 l 117 754 q 226 864 117 864 l 715 864 q 825 754 825 864 l 825 569 z "},"č":{"ha":824,"x_min":104,"x_max":746,"o":"m 500 739 l 339 739 l 104 940 l 268 940 l 419 804 l 572 940 l 735 940 l 500 739 m 746 450 l 599 450 l 599 549 q 591 583 599 575 q 556 592 583 592 l 296 592 q 261 583 269 592 q 253 549 253 575 l 253 125 q 261 90 253 97 q 296 82 269 82 l 556 82 q 591 90 583 82 q 599 125 599 97 l 599 224 l 746 224 l 746 110 q 636 0 746 0 l 214 0 q 104 110 104 0 l 104 564 q 214 674 104 674 l 636 674 q 746 564 746 674 l 746 450 z "},"Ď":{"ha":975,"x_min":133,"x_max":857,"o":"m 557 929 l 396 929 l 161 1131 l 325 1131 l 476 994 l 629 1131 l 792 1131 l 557 929 m 703 125 l 703 739 q 694 774 703 767 q 660 782 686 782 l 286 782 l 286 82 l 660 82 q 694 90 686 82 q 703 125 703 97 m 133 864 l 747 864 q 857 754 857 864 l 857 110 q 747 0 857 0 l 133 0 l 133 864 z "},"ď":{"ha":890,"x_min":104,"x_max":1032,"o":"m 613 929 l 761 929 l 761 0 l 613 0 l 613 43 q 536 0 594 0 l 214 0 q 104 110 104 0 l 104 564 q 214 674 104 674 l 536 674 q 613 631 594 674 l 613 929 m 886 929 l 1032 929 l 1032 863 l 935 688 l 886 688 l 886 929 m 296 82 l 565 82 q 601 92 590 82 q 613 129 613 103 l 613 544 q 601 581 613 571 q 565 592 590 592 l 296 592 q 261 583 269 592 q 253 549 253 575 l 253 125 q 261 90 253 97 q 296 82 269 82 z "},"Đ":{"ha":1049,"x_min":131,"x_max":929,"o":"m 776 125 l 776 739 q 769 774 776 767 q 733 782 761 782 l 361 782 l 361 478 l 622 478 l 622 393 l 361 393 l 361 82 l 733 82 q 769 90 761 82 q 776 125 776 97 m 208 864 l 819 864 q 929 754 929 864 l 929 110 q 819 0 929 0 l 208 0 l 208 393 l 131 393 l 131 478 l 208 478 l 208 864 z "},"đ":{"ha":881,"x_min":106,"x_max":857,"o":"m 297 82 l 567 82 q 603 92 592 82 q 614 129 614 103 l 614 544 q 603 581 614 571 q 567 592 592 592 l 297 592 q 262 583 269 592 q 254 549 254 575 l 254 125 q 262 90 254 97 q 297 82 269 82 m 857 832 l 857 750 l 763 750 l 763 0 l 614 0 l 614 43 q 538 0 596 0 l 215 0 q 106 110 106 0 l 106 564 q 215 674 106 674 l 538 674 q 614 631 596 674 l 614 750 l 281 750 l 281 832 l 614 832 l 614 929 l 763 929 l 763 832 l 857 832 z "},"Ē":{"ha":824,"x_min":131,"x_max":760,"o":"m 703 1010 l 703 929 l 183 929 l 183 1010 l 703 1010 m 286 82 l 760 82 l 760 0 l 131 0 l 131 864 l 740 864 l 740 782 l 286 782 l 286 483 l 683 483 l 683 401 l 286 401 l 286 82 z "},"ē":{"ha":865,"x_min":104,"x_max":775,"o":"m 696 821 l 696 740 l 176 740 l 176 821 l 696 821 m 253 386 l 629 386 l 629 549 q 622 583 629 575 q 586 592 614 592 l 296 592 q 261 583 269 592 q 253 549 253 575 l 253 386 m 214 674 l 665 674 q 775 564 775 674 l 775 304 l 253 304 l 253 125 q 261 90 253 97 q 296 82 269 82 l 583 82 q 619 90 611 82 q 626 125 626 97 l 626 196 l 772 196 l 772 110 q 663 0 772 0 l 214 0 q 104 110 104 0 l 104 564 q 214 674 104 674 z "},"Ė":{"ha":824,"x_min":131,"x_max":760,"o":"m 549 1065 l 549 929 l 375 929 l 375 1065 l 549 1065 m 286 82 l 760 82 l 760 0 l 131 0 l 131 864 l 740 864 l 740 782 l 286 782 l 286 483 l 683 483 l 683 401 l 286 401 l 286 82 z "},"ė":{"ha":865,"x_min":104,"x_max":775,"o":"m 536 875 l 536 739 l 363 739 l 363 875 l 536 875 m 253 386 l 629 386 l 629 549 q 622 583 629 575 q 586 592 614 592 l 296 592 q 261 583 269 592 q 253 549 253 575 l 253 386 m 214 674 l 665 674 q 775 564 775 674 l 775 304 l 253 304 l 253 125 q 261 90 253 97 q 296 82 269 82 l 583 82 q 619 90 611 82 q 626 125 626 97 l 626 196 l 772 196 l 772 110 q 663 0 772 0 l 214 0 q 104 110 104 0 l 104 564 q 214 674 104 674 z "},"Ę":{"ha":824,"x_min":131,"x_max":789,"o":"m 561 -247 l 789 -247 l 789 -322 l 508 -322 q 399 -212 399 -322 l 399 -158 q 508 -49 399 -49 l 615 -49 l 615 0 l 131 0 l 131 864 l 740 864 l 740 782 l 286 782 l 286 483 l 683 483 l 683 401 l 286 401 l 286 82 l 760 82 l 760 -124 l 561 -124 q 525 -131 533 -124 q 517 -165 517 -139 l 517 -204 q 525 -239 517 -231 q 561 -247 533 -247 z "},"ę":{"ha":865,"x_min":104,"x_max":775,"o":"m 253 386 l 629 386 l 629 549 q 622 583 629 575 q 586 592 614 592 l 296 592 q 261 583 269 592 q 253 549 253 575 l 253 386 m 214 674 l 665 674 q 775 564 775 674 l 775 304 l 253 304 l 253 125 q 261 90 253 97 q 296 82 269 82 l 583 82 q 619 90 611 82 q 626 125 626 97 l 626 196 l 772 196 l 772 110 q 663 0 772 0 l 518 0 l 518 -124 l 319 -124 q 283 -131 292 -124 q 275 -165 275 -139 l 275 -204 q 283 -239 275 -231 q 319 -247 292 -247 l 547 -247 l 547 -322 l 267 -322 q 157 -212 157 -322 l 157 -158 q 267 -49 157 -49 l 374 -49 l 374 0 l 214 0 q 104 110 104 0 l 104 564 q 214 674 104 674 z "},"Ě":{"ha":824,"x_min":131,"x_max":775,"o":"m 540 929 l 379 929 l 144 1131 l 308 1131 l 460 994 l 613 1131 l 775 1131 l 540 929 m 286 401 l 286 82 l 760 82 l 760 0 l 131 0 l 131 864 l 740 864 l 740 782 l 286 782 l 286 483 l 683 483 l 683 401 l 286 401 z "},"ě":{"ha":865,"x_min":104,"x_max":775,"o":"m 517 739 l 356 739 l 121 940 l 285 940 l 436 804 l 589 940 l 751 940 l 517 739 m 253 386 l 629 386 l 629 549 q 622 583 629 575 q 586 592 614 592 l 296 592 q 261 583 269 592 q 253 549 253 575 l 253 386 m 214 674 l 665 674 q 775 564 775 674 l 775 304 l 253 304 l 253 125 q 261 90 253 97 q 296 82 269 82 l 583 82 q 619 90 611 82 q 626 125 626 97 l 626 196 l 772 196 l 772 110 q 663 0 772 0 l 214 0 q 104 110 104 0 l 104 564 q 214 674 104 674 z "},"Ğ":{"ha":932,"x_min":117,"x_max":826,"o":"m 644 929 l 285 929 q 175 1039 175 929 l 175 1122 l 310 1122 l 310 1051 q 317 1017 310 1025 q 353 1008 325 1008 l 576 1008 q 611 1017 603 1008 q 619 1051 619 1025 l 619 1122 l 754 1122 l 754 1039 q 644 929 754 929 m 826 599 l 674 599 l 674 739 q 666 774 674 767 q 631 782 658 782 l 314 782 q 278 774 286 782 q 271 739 271 767 l 271 125 q 278 90 271 97 q 314 82 286 82 l 632 82 q 667 90 658 82 q 675 125 675 97 l 675 363 l 460 363 l 460 444 l 826 444 l 826 110 q 717 0 826 0 l 226 0 q 117 110 117 0 l 117 754 q 226 864 117 864 l 717 864 q 826 754 826 864 l 826 599 z "},"ğ":{"ha":868,"x_min":104,"x_max":763,"o":"m 626 739 l 267 739 q 157 849 157 739 l 157 932 l 292 932 l 292 861 q 300 826 292 833 q 335 818 308 818 l 558 818 q 594 826 586 818 q 601 861 601 833 l 601 932 l 736 932 l 736 849 q 626 739 736 739 m 296 82 l 565 82 q 601 92 590 82 q 613 129 613 103 l 613 544 q 601 581 613 571 q 565 592 590 592 l 296 592 q 261 583 269 592 q 253 549 253 575 l 253 125 q 261 90 253 97 q 296 82 269 82 m 761 24 l 763 24 l 763 -86 q 653 -196 763 -196 l 131 -196 l 131 -114 l 571 -114 q 606 -106 597 -114 q 614 -71 614 -97 l 614 8 l 613 8 l 613 43 q 536 0 594 0 l 214 0 q 104 110 104 0 l 104 564 q 214 674 104 674 l 536 674 q 613 631 594 674 l 613 674 l 761 674 l 761 24 z "},"Ģ":{"ha":932,"x_min":117,"x_max":826,"o":"m 385 -318 l 385 -68 l 543 -68 l 543 -137 l 436 -318 l 385 -318 m 826 599 l 674 599 l 674 739 q 666 774 674 767 q 631 782 658 782 l 314 782 q 278 774 286 782 q 271 739 271 767 l 271 125 q 278 90 271 97 q 314 82 286 82 l 632 82 q 667 90 658 82 q 675 125 675 97 l 675 363 l 460 363 l 460 444 l 826 444 l 826 110 q 717 0 826 0 l 226 0 q 117 110 117 0 l 117 754 q 226 864 117 864 l 717 864 q 826 754 826 864 l 826 599 z "},"ģ":{"ha":868,"x_min":106,"x_max":764,"o":"m 556 986 l 556 738 l 396 738 l 396 807 l 504 986 l 556 986 m 297 82 l 567 82 q 603 92 592 82 q 614 129 614 103 l 614 544 q 603 581 614 571 q 567 592 592 592 l 297 592 q 262 583 269 592 q 254 549 254 575 l 254 125 q 262 90 254 97 q 297 82 269 82 m 763 24 l 764 24 l 764 -86 q 654 -196 764 -196 l 132 -196 l 132 -114 l 572 -114 q 608 -106 600 -114 q 615 -71 615 -97 l 615 8 l 614 8 l 614 43 q 538 0 596 0 l 215 0 q 106 110 106 0 l 106 564 q 215 674 106 674 l 538 674 q 614 631 596 674 l 614 674 l 763 674 l 763 24 z "},"Ī":{"ha":438,"x_min":-32,"x_max":488,"o":"m 143 864 l 299 864 l 299 0 l 143 0 l 143 864 m -32 929 l -32 1010 l 488 1010 l 488 929 l -32 929 z "},"ī":{"ha":410,"x_min":-47,"x_max":472,"o":"m 279 0 l 131 0 l 131 674 l 279 674 l 279 0 m -47 740 l -47 821 l 472 821 l 472 740 l -47 740 z "},"Į":{"ha":438,"x_min":-69,"x_max":321,"o":"m 93 -247 l 321 -247 l 321 -322 l 40 -322 q -69 -212 -69 -322 l -69 -158 q 40 -49 -69 -49 l 147 -49 l 147 0 l 143 0 l 143 864 l 299 864 l 299 0 l 292 0 l 292 -124 l 93 -124 q 57 -131 65 -124 q 49 -165 49 -139 l 49 -204 q 57 -239 49 -231 q 93 -247 65 -247 z "},"į":{"ha":410,"x_min":-86,"x_max":304,"o":"m 283 931 l 283 803 l 128 803 l 128 931 l 283 931 m 76 -247 l 304 -247 l 304 -322 l 24 -322 q -86 -212 -86 -322 l -86 -158 q 24 -49 -86 -49 l 131 -49 l 131 674 l 279 674 l 279 0 l 275 0 l 275 -124 l 76 -124 q 40 -131 49 -124 q 32 -165 32 -139 l 32 -204 q 40 -239 32 -231 q 76 -247 49 -247 z "},"İ":{"ha":411,"x_min":119,"x_max":293,"o":"m 131 699 l 283 699 l 283 0 l 131 0 l 131 699 m 119 900 l 293 900 l 293 764 l 119 764 l 119 900 z "},"ı":{"ha":410,"x_min":131,"x_max":279,"o":"m 131 674 l 279 674 l 279 0 l 131 0 l 131 674 z "},"Ķ":{"ha":942,"x_min":131,"x_max":913,"o":"m 131 864 l 279 864 l 279 0 l 131 0 l 131 864 m 717 864 l 896 864 l 489 442 l 913 0 l 729 0 l 313 442 l 717 864 m 411 -318 l 411 -68 l 569 -68 l 569 -137 l 463 -318 l 411 -318 z "},"ķ":{"ha":850,"x_min":118,"x_max":824,"o":"m 118 0 l 118 929 l 267 929 l 267 0 l 118 0 m 347 -318 l 347 -68 l 506 -68 l 506 -137 l 399 -318 l 347 -318 m 824 674 l 478 340 l 824 0 l 642 0 l 303 340 l 643 674 l 824 674 z "},"Ĺ":{"ha":757,"x_min":131,"x_max":721,"o":"m 521 1131 l 293 929 l 151 929 l 346 1131 l 521 1131 m 282 82 l 721 82 l 721 0 l 131 0 l 131 864 l 282 864 l 282 82 z "},"ĺ":{"ha":410,"x_min":131,"x_max":513,"o":"m 143 994 l 338 1196 l 513 1196 l 285 994 l 143 994 m 278 0 l 131 0 l 131 929 l 278 929 l 278 0 z "},"Ļ":{"ha":757,"x_min":131,"x_max":721,"o":"m 343 -318 l 343 -68 l 501 -68 l 501 -137 l 394 -318 l 343 -318 m 282 82 l 721 82 l 721 0 l 131 0 l 131 864 l 282 864 l 282 82 z "},"ļ":{"ha":410,"x_min":124,"x_max":282,"o":"m 278 0 l 131 0 l 131 929 l 278 929 l 278 0 m 124 -318 l 124 -68 l 282 -68 l 282 -137 l 175 -318 l 124 -318 z "},"Ľ":{"ha":757,"x_min":-107,"x_max":721,"o":"m 524 1132 l 289 931 l 128 931 l -107 1132 l 57 1132 l 208 996 l 361 1132 l 524 1132 m 282 82 l 721 82 l 721 0 l 131 0 l 131 864 l 282 864 l 282 82 z "},"ľ":{"ha":422,"x_min":131,"x_max":551,"o":"m 131 929 l 279 929 l 279 0 l 131 0 l 131 929 m 404 928 l 551 928 l 551 861 l 454 686 l 404 686 l 404 928 z "},"Ł":{"ha":763,"x_min":-36,"x_max":724,"o":"m 285 82 l 724 82 l 724 0 l 133 0 l 133 343 l -36 286 l -36 372 l 133 429 l 133 864 l 285 864 l 285 479 l 517 557 l 517 471 l 285 393 l 285 82 z "},"ł":{"ha":413,"x_min":-31,"x_max":450,"o":"m 279 0 l 132 0 l 132 407 l -31 353 l -31 439 l 132 493 l 132 929 l 279 929 l 279 542 l 450 599 l 450 514 l 279 457 l 279 0 z "},"Ń":{"ha":1004,"x_min":131,"x_max":874,"o":"m 450 926 l 644 1128 l 819 1128 l 592 926 l 450 926 m 733 864 l 874 864 l 874 0 l 728 0 l 271 699 l 271 0 l 131 0 l 131 864 l 282 864 l 733 171 l 733 864 z "},"ń":{"ha":881,"x_min":118,"x_max":800,"o":"m 800 940 l 572 739 l 431 739 l 625 940 l 800 940 m 344 674 l 665 674 q 775 564 775 674 l 775 0 l 628 0 l 628 549 q 619 583 628 575 q 585 592 611 592 l 315 592 q 279 581 290 592 q 268 544 268 571 l 268 500 l 267 500 l 267 0 l 118 0 l 118 674 l 267 674 l 267 628 q 344 674 282 674 z "},"Ņ":{"ha":1004,"x_min":131,"x_max":874,"o":"m 733 864 l 874 864 l 874 0 l 728 0 l 271 699 l 271 0 l 131 0 l 131 864 l 282 864 l 733 171 l 733 864 m 425 -318 l 425 -68 l 583 -68 l 583 -137 l 476 -318 l 425 -318 z "},"ņ":{"ha":881,"x_min":118,"x_max":775,"o":"m 368 -318 l 368 -68 l 526 -68 l 526 -137 l 419 -318 l 368 -318 m 344 674 l 665 674 q 775 564 775 674 l 775 0 l 628 0 l 628 549 q 619 583 628 575 q 585 592 611 592 l 315 592 q 279 581 290 592 q 268 544 268 571 l 268 500 l 267 500 l 267 0 l 118 0 l 118 674 l 267 674 l 267 628 q 344 674 282 674 z "},"Ň":{"ha":1004,"x_min":131,"x_max":874,"o":"m 433 929 l 199 1131 l 363 1131 l 514 994 l 667 1131 l 829 1131 l 594 929 l 433 929 m 733 864 l 874 864 l 874 0 l 728 0 l 271 699 l 271 0 l 131 0 l 131 864 l 282 864 l 733 171 l 733 864 z "},"ň":{"ha":881,"x_min":118,"x_max":775,"o":"m 540 739 l 379 739 l 144 940 l 308 940 l 460 804 l 613 940 l 775 940 l 540 739 m 344 674 l 665 674 q 775 564 775 674 l 775 0 l 628 0 l 628 549 q 619 583 628 575 q 585 592 611 592 l 315 592 q 279 581 290 592 q 268 544 268 571 l 268 500 l 267 500 l 267 0 l 118 0 l 118 674 l 267 674 l 267 628 q 344 674 282 674 z "},"Ō":{"ha":936,"x_min":118,"x_max":818,"o":"m 211 931 l 211 1011 l 731 1011 l 731 931 l 211 931 m 818 754 l 818 110 q 708 0 818 0 l 228 0 q 118 110 118 0 l 118 754 q 228 864 118 864 l 708 864 q 818 754 818 864 m 667 125 l 667 739 q 658 774 667 767 q 624 782 650 782 l 314 782 q 278 774 286 782 q 271 739 271 767 l 271 125 q 278 90 271 97 q 314 82 286 82 l 624 82 q 658 90 650 82 q 667 125 667 97 z "},"ō":{"ha":872,"x_min":106,"x_max":767,"o":"m 692 821 l 692 740 l 172 740 l 172 821 l 692 821 m 619 125 l 619 549 q 611 583 619 575 q 576 592 603 592 l 296 592 q 261 583 269 592 q 253 549 253 575 l 253 125 q 261 90 253 97 q 296 82 269 82 l 576 82 q 611 90 603 82 q 619 125 619 97 m 215 674 l 657 674 q 767 564 767 674 l 767 110 q 657 0 767 0 l 215 0 q 106 110 106 0 l 106 564 q 215 674 106 674 z "},"Ő":{"ha":931,"x_min":118,"x_max":940,"o":"m 228 864 l 708 864 q 818 754 818 864 l 818 110 q 708 0 818 0 l 228 0 q 118 110 118 0 l 118 754 q 228 864 118 864 m 667 739 q 658 774 667 767 q 624 782 650 782 l 313 782 q 278 774 286 782 q 269 739 269 767 l 269 125 q 278 90 269 97 q 313 82 286 82 l 624 82 q 658 90 650 82 q 667 125 667 97 l 667 739 m 479 1154 l 639 1154 l 399 929 l 274 929 l 479 1154 m 782 1154 l 940 1154 l 699 929 l 574 929 l 782 1154 z "},"ő":{"ha":872,"x_min":106,"x_max":903,"o":"m 215 674 l 657 674 q 767 564 767 674 l 767 110 q 657 0 767 0 l 215 0 q 106 110 106 0 l 106 564 q 215 674 106 674 m 619 549 q 611 583 619 575 q 576 592 603 592 l 296 592 q 261 583 269 592 q 253 549 253 575 l 253 125 q 261 90 253 97 q 296 82 269 82 l 576 82 q 611 90 603 82 q 619 125 619 97 l 619 549 m 442 964 l 600 964 l 361 739 l 236 739 l 442 964 m 744 964 l 903 964 l 661 739 l 536 739 l 744 964 z "},"Œ":{"ha":1336,"x_min":118,"x_max":1258,"o":"m 671 125 l 671 739 q 663 774 671 767 q 628 782 656 782 l 314 782 q 278 774 286 782 q 271 739 271 767 l 271 125 q 278 90 271 97 q 314 82 286 82 l 628 82 q 663 90 656 82 q 671 125 671 97 m 829 82 l 1258 82 l 1258 0 l 708 0 l 708 21 q 626 0 679 0 l 228 0 q 118 110 118 0 l 118 754 q 228 864 118 864 l 626 864 q 708 842 681 864 l 708 864 l 1242 864 l 1242 782 l 829 782 l 829 483 l 1196 483 l 1196 401 l 829 401 l 829 82 z "},"œ":{"ha":1340,"x_min":106,"x_max":1249,"o":"m 751 386 l 1103 386 l 1103 549 q 1094 583 1103 575 q 1060 592 1086 592 l 794 592 q 759 583 767 592 q 751 549 751 575 l 751 386 m 603 124 l 603 550 q 557 592 603 592 l 299 592 q 264 583 272 592 q 256 549 256 575 l 256 125 q 264 90 256 97 q 299 82 272 82 l 557 82 q 592 91 582 82 q 603 124 603 100 m 768 674 l 1139 674 q 1249 564 1249 674 l 1249 304 l 751 304 l 751 125 q 759 90 751 97 q 794 82 767 82 l 1057 82 q 1092 90 1083 82 q 1100 125 1100 97 l 1100 196 l 1246 196 l 1246 110 q 1136 0 1246 0 l 767 0 q 672 53 688 0 q 571 0 657 0 l 215 0 q 106 110 106 0 l 106 564 q 215 674 106 674 l 571 674 q 674 621 656 674 q 768 674 686 674 z "},"Ŕ":{"ha":961,"x_min":131,"x_max":864,"o":"m 778 1128 l 550 926 l 408 926 l 603 1128 l 778 1128 m 282 782 l 282 392 l 663 392 q 697 400 689 392 q 706 435 706 408 l 706 739 q 697 774 706 767 q 663 782 689 782 l 282 782 m 282 310 l 282 0 l 131 0 l 131 864 l 747 864 q 857 754 857 864 l 857 419 q 747 310 857 310 l 668 310 l 864 0 l 706 0 l 515 310 l 282 310 z "},"ŕ":{"ha":531,"x_min":118,"x_max":654,"o":"m 654 942 l 426 740 l 285 740 l 479 942 l 654 942 m 267 674 l 267 588 q 385 674 290 674 l 517 674 l 517 588 l 360 588 q 267 483 267 588 l 267 0 l 118 0 l 118 674 l 267 674 z "},"Ŗ":{"ha":961,"x_min":131,"x_max":864,"o":"m 399 -318 l 399 -68 l 557 -68 l 557 -137 l 450 -318 l 399 -318 m 282 782 l 282 392 l 663 392 q 697 400 689 392 q 706 435 706 408 l 706 739 q 697 774 706 767 q 663 782 689 782 l 282 782 m 282 310 l 282 0 l 131 0 l 131 864 l 747 864 q 857 754 857 864 l 857 419 q 747 310 857 310 l 668 310 l 864 0 l 706 0 l 515 310 l 282 310 z "},"ŗ":{"ha":531,"x_min":111,"x_max":517,"o":"m 111 -318 l 111 -68 l 269 -68 l 269 -137 l 163 -318 l 111 -318 m 385 674 l 517 674 l 517 588 l 360 588 q 267 483 267 588 l 267 0 l 118 0 l 118 674 l 267 674 l 267 588 q 385 674 290 674 z "},"Ř":{"ha":961,"x_min":131,"x_max":864,"o":"m 568 928 l 407 928 l 172 1129 l 336 1129 l 488 993 l 640 1129 l 803 1129 l 568 928 m 282 782 l 282 392 l 663 392 q 697 400 689 392 q 706 435 706 408 l 706 739 q 697 774 706 767 q 663 782 689 782 l 282 782 m 282 310 l 282 0 l 131 0 l 131 864 l 747 864 q 857 754 857 864 l 857 419 q 747 310 857 310 l 668 310 l 864 0 l 706 0 l 515 310 l 282 310 z "},"ř":{"ha":531,"x_min":13,"x_max":643,"o":"m 408 740 l 247 740 l 13 942 l 176 942 l 328 806 l 481 942 l 643 942 l 408 740 m 267 674 l 267 588 q 385 674 290 674 l 517 674 l 517 588 l 360 588 q 267 483 267 588 l 267 0 l 118 0 l 118 674 l 267 674 z "},"Ś":{"ha":908,"x_min":104,"x_max":804,"o":"m 397 926 l 592 1128 l 767 1128 l 539 926 l 397 926 m 653 125 l 653 351 q 644 386 653 378 q 610 394 636 394 l 214 394 q 104 504 104 394 l 104 754 q 214 864 104 864 l 690 864 q 800 754 800 864 l 800 611 l 647 611 l 647 739 q 639 774 647 767 q 604 782 631 782 l 300 782 q 265 774 272 782 q 257 739 257 767 l 257 519 q 265 484 257 492 q 300 476 272 476 l 694 476 q 804 367 804 476 l 804 110 q 694 0 804 0 l 217 0 q 107 110 107 0 l 107 253 l 260 253 l 260 125 q 267 90 260 97 q 303 82 275 82 l 610 82 q 644 90 636 82 q 653 125 653 97 z "},"ś":{"ha":810,"x_min":103,"x_max":736,"o":"m 367 739 l 561 940 l 736 940 l 508 739 l 367 739 m 572 124 l 572 251 q 564 286 572 278 q 529 294 556 294 l 213 294 q 103 404 103 294 l 103 564 q 213 674 103 674 l 606 674 q 715 564 715 674 l 715 486 l 571 486 l 571 550 q 563 585 571 578 q 528 593 556 593 l 293 593 q 258 585 267 593 q 250 550 250 578 l 250 419 q 258 384 250 392 q 293 376 267 376 l 610 376 q 719 267 719 376 l 719 110 q 610 0 719 0 l 215 0 q 106 110 106 0 l 106 188 l 251 188 l 251 124 q 259 89 251 97 q 294 81 267 81 l 529 81 q 564 89 556 81 q 572 124 572 97 z "},"Ş":{"ha":908,"x_min":104,"x_max":804,"o":"m 653 125 l 653 351 q 644 386 653 378 q 610 394 636 394 l 214 394 q 104 504 104 394 l 104 754 q 214 864 104 864 l 690 864 q 800 754 800 864 l 800 611 l 647 611 l 647 739 q 639 774 647 767 q 604 782 631 782 l 300 782 q 265 774 272 782 q 257 739 257 767 l 257 519 q 265 484 257 492 q 300 476 272 476 l 694 476 q 804 367 804 476 l 804 110 q 694 0 804 0 l 217 0 q 107 110 107 0 l 107 253 l 260 253 l 260 125 q 267 90 260 97 q 303 82 275 82 l 610 82 q 644 90 636 82 q 653 125 653 97 m 369 -318 l 369 -68 l 528 -68 l 528 -137 l 421 -318 l 369 -318 z "},"ş":{"ha":810,"x_min":103,"x_max":719,"o":"m 572 124 l 572 251 q 564 286 572 278 q 529 294 556 294 l 213 294 q 103 404 103 294 l 103 564 q 213 674 103 674 l 606 674 q 715 564 715 674 l 715 486 l 571 486 l 571 550 q 563 585 571 578 q 528 593 556 593 l 293 593 q 258 585 267 593 q 250 550 250 578 l 250 419 q 258 384 250 392 q 293 376 267 376 l 610 376 q 719 267 719 376 l 719 110 q 610 0 719 0 l 215 0 q 106 110 106 0 l 106 188 l 251 188 l 251 124 q 259 89 251 97 q 294 81 267 81 l 529 81 q 564 89 556 81 q 572 124 572 97 m 324 -318 l 324 -68 l 482 -68 l 482 -137 l 375 -318 l 324 -318 z "},"Š":{"ha":908,"x_min":104,"x_max":804,"o":"m 381 928 l 146 1129 l 310 1129 l 461 993 l 614 1129 l 776 1129 l 542 928 l 381 928 m 653 125 l 653 351 q 644 386 653 378 q 610 394 636 394 l 214 394 q 104 504 104 394 l 104 754 q 214 864 104 864 l 690 864 q 800 754 800 864 l 800 611 l 647 611 l 647 739 q 639 774 647 767 q 604 782 631 782 l 300 782 q 265 774 272 782 q 257 739 257 767 l 257 519 q 265 484 257 492 q 300 476 272 476 l 694 476 q 804 367 804 476 l 804 110 q 694 0 804 0 l 217 0 q 107 110 107 0 l 107 253 l 260 253 l 260 125 q 267 90 260 97 q 303 82 275 82 l 610 82 q 644 90 636 82 q 653 125 653 97 z "},"š":{"ha":810,"x_min":103,"x_max":735,"o":"m 339 739 l 104 940 l 268 940 l 419 804 l 572 940 l 735 940 l 500 739 l 339 739 m 572 124 l 572 251 q 564 286 572 278 q 529 294 556 294 l 213 294 q 103 404 103 294 l 103 564 q 213 674 103 674 l 606 674 q 715 564 715 674 l 715 486 l 571 486 l 571 550 q 563 585 571 578 q 528 593 556 593 l 293 593 q 258 585 267 593 q 250 550 250 578 l 250 419 q 258 384 250 392 q 293 376 267 376 l 610 376 q 719 267 719 376 l 719 110 q 610 0 719 0 l 215 0 q 106 110 106 0 l 106 188 l 251 188 l 251 124 q 259 89 251 97 q 294 81 267 81 l 529 81 q 564 89 556 81 q 572 124 572 97 z "},"Ţ":{"ha":793,"x_min":13,"x_max":779,"o":"m 314 -318 l 314 -68 l 472 -68 l 472 -137 l 365 -318 l 314 -318 m 779 864 l 779 782 l 472 782 l 472 0 l 319 0 l 319 782 l 13 782 l 13 864 l 779 864 z "},"ţ":{"ha":793,"x_min":13,"x_max":779,"o":"m 315 -318 l 315 -68 l 474 -68 l 474 -137 l 367 -318 l 315 -318 m 13 864 l 779 864 l 779 782 l 472 782 l 472 0 l 319 0 l 319 782 l 13 782 l 13 864 z "},"Ť":{"ha":793,"x_min":13,"x_max":779,"o":"m 479 928 l 318 928 l 83 1129 l 247 1129 l 399 993 l 551 1129 l 714 1129 l 479 928 m 779 864 l 779 782 l 472 782 l 472 0 l 319 0 l 319 782 l 13 782 l 13 864 l 779 864 z "},"ť":{"ha":519,"x_min":50,"x_max":533,"o":"m 306 799 l 306 674 l 469 674 l 469 592 l 306 592 l 306 131 q 314 95 306 103 q 349 88 322 88 l 468 88 l 468 0 l 268 0 q 158 110 158 0 l 158 592 l 50 592 l 50 674 l 158 674 l 158 799 l 306 799 m 388 1007 l 533 1007 l 533 940 l 436 768 l 388 768 l 388 1007 z "},"Ū":{"ha":958,"x_min":118,"x_max":839,"o":"m 271 864 l 271 125 q 278 90 271 97 q 314 82 286 82 l 646 82 q 681 90 672 82 q 689 125 689 97 l 689 864 l 839 864 l 839 110 q 729 0 839 0 l 228 0 q 118 110 118 0 l 118 864 l 271 864 m 218 929 l 218 1010 l 738 1010 l 738 929 l 218 929 z "},"ū":{"ha":881,"x_min":106,"x_max":763,"o":"m 692 822 l 692 742 l 172 742 l 172 822 l 692 822 m 614 674 l 763 674 l 763 0 l 614 0 l 614 43 q 538 0 596 0 l 215 0 q 106 110 106 0 l 106 674 l 254 674 l 254 125 q 262 90 254 97 q 297 82 269 82 l 567 82 q 603 92 592 82 q 614 129 614 103 l 614 674 z "},"Ů":{"ha":958,"x_min":118,"x_max":839,"o":"m 710 1076 l 710 1024 q 615 929 710 929 l 356 929 q 261 1024 261 929 l 261 1076 q 356 1171 261 1171 l 615 1171 q 710 1076 710 1171 m 608 1036 l 608 1064 q 601 1096 608 1089 q 568 1103 594 1103 l 403 1103 q 370 1096 378 1103 q 363 1064 363 1089 l 363 1036 q 370 1004 363 1011 q 403 997 378 997 l 568 997 q 601 1004 594 997 q 608 1036 608 1011 m 271 864 l 271 125 q 278 90 271 97 q 314 82 286 82 l 646 82 q 681 90 672 82 q 689 125 689 97 l 689 864 l 839 864 l 839 110 q 729 0 839 0 l 228 0 q 118 110 118 0 l 118 864 l 271 864 z "},"ů":{"ha":881,"x_min":106,"x_max":763,"o":"m 310 872 l 310 844 q 317 813 310 819 q 350 806 325 806 l 515 806 q 549 813 542 806 q 556 844 556 819 l 556 872 q 549 904 556 897 q 515 911 542 911 l 350 911 q 317 904 325 911 q 310 872 310 897 m 563 738 l 303 738 q 208 832 208 738 l 208 885 q 303 979 208 979 l 563 979 q 657 885 657 979 l 657 832 q 563 738 657 738 m 614 674 l 763 674 l 763 0 l 614 0 l 614 43 q 538 0 596 0 l 215 0 q 106 110 106 0 l 106 674 l 254 674 l 254 125 q 262 90 254 97 q 297 82 269 82 l 567 82 q 603 92 592 82 q 614 129 614 103 l 614 674 z "},"Ű":{"ha":953,"x_min":118,"x_max":938,"o":"m 271 864 l 271 125 q 278 90 271 97 q 314 82 286 82 l 646 82 q 681 90 672 82 q 689 125 689 97 l 689 864 l 840 864 l 840 110 q 731 0 840 0 l 228 0 q 118 110 118 0 l 118 864 l 271 864 m 778 1151 l 938 1151 l 694 926 l 569 926 l 778 1151 m 475 1151 l 635 1151 l 394 926 l 269 926 l 475 1151 z "},"ű":{"ha":881,"x_min":106,"x_max":890,"o":"m 649 740 l 524 740 l 732 965 l 890 965 l 649 740 m 588 965 l 349 740 l 224 740 l 429 965 l 588 965 m 614 674 l 763 674 l 763 0 l 614 0 l 614 43 q 538 0 596 0 l 215 0 q 106 110 106 0 l 106 674 l 254 674 l 254 125 q 262 90 254 97 q 297 82 269 82 l 567 82 q 603 92 592 82 q 614 129 614 103 l 614 674 z "},"Ų":{"ha":958,"x_min":118,"x_max":839,"o":"m 689 864 l 839 864 l 839 110 q 729 0 839 0 l 549 0 l 549 -124 l 350 -124 q 314 -131 322 -124 q 306 -165 306 -139 l 306 -204 q 314 -239 306 -231 q 350 -247 322 -247 l 578 -247 l 578 -322 l 297 -322 q 188 -212 188 -322 l 188 -158 q 297 -49 188 -49 l 404 -49 l 404 0 l 228 0 q 118 110 118 0 l 118 864 l 271 864 l 271 125 q 278 90 271 97 q 314 82 286 82 l 646 82 q 681 90 672 82 q 689 125 689 97 l 689 864 z "},"ų":{"ha":881,"x_min":106,"x_max":788,"o":"m 560 -247 l 788 -247 l 788 -322 l 507 -322 q 397 -212 397 -322 l 397 -158 q 507 -49 397 -49 l 614 -49 l 614 43 q 538 0 596 0 l 215 0 q 106 110 106 0 l 106 674 l 254 674 l 254 125 q 262 90 254 97 q 297 82 269 82 l 567 82 q 603 92 592 82 q 614 129 614 103 l 614 674 l 763 674 l 763 0 l 758 0 l 758 -124 l 560 -124 q 524 -131 532 -124 q 515 -165 515 -139 l 515 -204 q 524 -239 515 -231 q 560 -247 532 -247 z "},"Ÿ":{"ha":896,"x_min":11,"x_max":883,"o":"m 364 1056 l 364 929 l 172 929 l 172 1056 l 364 1056 m 736 1056 l 736 929 l 544 929 l 544 1056 l 736 1056 m 532 0 l 379 0 l 379 281 l 11 864 l 165 864 l 454 390 l 731 864 l 883 864 l 532 281 l 532 0 z "},"Ź":{"ha":878,"x_min":78,"x_max":800,"o":"m 763 1131 l 535 929 l 393 929 l 588 1131 l 763 1131 m 800 864 l 800 782 l 251 82 l 786 82 l 786 0 l 78 0 l 78 82 l 626 782 l 93 782 l 93 864 l 800 864 z "},"ź":{"ha":715,"x_min":75,"x_max":694,"o":"m 694 942 l 467 740 l 325 740 l 519 942 l 694 942 m 640 82 l 640 0 l 75 0 l 75 82 l 479 592 l 93 592 l 93 674 l 638 674 l 638 592 l 232 82 l 640 82 z "},"Ż":{"ha":878,"x_min":78,"x_max":800,"o":"m 549 1065 l 549 929 l 375 929 l 375 1065 l 549 1065 m 800 864 l 800 782 l 251 82 l 786 82 l 786 0 l 78 0 l 78 82 l 626 782 l 93 782 l 93 864 l 800 864 z "},"ż":{"ha":715,"x_min":75,"x_max":640,"o":"m 463 875 l 463 739 l 289 739 l 289 875 l 463 875 m 640 82 l 640 0 l 75 0 l 75 82 l 479 592 l 93 592 l 93 674 l 638 674 l 638 592 l 232 82 l 640 82 z "},"Ž":{"ha":878,"x_min":78,"x_max":800,"o":"m 531 929 l 369 929 l 135 1131 l 299 1131 l 450 994 l 603 1131 l 765 1131 l 531 929 m 800 864 l 800 782 l 251 82 l 786 82 l 786 0 l 78 0 l 78 82 l 626 782 l 93 782 l 93 864 l 800 864 z "},"ž":{"ha":715,"x_min":54,"x_max":685,"o":"m 450 739 l 289 739 l 54 940 l 218 940 l 369 804 l 522 940 l 685 940 l 450 739 m 640 82 l 640 0 l 75 0 l 75 82 l 479 592 l 93 592 l 93 674 l 638 674 l 638 592 l 232 82 l 640 82 z "},"ƒ":{"ha":654,"x_min":38,"x_max":614,"o":"m 614 835 l 515 835 q 478 826 488 835 q 464 788 468 817 l 447 674 l 607 674 l 607 592 l 436 592 l 339 -74 q 298 -166 331 -136 q 192 -196 265 -196 l 38 -196 l 38 -110 l 138 -110 q 176 -101 167 -110 q 189 -61 185 -92 l 282 592 l 149 592 l 149 674 l 294 674 l 313 800 q 354 893 321 864 q 461 922 388 922 l 614 922 l 614 835 z "},"Ș":{"ha":908,"x_min":104,"x_max":804,"o":"m 653 125 l 653 351 q 644 386 653 378 q 610 394 636 394 l 214 394 q 104 504 104 394 l 104 754 q 214 864 104 864 l 690 864 q 800 754 800 864 l 800 611 l 647 611 l 647 739 q 639 774 647 767 q 604 782 631 782 l 300 782 q 265 774 272 782 q 257 739 257 767 l 257 519 q 265 484 257 492 q 300 476 272 476 l 694 476 q 804 367 804 476 l 804 110 q 694 0 804 0 l 217 0 q 107 110 107 0 l 107 253 l 260 253 l 260 125 q 267 90 260 97 q 303 82 275 82 l 610 82 q 644 90 636 82 q 653 125 653 97 m 371 -318 l 371 -68 l 529 -68 l 529 -137 l 422 -318 l 371 -318 z "},"ș":{"ha":810,"x_min":103,"x_max":719,"o":"m 572 124 l 572 251 q 564 286 572 278 q 529 294 556 294 l 213 294 q 103 404 103 294 l 103 564 q 213 674 103 674 l 606 674 q 715 564 715 674 l 715 486 l 571 486 l 571 550 q 563 585 571 578 q 528 593 556 593 l 293 593 q 258 585 267 593 q 250 550 250 578 l 250 419 q 258 384 250 392 q 293 376 267 376 l 610 376 q 719 267 719 376 l 719 110 q 610 0 719 0 l 215 0 q 106 110 106 0 l 106 188 l 251 188 l 251 124 q 259 89 251 97 q 294 81 267 81 l 529 81 q 564 89 556 81 q 572 124 572 97 m 325 -318 l 325 -68 l 483 -68 l 483 -137 l 376 -318 l 325 -318 z "},"Ț":{"ha":793,"x_min":13,"x_max":779,"o":"m 319 -318 l 319 -68 l 478 -68 l 478 -137 l 371 -318 l 319 -318 m 13 864 l 779 864 l 779 782 l 472 782 l 472 0 l 319 0 l 319 782 l 13 782 l 13 864 z "},"ț":{"ha":519,"x_min":49,"x_max":468,"o":"m 169 -318 l 169 -68 l 328 -68 l 328 -137 l 221 -318 l 169 -318 m 468 592 l 306 592 l 306 131 q 314 95 306 103 q 349 88 322 88 l 467 88 l 467 0 l 267 0 q 157 110 157 0 l 157 592 l 49 592 l 49 674 l 157 674 l 157 799 l 306 799 l 306 674 l 468 674 l 468 592 z "},"ˆ":{"ha":853,"x_min":111,"x_max":742,"o":"m 111 703 l 346 906 l 507 906 l 742 703 l 579 703 l 426 840 l 275 703 l 111 703 z "},"ˇ":{"ha":853,"x_min":111,"x_max":742,"o":"m 346 701 l 111 903 l 275 903 l 426 767 l 579 903 l 742 903 l 507 701 l 346 701 z "},"ˉ":{"ha":650,"x_min":113,"x_max":536,"o":"m 113 764 l 113 844 l 536 844 l 536 764 l 113 764 z "},"˘":{"ha":853,"x_min":136,"x_max":715,"o":"m 581 897 l 715 897 l 715 814 q 606 704 715 704 l 246 704 q 136 814 136 704 l 136 897 l 271 897 l 271 826 q 278 792 271 800 q 314 783 286 783 l 538 783 q 572 792 564 783 q 581 826 581 800 l 581 897 z "},"˙":{"ha":853,"x_min":340,"x_max":514,"o":"m 340 738 l 340 874 l 514 874 l 514 738 l 340 738 z "},"˚":{"ha":853,"x_min":201,"x_max":650,"o":"m 650 847 l 650 794 q 556 700 650 700 l 296 700 q 201 794 201 700 l 201 847 q 296 942 201 942 l 556 942 q 650 847 650 942 m 549 807 l 549 835 q 542 867 549 860 q 508 874 535 874 l 343 874 q 310 866 317 874 q 303 835 303 858 l 303 807 q 310 776 303 783 q 343 768 317 768 l 508 768 q 542 775 535 768 q 549 807 549 782 z "},"˛":{"ha":853,"x_min":231,"x_max":621,"o":"m 393 -247 l 621 -247 l 621 -322 l 340 -322 q 231 -212 231 -322 l 231 -158 q 340 -49 231 -49 l 447 -49 l 447 17 l 592 17 l 592 -124 l 393 -124 q 357 -131 365 -124 q 349 -165 349 -139 l 349 -204 q 357 -239 349 -231 q 393 -247 365 -247 z "},"˜":{"ha":853,"x_min":126,"x_max":726,"o":"m 276 831 q 251 799 251 831 l 251 721 l 126 721 l 126 804 q 228 913 126 913 l 261 913 q 428 858 307 913 q 570 803 549 803 q 597 810 592 803 q 603 836 603 817 l 603 913 l 726 913 l 726 829 q 703 749 726 776 q 626 721 681 721 l 589 721 q 423 776 542 721 q 276 831 304 831 z "},"˝":{"ha":853,"x_min":136,"x_max":803,"o":"m 644 928 l 803 928 l 561 703 l 436 703 l 644 928 m 342 928 l 501 928 l 261 703 l 136 703 l 342 928 z "},"π":{"ha":1174,"x_min":100,"x_max":1099,"o":"m 1099 674 l 1099 592 l 933 592 l 933 0 l 786 0 l 786 592 l 400 592 l 400 110 q 290 0 400 0 l 103 0 l 103 88 l 208 88 q 244 95 236 88 q 251 131 251 103 l 251 592 l 100 592 l 100 674 l 1099 674 z "},"ँ":{"ha":0,"x_min":-504,"x_max":189,"o":"m -396 951 q -504 1060 -504 951 l -504 1183 l -365 1183 l -365 1076 q -356 1042 -365 1050 q -321 1033 -347 1033 l 7 1033 q 42 1042 33 1033 q 50 1076 50 1050 l 50 1183 l 189 1183 l 189 1060 q 82 951 189 951 l -396 951 m -224 1117 l -224 1247 l -93 1247 l -93 1117 l -224 1117 z "},"ं":{"ha":0,"x_min":-336,"x_max":-179,"o":"m -336 954 l -336 1094 l -179 1094 l -179 954 l -336 954 z "},"ः":{"ha":557,"x_min":226,"x_max":382,"o":"m 226 603 l 226 750 l 382 750 l 382 603 l 226 603 m 226 149 l 226 296 l 382 296 l 382 149 l 226 149 z "},"अ":{"ha":1482,"x_min":128,"x_max":1510,"o":"m 1510 864 l 1510 782 l 1304 782 l 1304 0 l 1147 0 l 1147 408 l 863 408 l 863 217 q 754 108 863 108 l 238 108 q 128 217 128 108 l 128 351 l 285 351 l 285 233 q 292 198 285 206 q 328 190 300 190 l 663 190 q 699 199 690 190 q 707 233 707 207 l 707 394 q 697 432 707 422 q 660 442 686 442 l 442 442 l 442 524 l 660 524 q 697 534 686 524 q 707 571 707 544 l 707 739 q 699 774 707 765 q 663 782 690 782 l 328 782 q 292 774 300 782 q 285 739 285 767 l 285 621 l 128 621 l 128 756 q 238 864 128 864 l 754 864 q 863 756 863 864 l 863 569 q 799 496 863 500 l 799 490 l 1147 490 l 1147 864 l 1510 864 z "},"आ":{"ha":1972,"x_min":128,"x_max":2000,"o":"m 2000 864 l 2000 782 l 1793 782 l 1793 0 l 1638 0 l 1638 782 l 1304 782 l 1304 0 l 1147 0 l 1147 408 l 863 408 l 863 217 q 754 108 863 108 l 238 108 q 128 217 128 108 l 128 351 l 285 351 l 285 233 q 292 198 285 206 q 328 190 300 190 l 663 190 q 699 199 690 190 q 707 233 707 207 l 707 394 q 697 432 707 422 q 660 442 686 442 l 442 442 l 442 524 l 660 524 q 697 534 686 524 q 707 571 707 544 l 707 739 q 699 774 707 765 q 663 782 690 782 l 328 782 q 292 774 300 782 q 285 739 285 767 l 285 621 l 128 621 l 128 756 q 238 864 128 864 l 754 864 q 863 756 863 864 l 863 569 q 799 496 863 500 l 799 490 l 1147 490 l 1147 864 l 2000 864 z "},"इ":{"ha":1044,"x_min":-28,"x_max":1072,"o":"m 901 592 l 339 592 q 303 583 311 592 q 294 549 294 575 l 294 493 q 303 458 294 467 q 339 450 311 450 l 803 450 q 911 342 911 450 l 911 217 q 803 108 911 108 l 304 108 l 304 0 l 146 0 l 146 264 l 304 264 l 304 190 l 711 190 q 747 199 739 190 q 756 233 756 207 l 756 325 q 747 360 756 351 q 711 368 739 368 l 247 368 q 140 476 140 368 l 140 565 q 247 674 140 674 l 744 674 l 744 782 l -28 782 l -28 864 l 1072 864 l 1072 782 l 901 782 l 901 592 z "},"ई":{"ha":1046,"x_min":-25,"x_max":1075,"o":"m 904 592 l 342 592 q 306 583 314 592 q 297 549 297 575 l 297 493 q 306 458 297 467 q 342 450 314 450 l 806 450 q 914 342 914 450 l 914 217 q 806 108 914 108 l 307 108 l 307 0 l 149 0 l 149 264 l 307 264 l 307 190 l 714 190 q 750 199 742 190 q 758 233 758 207 l 758 325 q 750 360 758 351 q 714 368 742 368 l 250 368 q 143 476 143 368 l 143 565 q 250 674 143 674 l 747 674 l 747 782 l -25 782 l -25 864 l 682 864 l 682 1033 q 790 1142 682 1142 l 1036 1142 l 1036 1060 l 882 1060 q 847 1051 856 1060 q 838 1017 838 1043 l 838 864 l 1075 864 l 1075 782 l 904 782 l 904 592 z "},"उ":{"ha":1003,"x_min":-28,"x_max":1031,"o":"m 1031 864 l 1031 782 l 810 782 q 824 742 824 772 l 824 550 q 761 476 824 479 l 761 472 q 824 400 824 468 l 824 108 q 715 0 824 0 l 210 0 q 101 108 101 0 l 101 286 l 257 286 l 257 125 q 266 90 257 99 q 301 82 275 82 l 624 82 q 659 90 650 82 q 668 125 668 99 l 668 388 q 660 422 668 414 q 624 431 651 431 l 439 431 l 439 513 l 624 513 q 659 522 650 513 q 668 557 668 531 l 668 739 q 660 774 668 765 q 624 782 651 782 l -28 782 l -28 864 l 1031 864 z "},"ऊ":{"ha":1468,"x_min":-26,"x_max":1496,"o":"m 1496 864 l 1496 782 l 813 782 q 826 742 826 772 l 826 550 q 764 476 826 481 l 764 474 q 781 471 772 474 l 1267 471 q 1375 363 1375 471 l 1375 108 q 1267 0 1375 0 l 890 0 l 890 82 l 1175 82 q 1210 90 1201 82 q 1219 125 1219 99 l 1219 346 q 1210 381 1219 372 q 1175 389 1201 389 l 826 389 l 826 108 q 718 0 826 0 l 213 0 q 104 108 104 0 l 104 286 l 260 286 l 260 125 q 269 90 260 99 q 304 82 278 82 l 626 82 q 662 90 653 82 q 671 125 671 99 l 671 388 q 663 422 671 414 q 626 431 654 431 l 442 431 l 442 513 l 626 513 q 662 522 653 513 q 671 557 671 531 l 671 739 q 663 774 671 765 q 626 782 654 782 l -26 782 l -26 864 l 1496 864 z "},"ऋ":{"ha":1850,"x_min":-28,"x_max":1878,"o":"m 1215 547 l 1215 407 q 1253 363 1215 363 l 1538 363 q 1572 407 1572 363 l 1572 547 q 1564 583 1572 574 q 1529 592 1556 592 l 1257 592 q 1223 583 1231 592 q 1215 547 1215 574 m 878 782 l 878 363 l 1082 363 q 1063 443 1063 381 l 1063 565 q 1171 674 1063 674 l 1613 674 q 1722 565 1722 674 l 1722 443 q 1710 367 1722 390 q 1671 336 1699 343 l 1671 329 q 1709 303 1697 321 q 1721 247 1721 286 l 1721 108 q 1611 0 1721 0 l 1165 0 q 1092 29 1117 0 q 1068 108 1068 58 l 1068 190 l 1221 190 l 1221 124 q 1228 90 1221 99 q 1263 82 1236 82 l 1531 82 q 1563 91 1556 82 q 1569 126 1569 100 l 1569 239 q 1562 272 1569 264 q 1529 279 1554 279 l 878 279 l 878 0 l 724 0 l 724 279 l 618 279 l 292 0 l 94 0 l 478 325 l 294 511 q 201 573 247 558 q 97 588 156 588 l 67 588 l 67 674 l 156 674 q 304 656 249 674 q 418 579 360 639 l 629 363 l 724 363 l 724 782 l -28 782 l -28 864 l 1878 864 l 1878 782 l 878 782 z "},"ऌ":{"ha":1578,"x_min":-28,"x_max":1606,"o":"m 1400 47 l 1047 47 q 1010 37 1021 47 q 1000 1 1000 26 l 1000 -119 q 1010 -155 1000 -144 q 1047 -165 1021 -165 l 1440 -165 l 1440 -247 l 951 -247 q 872 -223 896 -247 q 847 -143 847 -199 l 847 25 q 872 105 847 81 q 951 129 896 129 l 1243 129 l 1243 592 l 897 592 q 863 583 871 592 q 854 549 854 575 l 854 265 l 699 265 l 699 549 q 690 583 699 575 q 653 592 681 592 l 353 592 q 318 583 326 592 q 310 549 310 575 l 310 125 q 318 90 310 99 q 353 82 326 82 l 658 82 l 658 0 l 261 0 q 153 108 153 0 l 153 565 q 261 674 153 674 l 692 674 q 774 619 765 674 l 779 619 q 849 674 790 674 l 1243 674 l 1243 782 l -28 782 l -28 864 l 1606 864 l 1606 782 l 1400 782 l 1400 47 z "},"ऍ":{"ha":1096,"x_min":-28,"x_max":1124,"o":"m 803 951 l 324 951 q 215 1060 215 951 l 215 1183 l 363 1183 l 363 1076 q 371 1042 363 1050 q 406 1033 379 1033 l 721 1033 q 756 1042 747 1033 q 764 1076 764 1050 l 764 1183 l 911 1183 l 911 1060 q 803 951 911 951 m 1124 864 l 1124 782 l 947 782 l 947 503 q 838 394 947 394 l 557 394 l 557 476 l 747 476 q 783 485 774 476 q 792 519 792 493 l 792 782 l 335 782 l 335 125 q 344 90 335 99 q 379 82 353 82 l 740 82 q 775 90 767 82 q 783 125 783 99 l 783 272 l 940 272 l 940 108 q 831 0 940 0 l 288 0 q 179 108 179 0 l 179 782 l -28 782 l -28 864 l 1124 864 z "},"ऎ":{"ha":1096,"x_min":-28,"x_max":1124,"o":"m 1124 864 l 1124 782 l 947 782 l 947 503 q 838 394 947 394 l 557 394 l 557 476 l 747 476 q 783 485 774 476 q 792 519 792 493 l 792 782 l 335 782 l 335 125 q 344 90 335 99 q 379 82 353 82 l 740 82 q 775 90 767 82 q 783 125 783 99 l 783 272 l 940 272 l 940 108 q 831 0 940 0 l 288 0 q 179 108 179 0 l 179 782 l -28 782 l -28 864 l 792 864 l 792 906 q 783 942 792 933 q 749 950 775 950 l 367 950 q 258 1058 258 950 l 258 1136 l 414 1136 l 414 1075 q 423 1040 414 1049 q 458 1032 432 1032 l 840 1032 q 949 924 949 1032 l 949 864 l 1124 864 z "},"ए":{"ha":1096,"x_min":-28,"x_max":1124,"o":"m 1124 864 l 1124 782 l 947 782 l 947 503 q 838 394 947 394 l 557 394 l 557 476 l 747 476 q 783 485 774 476 q 792 519 792 493 l 792 782 l 335 782 l 335 125 q 344 90 335 99 q 379 82 353 82 l 740 82 q 775 90 767 82 q 783 125 783 99 l 783 272 l 940 272 l 940 108 q 831 0 940 0 l 288 0 q 179 108 179 0 l 179 782 l -28 782 l -28 864 l 1124 864 z "},"ऐ":{"ha":1096,"x_min":-28,"x_max":1124,"o":"m 1124 864 l 1124 782 l 947 782 l 947 503 q 838 394 947 394 l 557 394 l 557 476 l 747 476 q 783 485 774 476 q 792 519 792 493 l 792 782 l 335 782 l 335 125 q 344 90 335 99 q 379 82 353 82 l 740 82 q 775 90 767 82 q 783 125 783 99 l 783 272 l 940 272 l 940 108 q 831 0 940 0 l 288 0 q 179 108 179 0 l 179 782 l -28 782 l -28 864 l 790 864 q 651 1001 707 933 l 533 1142 l 708 1142 l 944 864 l 1124 864 z "},"ऑ":{"ha":1960,"x_min":128,"x_max":1988,"o":"m 1706 951 l 1226 951 q 1118 1060 1118 951 l 1118 1183 l 1265 1183 l 1265 1076 q 1274 1042 1265 1050 q 1308 1033 1282 1033 l 1624 1033 q 1658 1042 1650 1033 q 1667 1076 1667 1050 l 1667 1183 l 1814 1183 l 1814 1060 q 1706 951 1814 951 m 1988 864 l 1988 782 l 1781 782 l 1781 0 l 1625 0 l 1625 782 l 1304 782 l 1304 0 l 1147 0 l 1147 408 l 863 408 l 863 217 q 754 108 863 108 l 238 108 q 128 217 128 108 l 128 351 l 285 351 l 285 233 q 292 198 285 206 q 328 190 300 190 l 663 190 q 699 199 690 190 q 707 233 707 207 l 707 394 q 697 432 707 422 q 660 442 686 442 l 442 442 l 442 524 l 660 524 q 697 534 686 524 q 707 571 707 544 l 707 739 q 699 774 707 765 q 663 782 690 782 l 328 782 q 292 774 300 782 q 285 739 285 767 l 285 621 l 128 621 l 128 756 q 238 864 128 864 l 754 864 q 863 756 863 864 l 863 569 q 799 496 863 500 l 799 490 l 1147 490 l 1147 864 l 1988 864 z "},"ऒ":{"ha":1960,"x_min":128,"x_max":1988,"o":"m 1988 864 l 1988 782 l 1781 782 l 1781 0 l 1625 0 l 1625 782 l 1304 782 l 1304 0 l 1147 0 l 1147 408 l 863 408 l 863 217 q 754 108 863 108 l 238 108 q 128 217 128 108 l 128 351 l 285 351 l 285 233 q 292 198 285 206 q 328 190 300 190 l 663 190 q 699 199 690 190 q 707 233 707 207 l 707 394 q 697 432 707 422 q 660 442 686 442 l 442 442 l 442 524 l 660 524 q 697 534 686 524 q 707 571 707 544 l 707 739 q 699 774 707 765 q 663 782 690 782 l 328 782 q 292 774 300 782 q 285 739 285 767 l 285 621 l 128 621 l 128 756 q 238 864 128 864 l 754 864 q 863 756 863 864 l 863 569 q 799 496 863 500 l 799 490 l 1147 490 l 1147 864 l 1624 864 l 1624 906 q 1615 942 1624 933 q 1581 950 1607 950 l 1199 950 q 1090 1058 1090 950 l 1090 1136 l 1246 1136 l 1246 1075 q 1255 1040 1246 1049 q 1290 1032 1264 1032 l 1672 1032 q 1781 924 1781 1032 l 1781 864 l 1988 864 z "},"ओ":{"ha":1961,"x_min":128,"x_max":1989,"o":"m 1989 864 l 1989 782 l 1782 782 l 1782 0 l 1626 0 l 1626 782 l 1304 782 l 1304 0 l 1147 0 l 1147 408 l 863 408 l 863 217 q 754 108 863 108 l 238 108 q 128 217 128 108 l 128 351 l 285 351 l 285 233 q 292 198 285 206 q 328 190 300 190 l 663 190 q 699 199 690 190 q 707 233 707 207 l 707 394 q 697 432 707 422 q 660 442 686 442 l 442 442 l 442 524 l 660 524 q 697 534 686 524 q 707 571 707 544 l 707 739 q 699 774 707 765 q 663 782 690 782 l 328 782 q 292 774 300 782 q 285 739 285 767 l 285 621 l 128 621 l 128 756 q 238 864 128 864 l 754 864 q 863 756 863 864 l 863 569 q 799 496 863 500 l 799 490 l 1147 490 l 1147 864 l 1629 864 q 1490 1001 1546 933 l 1372 1142 l 1547 1142 l 1783 864 l 1989 864 z "},"औ":{"ha":2032,"x_min":200,"x_max":2060,"o":"m 2060 864 l 2060 782 l 1853 782 l 1853 0 l 1697 0 l 1697 782 l 1376 782 l 1376 0 l 1219 0 l 1219 408 l 935 408 l 935 217 q 826 108 935 108 l 310 108 q 200 217 200 108 l 200 351 l 357 351 l 357 233 q 365 198 357 206 q 400 190 372 190 l 735 190 q 771 199 763 190 q 779 233 779 207 l 779 394 q 769 432 779 422 q 732 442 758 442 l 514 442 l 514 524 l 732 524 q 769 534 758 524 q 779 571 779 544 l 779 739 q 771 774 779 765 q 735 782 763 782 l 400 782 q 365 774 372 782 q 357 739 357 767 l 357 621 l 200 621 l 200 756 q 310 864 200 864 l 826 864 q 935 756 935 864 l 935 569 q 871 496 935 500 l 871 490 l 1219 490 l 1219 864 l 1686 864 q 1575 958 1643 896 l 1382 1142 l 1550 1142 l 1610 1074 q 1768 864 1710 963 l 1775 864 q 1690 1068 1756 899 l 1660 1142 l 1792 1142 l 1851 864 l 2060 864 z "},"क":{"ha":1504,"x_min":-28,"x_max":1532,"o":"m 1532 782 l 831 782 l 831 661 q 875 674 844 674 l 1267 674 q 1376 565 1376 674 l 1376 217 q 1267 108 1376 108 l 900 108 l 900 190 l 1176 190 q 1211 199 1203 190 q 1219 233 1219 207 l 1219 549 q 1211 583 1219 575 q 1176 592 1203 592 l 878 592 q 840 582 850 592 q 831 544 831 572 l 831 0 l 675 0 l 675 121 q 631 108 661 108 l 238 108 q 129 217 129 108 l 129 565 q 238 674 129 674 l 606 674 l 606 592 l 329 592 q 294 583 303 592 q 285 549 285 575 l 285 233 q 294 199 285 207 q 329 190 303 190 l 628 190 q 665 201 656 190 q 675 238 675 211 l 675 782 l -28 782 l -28 864 l 1532 864 l 1532 782 z "},"ख":{"ha":1910,"x_min":-28,"x_max":1936,"o":"m 1936 864 l 1936 782 l 1731 782 l 1731 0 l 1576 0 l 1576 186 q 1526 167 1563 167 l 1090 167 q 983 275 983 167 l 983 524 q 1090 632 983 632 l 1514 632 l 1514 550 l 1171 550 q 1135 542 1144 550 q 1126 507 1126 533 l 1126 290 q 1135 256 1126 265 q 1171 247 1144 247 l 1522 247 q 1564 259 1551 247 q 1576 300 1576 271 l 1576 782 l 786 782 l 786 439 q 678 332 786 332 l 310 332 l 310 125 q 319 90 310 99 q 354 82 328 82 l 897 82 l 897 0 l 260 0 q 153 108 153 0 l 153 653 l 310 653 l 310 414 l 589 414 q 624 422 617 414 q 632 457 632 431 l 632 782 l -28 782 l -28 864 l 1936 864 z "},"ग":{"ha":1536,"x_min":-28,"x_max":1564,"o":"m 307 190 l 710 190 q 744 199 736 190 q 753 233 753 207 l 753 510 l 307 510 q 272 501 281 510 q 263 467 263 493 l 263 233 q 272 199 263 207 q 307 190 281 190 m 1564 864 l 1564 782 l 1357 782 l 1357 0 l 1201 0 l 1201 782 l 908 782 l 908 217 q 800 108 908 108 l 224 108 q 115 217 115 108 l 115 483 q 224 592 115 592 l 753 592 l 753 782 l -28 782 l -28 864 l 1564 864 z "},"घ":{"ha":1242,"x_min":-28,"x_max":1269,"o":"m 907 238 l 907 782 l 353 782 q 317 774 325 782 q 310 739 310 767 l 310 568 q 317 533 310 542 q 353 525 325 525 l 626 525 l 626 443 l 353 443 q 317 435 325 443 q 310 400 310 428 l 310 233 q 318 199 310 207 q 353 190 326 190 l 860 190 q 897 201 886 190 q 907 238 907 211 m 1269 864 l 1269 782 l 1063 782 l 1063 0 l 907 0 l 907 121 q 863 108 892 108 l 263 108 q 153 217 153 108 l 153 407 q 217 481 153 476 l 217 486 q 153 558 153 490 l 153 742 q 167 782 153 772 l -28 782 l -28 864 l 1269 864 z "},"ङ":{"ha":1186,"x_min":-28,"x_max":1214,"o":"m 965 429 l 965 544 l 1089 544 l 1089 429 l 965 429 m -28 864 l 1214 864 l 1214 782 l 843 782 l 843 592 l 340 592 q 304 583 313 592 q 296 549 296 575 l 296 464 q 304 429 296 438 q 340 421 313 421 l 768 421 q 876 313 876 421 l 876 121 q 768 13 876 13 l 251 13 q 144 121 144 13 l 144 235 l 300 235 l 300 138 q 308 103 300 111 q 344 94 317 94 l 676 94 q 713 103 704 94 q 721 138 721 111 l 721 296 q 713 331 721 322 q 676 339 704 339 l 247 339 q 140 447 140 339 l 140 565 q 247 674 140 674 l 689 674 l 689 782 l -28 782 l -28 864 z "},"च":{"ha":1172,"x_min":-28,"x_max":1200,"o":"m 1200 864 l 1200 782 l 993 782 l 993 0 l 838 0 l 838 121 q 793 108 822 108 l 269 108 q 161 217 161 108 l 161 551 q 175 592 161 582 l 44 592 l 44 674 l 578 674 l 578 592 l 358 592 q 325 583 333 592 q 317 549 317 574 l 317 233 q 326 199 317 207 q 361 190 335 190 l 790 190 q 827 201 817 190 q 838 238 838 211 l 838 782 l -28 782 l -28 864 l 1200 864 z "},"छ":{"ha":1469,"x_min":-28,"x_max":1497,"o":"m 896 674 l 896 782 l 356 782 q 320 774 328 782 q 313 739 313 767 l 313 514 q 320 478 313 486 q 356 471 328 471 l 571 471 l 571 389 l 356 389 q 320 381 328 389 q 313 346 313 372 l 313 125 q 321 90 313 99 q 356 82 329 82 l 1132 82 q 1167 90 1158 82 q 1176 125 1176 99 l 1176 549 q 1167 583 1176 575 q 1132 592 1158 592 l 825 592 q 790 583 799 592 q 781 549 781 575 l 781 365 q 790 331 781 339 q 825 322 799 322 l 982 322 l 982 240 l 744 240 q 635 349 635 240 l 635 565 q 744 674 635 674 l 896 674 m 1497 782 l 1049 782 l 1049 674 l 1208 674 q 1317 565 1317 674 l 1317 108 q 1208 0 1317 0 l 265 0 q 156 108 156 0 l 156 353 q 219 425 156 421 l 219 431 q 156 503 156 435 l 156 742 q 169 782 156 772 l -28 782 l -28 864 l 1497 864 l 1497 782 z "},"ज":{"ha":1493,"x_min":-28,"x_max":1521,"o":"m 1521 864 l 1521 782 l 1314 782 l 1314 0 l 1158 0 l 1158 592 l 865 592 l 865 217 q 757 108 865 108 l 261 108 q 153 217 153 108 l 153 674 l 306 674 l 306 233 q 315 199 306 207 q 350 190 324 190 l 668 190 q 703 199 694 190 q 713 233 713 207 l 713 674 l 1158 674 l 1158 782 l -28 782 l -28 864 l 1521 864 z "},"झ":{"ha":1529,"x_min":-28,"x_max":1557,"o":"m 1194 460 l 1194 782 l 907 782 l 907 592 l 342 592 q 306 583 314 592 q 299 549 299 575 l 299 503 q 306 467 299 475 q 342 460 314 460 l 1194 460 m 1557 864 l 1557 782 l 1350 782 l 1350 0 l 1194 0 l 1194 378 l 906 378 q 907 351 907 369 l 907 217 q 800 108 907 108 l 293 108 l 293 0 l 135 0 l 135 264 l 293 264 l 293 190 l 707 190 q 744 199 735 190 q 753 233 753 207 l 753 333 q 744 369 753 360 q 707 378 735 378 l 250 378 q 142 486 142 378 l 142 565 q 250 674 142 674 l 753 674 l 753 782 l -28 782 l -28 864 l 1557 864 z "},"ञ":{"ha":1446,"x_min":-28,"x_max":1474,"o":"m 1474 864 l 1474 782 l 1267 782 l 1267 0 l 1110 0 l 1110 360 l 826 360 l 826 217 q 719 108 826 108 l 190 108 q 82 217 82 108 l 82 374 l 239 374 l 239 233 q 247 199 239 207 q 282 190 256 190 l 628 190 q 663 199 654 190 q 672 233 672 207 l 672 549 q 663 583 672 575 q 628 592 654 592 l 325 592 l 325 674 l 719 674 q 826 565 826 674 l 826 442 l 1110 442 l 1110 782 l -28 782 l -28 864 l 1474 864 z "},"ट":{"ha":1051,"x_min":-28,"x_max":1079,"o":"m 861 592 l 353 592 q 318 583 326 592 q 310 549 310 575 l 310 125 q 318 90 310 99 q 353 82 326 82 l 703 82 q 738 90 729 82 q 746 125 746 99 l 746 339 l 903 339 l 903 108 q 793 0 903 0 l 263 0 q 153 108 153 0 l 153 565 q 263 674 153 674 l 706 674 l 706 782 l -28 782 l -28 864 l 1079 864 l 1079 782 l 861 782 l 861 592 z "},"ठ":{"ha":1083,"x_min":-28,"x_max":1111,"o":"m 778 125 l 778 549 q 769 583 778 575 q 733 592 760 592 l 350 592 q 315 583 324 592 q 307 549 307 575 l 307 125 q 315 90 307 99 q 350 82 324 82 l 733 82 q 769 90 760 82 q 778 125 778 99 m 1111 782 l 619 782 l 619 674 l 822 674 q 931 565 931 674 l 931 108 q 822 0 931 0 l 263 0 q 153 108 153 0 l 153 565 q 263 674 153 674 l 463 674 l 463 782 l -28 782 l -28 864 l 1111 864 l 1111 782 z "},"ड":{"ha":1024,"x_min":-28,"x_max":1051,"o":"m 851 592 l 347 592 q 311 583 319 592 q 303 549 303 575 l 303 475 q 311 440 303 449 q 347 432 319 432 l 775 432 q 885 324 885 432 l 885 108 q 775 0 885 0 l 260 0 q 151 108 151 0 l 151 240 l 307 240 l 307 125 q 316 90 307 99 q 351 82 325 82 l 683 82 q 719 90 711 82 q 728 125 728 99 l 728 306 q 719 342 728 333 q 683 350 711 350 l 256 350 q 147 458 147 350 l 147 565 q 256 674 147 674 l 696 674 l 696 782 l -28 782 l -28 864 l 1051 864 l 1051 782 l 851 782 l 851 592 z "},"ढ":{"ha":1086,"x_min":-28,"x_max":1114,"o":"m 864 592 l 353 592 q 318 583 326 592 q 310 549 310 575 l 310 125 q 318 90 310 99 q 353 82 326 82 l 743 82 q 778 90 769 82 q 786 125 786 99 l 786 278 q 778 313 786 304 q 743 321 769 321 l 529 321 l 529 403 l 826 403 q 935 294 935 403 l 935 108 q 826 0 935 0 l 263 0 q 153 108 153 0 l 153 565 q 263 674 153 674 l 707 674 l 707 782 l -28 782 l -28 864 l 1114 864 l 1114 782 l 864 782 l 864 592 z "},"ण":{"ha":1518,"x_min":-28,"x_max":1546,"o":"m 715 233 l 715 782 l 303 782 l 303 233 q 312 199 303 207 q 347 190 321 190 l 671 190 q 706 199 697 190 q 715 233 715 207 m 1546 864 l 1546 782 l 1340 782 l 1340 0 l 1185 0 l 1185 782 l 864 782 l 864 217 q 757 108 864 108 l 263 108 q 153 217 153 108 l 153 782 l -28 782 l -28 864 l 1546 864 z "},"त":{"ha":1114,"x_min":-28,"x_max":1142,"o":"m 1142 864 l 1142 782 l 935 782 l 935 0 l 779 0 l 779 592 l 353 592 q 318 583 326 592 q 310 549 310 575 l 310 125 q 318 90 310 99 q 353 82 326 82 l 538 82 l 538 0 l 261 0 q 153 108 153 0 l 153 565 q 261 674 153 674 l 779 674 l 779 782 l -28 782 l -28 864 l 1142 864 z "},"थ":{"ha":1460,"x_min":153,"x_max":1488,"o":"m 1488 864 l 1488 782 l 1281 782 l 1281 0 l 1125 0 l 1125 121 q 1081 108 1111 108 l 261 108 q 153 217 153 108 l 153 507 l 647 507 q 683 515 674 507 q 692 550 692 524 l 692 739 q 683 774 692 765 q 647 782 674 782 l 353 782 q 317 774 326 782 q 308 739 308 765 l 308 615 l 154 615 l 154 756 q 264 864 154 864 l 738 864 q 846 756 846 864 l 846 533 q 738 425 846 425 l 310 425 l 310 233 q 318 199 310 207 q 353 190 326 190 l 1078 190 q 1115 201 1106 190 q 1125 238 1125 211 l 1125 864 l 1488 864 z "},"द":{"ha":1050,"x_min":-28,"x_max":1078,"o":"m 860 592 l 329 592 q 294 583 303 592 q 285 549 285 575 l 285 233 q 294 199 285 207 q 329 190 303 190 l 669 190 q 707 201 697 190 q 717 238 717 211 l 717 369 l 874 369 l 874 0 l 717 0 l 717 121 q 672 108 703 108 l 238 108 q 129 217 129 108 l 129 565 q 238 674 129 674 l 704 674 l 704 782 l -28 782 l -28 864 l 1078 864 l 1078 782 l 860 782 l 860 592 z "},"ध":{"ha":1438,"x_min":149,"x_max":1465,"o":"m 1465 864 l 1465 782 l 1260 782 l 1260 0 l 1104 0 l 1104 121 q 1060 108 1090 108 l 257 108 q 149 217 149 108 l 149 379 q 211 450 149 446 l 211 456 q 149 529 149 460 l 149 756 q 257 864 149 864 l 733 864 q 842 756 842 864 l 842 592 l 704 592 l 704 739 q 696 774 704 765 q 661 782 688 782 l 349 782 q 313 774 322 782 q 304 739 304 765 l 304 542 q 313 507 304 515 q 349 499 321 499 l 557 499 l 557 417 l 349 417 q 313 408 322 417 q 304 372 304 400 l 304 233 q 313 199 304 207 q 349 190 322 190 l 1057 190 q 1094 201 1083 190 q 1104 238 1104 211 l 1104 864 l 1465 864 z "},"न":{"ha":1464,"x_min":-28,"x_max":1492,"o":"m 683 233 l 683 592 l 311 592 q 276 583 285 592 q 268 549 268 575 l 268 233 q 276 199 268 207 q 311 190 285 190 l 640 190 q 675 199 667 190 q 683 233 683 207 m 1492 864 l 1492 782 l 1285 782 l 1285 0 l 1129 0 l 1129 592 l 836 592 l 836 217 q 728 108 836 108 l 224 108 q 115 217 115 108 l 115 565 q 224 674 115 674 l 1129 674 l 1129 782 l -28 782 l -28 864 l 1492 864 z "},"ऩ":{"ha":1464,"x_min":-28,"x_max":1492,"o":"m 449 -121 l 449 18 l 606 18 l 606 -121 l 449 -121 m 683 233 l 683 592 l 311 592 q 276 583 285 592 q 268 549 268 575 l 268 233 q 276 199 268 207 q 311 190 285 190 l 640 190 q 675 199 667 190 q 683 233 683 207 m 1492 864 l 1492 782 l 1285 782 l 1285 0 l 1129 0 l 1129 592 l 836 592 l 836 217 q 728 108 836 108 l 224 108 q 115 217 115 108 l 115 565 q 224 674 115 674 l 1129 674 l 1129 782 l -28 782 l -28 864 l 1492 864 z "},"प":{"ha":1067,"x_min":-28,"x_max":1096,"o":"m 733 238 l 733 782 l 307 782 l 307 233 q 315 199 307 207 q 350 190 324 190 l 686 190 q 724 201 714 190 q 733 238 733 211 m 1096 864 l 1096 782 l 888 782 l 888 0 l 733 0 l 733 121 q 689 108 719 108 l 263 108 q 153 217 153 108 l 153 782 l -28 782 l -28 864 l 1096 864 z "},"फ":{"ha":1571,"x_min":-28,"x_max":1600,"o":"m 733 238 l 733 782 l 307 782 l 307 233 q 315 199 307 207 q 350 190 324 190 l 686 190 q 724 201 714 190 q 733 238 733 211 m 1600 782 l 888 782 l 888 661 q 932 674 903 674 l 1333 674 q 1443 565 1443 674 l 1443 217 q 1333 108 1443 108 l 956 108 l 956 190 l 1243 190 q 1278 199 1269 190 q 1286 233 1286 207 l 1286 549 q 1278 583 1286 575 q 1243 592 1269 592 l 935 592 q 898 582 908 592 q 888 544 888 572 l 888 0 l 733 0 l 733 121 q 689 108 719 108 l 263 108 q 153 217 153 108 l 153 782 l -28 782 l -28 864 l 1600 864 l 1600 782 z "},"ब":{"ha":1151,"x_min":-28,"x_max":1179,"o":"m 325 190 l 769 190 q 785 192 781 190 l 276 536 q 282 392 282 453 l 282 233 q 290 199 282 207 q 325 190 299 190 m 1179 864 l 1179 782 l 974 782 l 974 0 l 817 0 l 817 121 q 772 108 803 108 l 238 108 q 129 217 129 108 l 129 565 q 238 674 129 674 l 758 674 l 758 592 l 319 592 l 828 246 q 817 435 817 311 l 817 782 l -28 782 l -28 864 l 1179 864 z "},"भ":{"ha":1504,"x_min":151,"x_max":1532,"o":"m 718 232 l 718 432 l 344 432 q 308 423 317 432 q 300 388 300 414 l 300 232 q 309 198 300 207 q 344 189 318 189 l 674 189 q 709 198 700 189 q 718 232 718 207 m 1532 864 l 1532 782 l 1325 782 l 1325 0 l 1169 0 l 1169 432 l 874 432 l 874 217 q 765 108 874 108 l 260 108 q 151 217 151 108 l 151 406 q 260 514 151 514 l 718 514 l 718 739 q 709 774 718 765 q 674 782 700 782 l 353 782 q 318 774 326 782 q 310 739 310 765 l 310 618 l 153 618 l 153 756 q 263 864 153 864 l 765 864 q 874 756 874 864 l 874 514 l 1169 514 l 1169 864 l 1532 864 z "},"म":{"ha":1506,"x_min":-28,"x_max":1533,"o":"m 1172 674 l 1172 782 l 875 782 l 875 674 l 1172 674 m 718 233 l 718 592 l 346 592 q 311 583 319 592 q 303 549 303 575 l 303 233 q 311 199 303 207 q 346 190 319 190 l 675 190 q 710 199 701 190 q 718 233 718 207 m 1533 864 l 1533 782 l 1328 782 l 1328 0 l 1172 0 l 1172 592 l 875 592 l 875 217 q 767 108 875 108 l 261 108 q 153 217 153 108 l 153 565 q 261 674 153 674 l 718 674 l 718 782 l -28 782 l -28 864 l 1533 864 z "},"य":{"ha":1339,"x_min":-28,"x_max":1367,"o":"m 1006 243 l 1006 782 l 706 782 q 719 742 719 771 l 719 538 q 611 429 719 429 l 260 429 l 260 233 q 268 199 260 207 q 303 190 276 190 l 949 190 q 993 202 981 190 q 1006 243 1006 214 m 1367 864 l 1367 782 l 1160 782 l 1160 0 l 1006 0 l 1006 129 q 954 108 992 108 l 211 108 q 103 217 103 108 l 103 511 l 519 511 q 556 519 547 511 q 564 556 564 528 l 564 739 q 556 774 564 765 q 519 782 547 782 l -28 782 l -28 864 l 1367 864 z "},"र":{"ha":1051,"x_min":-28,"x_max":1079,"o":"m 1079 864 l 1079 782 l 861 782 q 875 742 875 772 l 875 504 q 767 396 875 396 l 310 396 l 310 125 q 318 90 310 99 q 353 82 326 82 l 664 82 q 699 90 690 82 q 708 125 708 99 l 708 293 l 864 293 l 864 108 q 756 0 864 0 l 261 0 q 153 108 153 0 l 153 600 l 310 600 l 310 478 l 675 478 q 710 486 701 478 q 718 521 718 494 l 718 739 q 710 774 718 767 q 675 782 703 782 l -28 782 l -28 864 l 1079 864 z "},"ऱ":{"ha":1051,"x_min":-28,"x_max":1079,"o":"m 240 -229 l 240 -90 l 397 -90 l 397 -229 l 240 -229 m 1079 864 l 1079 782 l 861 782 q 875 742 875 772 l 875 504 q 767 396 875 396 l 310 396 l 310 125 q 318 90 310 99 q 353 82 326 82 l 664 82 q 699 90 690 82 q 708 125 708 99 l 708 293 l 864 293 l 864 108 q 756 0 864 0 l 261 0 q 153 108 153 0 l 153 600 l 310 600 l 310 478 l 675 478 q 710 486 701 478 q 718 521 718 494 l 718 739 q 710 774 718 767 q 675 782 703 782 l -28 782 l -28 864 l 1079 864 z "},"ल":{"ha":1579,"x_min":-28,"x_max":1607,"o":"m 1607 864 l 1607 782 l 1400 782 l 1400 0 l 1243 0 l 1243 592 l 897 592 q 863 583 871 592 q 854 549 854 575 l 854 265 l 699 265 l 699 549 q 690 583 699 575 q 653 592 681 592 l 353 592 q 318 583 326 592 q 310 549 310 575 l 310 125 q 318 90 310 99 q 353 82 326 82 l 658 82 l 658 0 l 261 0 q 153 108 153 0 l 153 565 q 261 674 153 674 l 692 674 q 774 619 765 674 l 779 619 q 849 674 790 674 l 1243 674 l 1243 782 l -28 782 l -28 864 l 1607 864 z "},"ळ":{"ha":1465,"x_min":-28,"x_max":1493,"o":"m 1131 592 l 847 592 q 812 583 821 592 q 803 549 803 575 l 803 233 q 812 199 803 207 q 847 190 821 190 l 1131 190 q 1166 199 1157 190 q 1175 233 1175 207 l 1175 549 q 1166 583 1175 575 q 1131 592 1157 592 m 663 233 l 663 549 q 653 583 663 575 q 618 592 644 592 l 335 592 q 299 583 308 592 q 290 549 290 575 l 290 233 q 299 199 290 207 q 335 190 308 190 l 618 190 q 653 199 644 190 q 663 233 663 207 m 1493 782 l 1092 782 l 1092 674 l 1217 674 q 1326 565 1326 674 l 1326 217 q 1217 108 1326 108 l 804 108 q 756 121 771 108 q 736 163 740 133 l 731 163 q 647 108 721 108 l 249 108 q 140 217 140 108 l 140 565 q 249 674 140 674 l 647 674 q 731 619 721 674 l 736 619 q 804 674 742 674 l 936 674 l 936 782 l -28 782 l -28 864 l 1493 864 l 1493 782 z "},"ऴ":{"ha":1465,"x_min":-28,"x_max":1493,"o":"m 429 -121 l 429 18 l 586 18 l 586 -121 l 429 -121 m 1131 592 l 847 592 q 812 583 821 592 q 803 549 803 575 l 803 233 q 812 199 803 207 q 847 190 821 190 l 1131 190 q 1166 199 1157 190 q 1175 233 1175 207 l 1175 549 q 1166 583 1175 575 q 1131 592 1157 592 m 663 233 l 663 549 q 653 583 663 575 q 618 592 644 592 l 335 592 q 299 583 308 592 q 290 549 290 575 l 290 233 q 299 199 290 207 q 335 190 308 190 l 618 190 q 653 199 644 190 q 663 233 663 207 m 1493 782 l 1092 782 l 1092 674 l 1217 674 q 1326 565 1326 674 l 1326 217 q 1217 108 1326 108 l 804 108 q 756 121 771 108 q 736 163 740 133 l 731 163 q 647 108 721 108 l 249 108 q 140 217 140 108 l 140 565 q 249 674 140 674 l 647 674 q 731 619 721 674 l 736 619 q 804 674 742 674 l 936 674 l 936 782 l -28 782 l -28 864 l 1493 864 l 1493 782 z "},"व":{"ha":1068,"x_min":-28,"x_max":1096,"o":"m 1096 864 l 1096 782 l 889 782 l 889 0 l 735 0 l 735 121 q 690 108 719 108 l 250 108 q 140 217 140 108 l 140 565 q 250 674 140 674 l 665 674 l 665 592 l 340 592 q 306 583 314 592 q 297 549 297 575 l 297 233 q 306 199 297 207 q 340 190 314 190 l 688 190 q 724 201 714 190 q 735 238 735 211 l 735 782 l -28 782 l -28 864 l 1096 864 z "},"श":{"ha":1542,"x_min":178,"x_max":1569,"o":"m 288 864 l 792 864 q 900 756 900 864 l 900 476 q 792 368 900 368 l 333 368 l 333 125 q 342 90 333 99 q 378 82 351 82 l 699 82 q 733 90 725 82 q 742 125 742 99 l 742 272 l 899 272 l 899 108 q 789 0 899 0 l 286 0 q 178 108 178 0 l 178 518 l 333 518 l 333 450 l 700 450 q 735 458 726 450 q 744 493 744 467 l 744 739 q 735 774 744 765 q 700 782 726 782 l 378 782 q 342 774 351 782 q 333 739 333 765 l 333 622 l 178 622 l 178 756 q 288 864 178 864 m 1569 864 l 1569 782 l 1364 782 l 1364 0 l 1207 0 l 1207 864 l 1569 864 z "},"ष":{"ha":1151,"x_min":-28,"x_max":1179,"o":"m 824 485 l 824 782 l 299 782 l 832 279 q 824 485 824 369 m 351 190 l 775 190 q 814 203 806 190 l 297 689 q 307 513 307 611 l 307 233 q 316 199 307 207 q 351 190 325 190 m 1179 864 l 1179 782 l 974 782 l 974 0 l 822 0 l 822 121 q 778 108 808 108 l 263 108 q 153 217 153 108 l 153 782 l -28 782 l -28 864 l 1179 864 z "},"स":{"ha":1522,"x_min":-28,"x_max":1551,"o":"m 1188 471 l 1188 782 l 865 782 q 879 742 879 772 l 879 497 q 878 471 879 479 l 1188 471 m 1551 864 l 1551 782 l 1343 782 l 1343 0 l 1188 0 l 1188 389 l 310 389 l 310 125 q 318 90 310 99 q 353 82 326 82 l 678 82 q 713 90 704 82 q 722 125 722 99 l 722 297 l 878 297 l 878 108 q 769 0 878 0 l 263 0 q 153 108 153 0 l 153 661 l 310 661 l 310 471 l 679 471 q 715 479 706 471 q 724 514 724 488 l 724 739 q 715 774 724 765 q 679 782 707 782 l -28 782 l -28 864 l 1551 864 z "},"ह":{"ha":1063,"x_min":-28,"x_max":1090,"o":"m 883 592 l 363 592 q 328 583 336 592 q 319 549 319 575 l 319 493 q 328 458 319 467 q 363 450 336 450 l 797 450 q 910 338 910 450 l 910 197 l 760 197 l 760 325 q 751 359 760 350 q 715 368 742 368 l 363 368 q 328 360 336 368 q 319 325 319 353 l 319 125 q 328 90 319 99 q 363 82 336 82 l 907 82 l 907 0 l 272 0 q 163 108 163 0 l 163 329 q 226 401 163 397 l 226 407 q 163 479 163 410 l 163 565 q 272 674 163 674 l 729 674 l 729 782 l -28 782 l -28 864 l 1090 864 l 1090 782 l 883 782 l 883 592 z "},"़":{"ha":0,"x_min":-393,"x_max":-236,"o":"m -393 -229 l -393 -90 l -236 -90 l -236 -229 l -393 -229 z "},"ऽ":{"ha":983,"x_min":149,"x_max":849,"o":"m 349 513 l 740 513 q 849 404 849 513 l 849 108 q 740 0 849 0 l 260 0 q 153 110 153 0 l 153 254 l 307 254 l 307 126 q 316 91 307 100 q 353 82 325 82 l 649 82 q 683 90 675 82 q 692 125 692 97 l 692 386 q 683 422 692 414 q 649 431 675 431 l 256 431 q 149 539 149 431 l 149 756 q 256 864 149 864 l 843 864 l 843 782 l 349 782 q 312 774 321 782 q 303 739 303 765 l 303 556 q 312 521 303 529 q 349 513 321 513 z "},"ा":{"ha":514,"x_min":-28,"x_max":542,"o":"m 542 864 l 542 782 l 335 782 l 335 0 l 179 0 l 179 782 l -28 782 l -28 864 l 542 864 z "},"ि":{"ha":514,"x_min":-28,"x_max":1335,"o":"m 288 1142 l 1228 1142 q 1335 1032 1335 1142 l 1335 928 l 1179 928 l 1179 1015 q 1171 1051 1179 1043 q 1136 1060 1163 1060 l 379 1060 q 344 1051 353 1060 q 335 1015 335 1042 l 335 864 l 542 864 l 542 782 l 335 782 l 335 0 l 179 0 l 179 782 l -28 782 l -28 864 l 179 864 l 179 1032 q 288 1142 179 1142 z "},"ी":{"ha":514,"x_min":-342,"x_max":542,"o":"m 542 864 l 542 782 l 335 782 l 335 0 l 179 0 l 179 782 l -28 782 l -28 864 l 179 864 l 179 1015 q 170 1051 179 1042 q 135 1060 161 1060 l -142 1060 q -178 1051 -169 1060 q -186 1015 -186 1042 l -186 928 l -342 928 l -342 1032 q -233 1142 -342 1142 l 226 1142 q 335 1032 335 1142 l 335 864 l 542 864 z "},"ु":{"ha":0,"x_min":-768,"x_max":-1,"o":"m -371 0 l -106 0 q -26 -24 -50 0 q -1 -104 -1 -49 l -1 -271 q -26 -351 -1 -326 q -106 -375 -50 -375 l -496 -375 q -603 -360 -571 -375 q -671 -286 -635 -344 l -768 -125 l -601 -125 l -526 -254 q -501 -285 -512 -276 q -468 -293 -490 -293 l -203 -293 q -166 -283 -176 -293 q -156 -247 -156 -272 l -156 -128 q -166 -92 -156 -103 q -203 -82 -176 -82 l -371 -82 l -371 0 z "},"ू":{"ha":0,"x_min":-668,"x_max":133,"o":"m -239 -82 l -468 -82 q -505 -92 -494 -82 q -515 -128 -515 -103 l -515 -247 q -505 -283 -515 -272 q -468 -293 -494 -293 l -290 -293 l -290 -375 l -564 -375 q -644 -351 -619 -375 q -668 -271 -668 -326 l -668 -104 q -644 -24 -668 -49 q -564 0 -619 0 l -211 0 q -103 -15 -135 0 q -36 -89 -71 -29 l 133 -375 l -33 -375 l -181 -121 q -206 -90 -194 -99 q -239 -82 -217 -82 z "},"ृ":{"ha":0,"x_min":-607,"x_max":-14,"o":"m -407 -293 l -14 -293 l -14 -375 l -503 -375 q -583 -351 -558 -375 q -607 -271 -607 -326 l -607 -104 q -583 -24 -607 -49 q -503 0 -558 0 l -76 0 l -76 -82 l -407 -82 q -444 -92 -433 -82 q -454 -128 -454 -103 l -454 -247 q -444 -283 -454 -272 q -407 -293 -433 -293 z "},"ॄ":{"ha":0,"x_min":-607,"x_max":-26,"o":"m -407 -589 l -26 -589 l -26 -671 l -503 -671 q -583 -647 -558 -671 q -607 -567 -607 -622 l -607 -425 q -568 -336 -607 -367 q -607 -246 -607 -304 l -607 -104 q -583 -24 -607 -49 q -503 0 -558 0 l -67 0 l -67 -82 l -407 -82 q -444 -92 -433 -82 q -454 -128 -454 -103 l -454 -249 q -444 -284 -454 -274 q -407 -294 -433 -294 l -31 -294 l -31 -376 l -407 -376 q -444 -387 -433 -376 q -454 -422 -454 -397 l -454 -543 q -444 -578 -454 -568 q -407 -589 -433 -589 z "},"ॅ":{"ha":0,"x_min":-506,"x_max":190,"o":"m 43 1183 l 190 1183 l 190 1060 q 82 951 190 951 l -397 951 q -506 1060 -506 951 l -506 1183 l -358 1183 l -358 1076 q -350 1042 -358 1050 q -315 1033 -342 1033 l 0 1033 q 35 1042 26 1033 q 43 1076 43 1050 l 43 1183 z "},"ॆ":{"ha":0,"x_min":-767,"x_max":-76,"o":"m -567 1032 l -185 1032 q -76 924 -76 1032 l -76 815 l -233 815 l -233 906 q -242 942 -233 933 q -276 950 -250 950 l -658 950 q -767 1058 -767 950 l -767 1136 l -611 1136 l -611 1075 q -602 1040 -611 1049 q -567 1032 -593 1032 z "},"े":{"ha":0,"x_min":-589,"x_max":-167,"o":"m -167 850 l -314 850 q -471 1001 -397 914 l -589 1142 l -414 1142 l -167 850 z "},"ै":{"ha":0,"x_min":-649,"x_max":-176,"o":"m -262 864 l -256 864 q -340 1068 -275 899 l -371 1142 l -239 1142 l -176 850 l -325 850 q -456 958 -367 875 l -649 1142 l -481 1142 l -421 1074 q -262 864 -321 963 z "},"ॉ":{"ha":514,"x_min":-92,"x_max":604,"o":"m -28 782 l -28 864 l 542 864 l 542 782 l 335 782 l 335 0 l 179 0 l 179 782 l -28 782 m 457 1183 l 604 1183 l 604 1060 q 496 951 604 951 l 17 951 q -92 1060 -92 951 l -92 1183 l 56 1183 l 56 1076 q 64 1042 56 1050 q 99 1033 72 1033 l 414 1033 q 449 1042 440 1033 q 457 1076 457 1050 l 457 1183 z "},"ॊ":{"ha":514,"x_min":-356,"x_max":542,"o":"m 542 864 l 542 782 l 335 782 l 335 0 l 179 0 l 179 782 l -28 782 l -28 864 l 178 864 l 178 906 q 169 942 178 933 q 135 950 161 950 l -247 950 q -356 1058 -356 950 l -356 1136 l -200 1136 l -200 1075 q -191 1040 -200 1049 q -156 1032 -182 1032 l 226 1032 q 335 924 335 1032 l 335 864 l 542 864 z "},"ो":{"ha":514,"x_min":-75,"x_max":542,"o":"m 542 864 l 542 782 l 335 782 l 335 0 l 179 0 l 179 782 l -28 782 l -28 864 l 182 864 q 43 1001 99 933 l -75 1142 l 100 1142 l 336 864 l 542 864 z "},"ौ":{"ha":514,"x_min":-135,"x_max":542,"o":"m 542 864 l 542 782 l 335 782 l 335 0 l 179 0 l 179 782 l -28 782 l -28 864 l 169 864 q 58 958 126 896 l -135 1142 l 33 1142 l 93 1074 q 251 864 193 963 l 258 864 q 174 1068 239 899 l 143 1142 l 275 1142 l 335 864 l 542 864 z "},"्":{"ha":0,"x_min":-337,"x_max":-24,"o":"m -337 -85 l -179 -85 l -24 -287 l -187 -287 l -337 -85 z "},"ॐ":{"ha":1533,"x_min":104,"x_max":1600,"o":"m 1318 1028 l 1318 897 l 1188 897 l 1188 1028 l 1318 1028 m 826 558 l 1482 558 q 1590 450 1590 558 l 1590 108 q 1482 0 1590 0 l 1050 0 q 942 108 942 0 l 942 286 l 1097 286 l 1097 125 q 1106 90 1097 99 q 1142 82 1115 82 l 1390 82 q 1426 90 1417 82 q 1435 125 1435 99 l 1435 433 q 1426 468 1435 460 q 1390 476 1418 476 l 764 476 l 764 471 q 826 400 826 467 l 826 108 q 718 0 826 0 l 213 0 q 104 108 104 0 l 104 286 l 260 286 l 260 125 q 269 90 260 99 q 304 82 278 82 l 626 82 q 662 90 653 82 q 671 125 671 99 l 671 388 q 663 422 671 414 q 626 431 654 431 l 442 431 l 442 513 l 626 513 q 662 522 653 513 q 671 557 671 531 l 671 739 q 663 774 671 765 q 626 782 654 782 l 304 782 q 268 774 276 782 q 260 739 260 765 l 260 621 l 104 621 l 104 756 q 213 864 104 864 l 718 864 q 826 756 826 864 l 826 558 m 1461 964 l 1600 964 l 1600 840 q 1493 732 1600 732 l 1015 732 q 907 840 907 732 l 907 964 l 1046 964 l 1046 858 q 1055 822 1046 831 q 1090 814 1064 814 l 1417 814 q 1453 822 1444 814 q 1461 858 1461 831 l 1461 964 z "},"॑":{"ha":0,"x_min":-331,"x_max":-176,"o":"m -331 988 l -331 1349 l -176 1349 l -176 988 l -331 988 z "},"॒":{"ha":0,"x_min":-697,"x_max":-76,"o":"m -76 -264 l -697 -264 l -697 -182 l -76 -182 l -76 -264 z "},"॓":{"ha":0,"x_min":-519,"x_max":-178,"o":"m -519 1288 l -410 1383 l -178 1106 l -287 1010 l -519 1288 z "},"॔":{"ha":0,"x_min":-301,"x_max":40,"o":"m -69 1383 l 40 1288 l -192 1010 l -301 1106 l -69 1383 z "},"क़":{"ha":1504,"x_min":-28,"x_max":1532,"o":"m 228 -121 l 228 18 l 385 18 l 385 -121 l 228 -121 m 1532 782 l 831 782 l 831 661 q 875 674 844 674 l 1267 674 q 1376 565 1376 674 l 1376 217 q 1267 108 1376 108 l 900 108 l 900 190 l 1176 190 q 1211 199 1203 190 q 1219 233 1219 207 l 1219 549 q 1211 583 1219 575 q 1176 592 1203 592 l 878 592 q 840 582 850 592 q 831 544 831 572 l 831 0 l 675 0 l 675 121 q 631 108 661 108 l 238 108 q 129 217 129 108 l 129 565 q 238 674 129 674 l 606 674 l 606 592 l 329 592 q 294 583 303 592 q 285 549 285 575 l 285 233 q 294 199 285 207 q 329 190 303 190 l 628 190 q 665 201 656 190 q 675 238 675 211 l 675 782 l -28 782 l -28 864 l 1532 864 l 1532 782 z "},"ख़":{"ha":1910,"x_min":-28,"x_max":1936,"o":"m 688 -229 l 688 -90 l 844 -90 l 844 -229 l 688 -229 m 1936 864 l 1936 782 l 1731 782 l 1731 0 l 1576 0 l 1576 186 q 1526 167 1563 167 l 1090 167 q 983 275 983 167 l 983 524 q 1090 632 983 632 l 1514 632 l 1514 550 l 1171 550 q 1135 542 1144 550 q 1126 507 1126 533 l 1126 290 q 1135 256 1126 265 q 1171 247 1144 247 l 1522 247 q 1564 259 1551 247 q 1576 300 1576 271 l 1576 782 l 786 782 l 786 439 q 678 332 786 332 l 310 332 l 310 125 q 319 90 310 99 q 354 82 328 82 l 897 82 l 897 0 l 260 0 q 153 108 153 0 l 153 653 l 310 653 l 310 414 l 589 414 q 624 422 617 414 q 632 457 632 431 l 632 782 l -28 782 l -28 864 l 1936 864 z "},"ग़":{"ha":1536,"x_min":-28,"x_max":1564,"o":"m 433 -121 l 433 18 l 590 18 l 590 -121 l 433 -121 m 307 190 l 710 190 q 744 199 736 190 q 753 233 753 207 l 753 510 l 307 510 q 272 501 281 510 q 263 467 263 493 l 263 233 q 272 199 263 207 q 307 190 281 190 m 1564 864 l 1564 782 l 1357 782 l 1357 0 l 1201 0 l 1201 782 l 908 782 l 908 217 q 800 108 908 108 l 224 108 q 115 217 115 108 l 115 483 q 224 592 115 592 l 753 592 l 753 782 l -28 782 l -28 864 l 1564 864 z "},"ज़":{"ha":1493,"x_min":-28,"x_max":1521,"o":"m 418 -121 l 418 18 l 575 18 l 575 -121 l 418 -121 m 1521 864 l 1521 782 l 1314 782 l 1314 0 l 1158 0 l 1158 592 l 865 592 l 865 217 q 757 108 865 108 l 261 108 q 153 217 153 108 l 153 674 l 306 674 l 306 233 q 315 199 306 207 q 350 190 324 190 l 668 190 q 703 199 694 190 q 713 233 713 207 l 713 674 l 1158 674 l 1158 782 l -28 782 l -28 864 l 1521 864 z "},"ड़":{"ha":1024,"x_min":-28,"x_max":1051,"o":"m 490 -229 l 490 -90 l 647 -90 l 647 -229 l 490 -229 m 851 592 l 347 592 q 311 583 319 592 q 303 549 303 575 l 303 475 q 311 440 303 449 q 347 432 319 432 l 775 432 q 885 324 885 432 l 885 108 q 775 0 885 0 l 260 0 q 151 108 151 0 l 151 240 l 307 240 l 307 125 q 316 90 307 99 q 351 82 325 82 l 683 82 q 719 90 711 82 q 728 125 728 99 l 728 306 q 719 342 728 333 q 683 350 711 350 l 256 350 q 147 458 147 350 l 147 565 q 256 674 147 674 l 696 674 l 696 782 l -28 782 l -28 864 l 1051 864 l 1051 782 l 851 782 l 851 592 z "},"ढ़":{"ha":1086,"x_min":-28,"x_max":1114,"o":"m 515 -229 l 515 -90 l 672 -90 l 672 -229 l 515 -229 m 864 592 l 353 592 q 318 583 326 592 q 310 549 310 575 l 310 125 q 318 90 310 99 q 353 82 326 82 l 743 82 q 778 90 769 82 q 786 125 786 99 l 786 278 q 778 313 786 304 q 743 321 769 321 l 529 321 l 529 403 l 826 403 q 935 294 935 403 l 935 108 q 826 0 935 0 l 263 0 q 153 108 153 0 l 153 565 q 263 674 153 674 l 707 674 l 707 782 l -28 782 l -28 864 l 1114 864 l 1114 782 l 864 782 l 864 592 z "},"फ़":{"ha":1571,"x_min":-28,"x_max":1600,"o":"m 165 -121 l 165 18 l 322 18 l 322 -121 l 165 -121 m 733 238 l 733 782 l 307 782 l 307 233 q 315 199 307 207 q 350 190 324 190 l 686 190 q 724 201 714 190 q 733 238 733 211 m 1600 782 l 888 782 l 888 661 q 932 674 903 674 l 1333 674 q 1443 565 1443 674 l 1443 217 q 1333 108 1443 108 l 956 108 l 956 190 l 1243 190 q 1278 199 1269 190 q 1286 233 1286 207 l 1286 549 q 1278 583 1286 575 q 1243 592 1269 592 l 935 592 q 898 582 908 592 q 888 544 888 572 l 888 0 l 733 0 l 733 121 q 689 108 719 108 l 263 108 q 153 217 153 108 l 153 782 l -28 782 l -28 864 l 1600 864 l 1600 782 z "},"य़":{"ha":1339,"x_min":-28,"x_max":1367,"o":"m 354 -121 l 354 18 l 511 18 l 511 -121 l 354 -121 m 1006 243 l 1006 782 l 706 782 q 719 742 719 771 l 719 538 q 611 429 719 429 l 260 429 l 260 233 q 268 199 260 207 q 303 190 276 190 l 949 190 q 993 202 981 190 q 1006 243 1006 214 m 1367 864 l 1367 782 l 1160 782 l 1160 0 l 1006 0 l 1006 129 q 954 108 992 108 l 211 108 q 103 217 103 108 l 103 511 l 519 511 q 556 519 547 511 q 564 556 564 528 l 564 739 q 556 774 564 765 q 519 782 547 782 l -28 782 l -28 864 l 1367 864 z "},"ॠ":{"ha":1850,"x_min":-28,"x_max":1878,"o":"m 1215 547 l 1215 407 q 1253 363 1215 363 l 1538 363 q 1572 407 1572 363 l 1572 547 q 1564 583 1572 574 q 1529 592 1556 592 l 1257 592 q 1223 583 1231 592 q 1215 547 1215 574 m 878 782 l 878 363 l 1082 363 q 1063 443 1063 381 l 1063 565 q 1171 674 1063 674 l 1613 674 q 1722 565 1722 674 l 1722 386 q 1613 279 1722 279 l 1257 279 q 1224 272 1232 279 q 1215 239 1215 264 l 1215 126 q 1222 91 1215 100 q 1256 82 1229 82 l 1522 82 q 1556 90 1549 82 q 1564 124 1564 99 l 1564 190 l 1718 190 l 1718 108 q 1693 29 1718 58 q 1619 0 1668 0 l 1174 0 q 1064 108 1064 0 l 1064 214 q 1083 279 1064 260 l 878 279 l 878 0 l 724 0 l 724 279 l 618 279 l 292 0 l 94 0 l 478 325 l 294 511 q 201 573 247 558 q 97 588 156 588 l 67 588 l 67 674 l 156 674 q 304 656 249 674 q 418 579 360 639 l 629 363 l 724 363 l 724 782 l -28 782 l -28 864 l 1878 864 l 1878 782 l 878 782 z "},"ॡ":{"ha":1578,"x_min":-28,"x_max":1606,"o":"m 1400 156 l 1072 156 q 1035 145 1046 156 q 1025 110 1025 135 l 1025 -11 q 1035 -47 1025 -36 q 1072 -57 1046 -57 l 1435 -57 l 1435 -139 l 1072 -139 q 1035 -149 1046 -139 q 1025 -185 1025 -160 l 1025 -306 q 1035 -341 1025 -331 q 1072 -351 1046 -351 l 1440 -351 l 1440 -433 l 975 -433 q 895 -409 919 -433 q 871 -329 871 -385 l 871 -187 q 910 -99 871 -129 q 871 -8 871 -67 l 871 133 q 895 213 871 189 q 975 238 919 238 l 1243 238 l 1243 592 l 897 592 q 863 583 871 592 q 854 549 854 575 l 854 313 l 699 313 l 699 549 q 690 583 699 575 q 653 592 681 592 l 353 592 q 318 583 326 592 q 310 549 310 575 l 310 125 q 318 90 310 99 q 353 82 326 82 l 658 82 l 658 0 l 261 0 q 153 108 153 0 l 153 565 q 261 674 153 674 l 692 674 q 774 619 765 674 l 779 619 q 849 674 790 674 l 1243 674 l 1243 782 l -28 782 l -28 864 l 1606 864 l 1606 782 l 1400 782 l 1400 156 z "},"।":{"ha":593,"x_min":263,"x_max":417,"o":"m 263 0 l 263 864 l 417 864 l 417 0 l 263 0 z "},"॥":{"ha":1104,"x_min":263,"x_max":929,"o":"m 263 0 l 263 864 l 417 864 l 417 0 l 263 0 m 775 0 l 775 864 l 929 864 l 929 0 l 775 0 z "},"०":{"ha":1031,"x_min":156,"x_max":875,"o":"m 724 126 l 724 738 q 716 773 724 764 q 682 782 708 782 l 350 782 q 316 773 324 782 q 308 738 308 764 l 308 126 q 316 91 308 100 q 350 82 324 82 l 682 82 q 716 91 708 82 q 724 126 724 100 m 263 864 l 768 864 q 875 756 875 864 l 875 108 q 768 0 875 0 l 263 0 q 156 108 156 0 l 156 756 q 263 864 156 864 z "},"१":{"ha":706,"x_min":126,"x_max":526,"o":"m 526 864 l 526 0 l 371 0 l 371 782 l 126 782 l 126 864 l 526 864 z "},"२":{"ha":1061,"x_min":167,"x_max":899,"o":"m 899 82 l 899 0 l 167 0 l 167 81 l 619 481 q 710 581 682 536 q 738 685 738 625 l 738 738 q 730 773 738 764 q 697 782 722 782 l 372 782 q 338 773 346 782 q 331 738 331 764 l 331 560 l 175 560 l 175 756 q 282 864 175 864 l 788 864 q 893 754 893 864 l 893 686 q 862 538 893 592 q 761 422 831 485 l 381 82 l 899 82 z "},"३":{"ha":1018,"x_min":135,"x_max":869,"o":"m 674 86 q 708 96 700 86 q 715 132 715 106 l 715 342 q 665 390 715 390 l 496 390 l 496 474 l 667 474 q 715 524 715 474 l 715 732 q 708 768 715 758 q 674 778 700 778 l 331 778 q 297 768 304 778 q 290 732 290 758 l 290 607 l 135 607 l 135 756 q 242 864 135 864 l 763 864 q 869 754 869 864 l 869 533 q 792 436 869 447 l 792 431 q 869 336 869 424 l 869 111 q 763 0 869 0 l 242 0 q 135 108 135 0 l 135 260 l 292 260 l 292 132 q 299 96 292 106 q 331 86 306 86 l 674 86 z "},"४":{"ha":1007,"x_min":100,"x_max":915,"o":"m 915 249 l 915 167 l 758 167 l 758 0 l 613 0 l 613 167 l 100 167 l 100 256 l 406 864 l 560 864 l 258 249 l 613 249 l 613 453 l 758 453 l 758 249 l 915 249 z "},"५":{"ha":1017,"x_min":153,"x_max":876,"o":"m 308 543 l 769 543 q 876 435 876 543 l 876 111 q 769 0 876 0 l 260 0 q 153 108 153 0 l 153 290 l 310 290 l 310 126 q 317 91 310 100 q 350 82 324 82 l 681 82 q 714 91 707 82 q 721 126 721 100 l 721 417 q 714 452 721 443 q 681 461 707 461 l 153 461 l 153 864 l 861 864 l 861 782 l 308 782 l 308 543 z "},"६":{"ha":1044,"x_min":156,"x_max":896,"o":"m 740 126 l 740 369 q 733 406 740 396 q 699 415 725 415 l 311 415 l 311 126 q 318 91 311 100 q 351 82 325 82 l 699 82 q 733 91 725 82 q 740 126 740 100 m 311 496 l 789 496 q 896 389 896 496 l 896 108 q 789 0 896 0 l 263 0 q 156 108 156 0 l 156 756 q 263 864 156 864 l 788 864 q 894 756 894 864 l 894 599 l 739 599 l 739 738 q 732 773 739 764 q 699 782 725 782 l 351 782 q 318 773 325 782 q 311 738 311 764 l 311 496 z "},"७":{"ha":821,"x_min":94,"x_max":721,"o":"m 721 864 l 721 790 l 400 0 l 246 0 l 564 782 l 94 782 l 94 864 l 721 864 z "},"८":{"ha":985,"x_min":129,"x_max":854,"o":"m 703 519 l 703 738 q 694 773 703 764 q 660 782 686 782 l 322 782 q 288 773 296 782 q 281 738 281 764 l 281 519 q 291 484 281 494 q 328 474 301 474 l 658 474 q 693 484 683 474 q 703 519 703 494 m 703 126 l 703 346 q 693 381 703 371 q 658 392 683 392 l 324 392 q 290 381 299 392 q 281 346 281 371 l 281 126 q 288 91 281 100 q 322 82 296 82 l 660 82 q 694 91 685 82 q 703 126 703 100 m 854 754 l 854 538 q 772 433 854 433 l 772 428 q 835 405 815 428 q 854 332 854 382 l 854 111 q 746 0 854 0 l 236 0 q 129 111 129 0 l 129 332 q 149 405 129 382 q 211 428 168 428 l 211 433 q 129 538 129 433 l 129 754 q 236 864 129 864 l 746 864 q 854 754 854 864 z "},"९":{"ha":1044,"x_min":149,"x_max":889,"o":"m 344 436 l 733 436 l 733 738 q 726 773 733 764 q 692 782 718 782 l 344 782 q 311 773 318 782 q 304 738 304 764 l 304 481 q 311 445 304 454 q 344 436 318 436 m 256 864 l 782 864 q 889 756 889 864 l 889 108 q 782 0 889 0 l 257 0 q 150 108 150 0 l 150 254 l 306 254 l 306 126 q 313 91 306 100 q 346 82 319 82 l 692 82 q 726 91 718 82 q 733 126 733 100 l 733 354 l 256 354 q 149 463 149 354 l 149 756 q 256 864 149 864 z "},"॰":{"ha":919,"x_min":131,"x_max":788,"o":"m 651 303 l 651 478 q 643 513 651 504 q 608 521 635 521 l 311 521 q 276 513 285 521 q 267 478 267 504 l 267 303 q 276 268 267 276 q 311 260 285 260 l 608 260 q 643 268 635 260 q 651 303 651 276 m 239 600 l 679 600 q 788 492 788 600 l 788 289 q 679 181 788 181 l 239 181 q 131 289 131 181 l 131 492 q 239 600 131 600 z "},"ॲ":{"ha":1482,"x_min":128,"x_max":1574,"o":"m 1510 864 l 1510 782 l 1304 782 l 1304 0 l 1147 0 l 1147 408 l 863 408 l 863 217 q 754 108 863 108 l 238 108 q 128 217 128 108 l 128 351 l 285 351 l 285 233 q 292 198 285 206 q 328 190 300 190 l 663 190 q 699 199 690 190 q 707 233 707 207 l 707 394 q 697 432 707 422 q 660 442 686 442 l 442 442 l 442 524 l 660 524 q 697 534 686 524 q 707 571 707 544 l 707 739 q 699 774 707 765 q 663 782 690 782 l 328 782 q 292 774 300 782 q 285 739 285 767 l 285 621 l 128 621 l 128 756 q 238 864 128 864 l 754 864 q 863 756 863 864 l 863 569 q 799 496 863 500 l 799 490 l 1147 490 l 1147 864 l 1510 864 m 1426 1183 l 1574 1183 l 1574 1060 q 1465 951 1574 951 l 986 951 q 878 1060 878 951 l 878 1183 l 1025 1183 l 1025 1076 q 1033 1042 1025 1050 q 1068 1033 1042 1033 l 1383 1033 q 1418 1042 1410 1033 q 1426 1076 1426 1050 l 1426 1183 z "},"ॽ":{"ha":988,"x_min":190,"x_max":808,"o":"m 299 947 l 700 947 q 808 840 808 947 l 808 458 q 700 351 808 351 l 543 351 l 543 0 l 390 0 l 390 433 l 618 433 q 651 442 643 433 q 658 478 658 451 l 658 819 q 651 857 658 847 q 618 867 643 867 l 388 867 q 353 857 361 867 q 344 819 344 847 l 344 657 l 190 657 l 190 840 q 299 947 190 947 z "},"​":{"ha":0,"x_min":0,"x_max":0,"o":""},"‌":{"ha":0,"x_min":-33,"x_max":38,"o":"m -33 1103 l 38 1103 l 38 -481 l -33 -481 l -33 1103 z "},"‍":{"ha":0,"x_min":-207,"x_max":185,"o":"m 25 -481 l -46 -481 l -46 839 l -149 738 l -207 792 l -62 924 l -207 1057 l -150 1110 l -10 972 l 129 1110 l 185 1057 l 40 924 l 185 792 l 128 738 l 25 840 l 25 -481 z "},"–":{"ha":854,"x_min":85,"x_max":742,"o":"m 85 364 l 85 446 l 742 446 l 742 364 l 85 364 z "},"—":{"ha":1272,"x_min":85,"x_max":1186,"o":"m 85 364 l 85 446 l 1186 446 l 1186 364 l 85 364 z "},"‘":{"ha":318,"x_min":71,"x_max":238,"o":"m 238 864 l 238 506 l 71 506 l 71 592 l 183 864 l 238 864 z "},"’":{"ha":318,"x_min":82,"x_max":249,"o":"m 82 506 l 82 864 l 249 864 l 249 778 l 138 506 l 82 506 z "},"‚":{"ha":318,"x_min":82,"x_max":249,"o":"m 82 -185 l 82 174 l 249 174 l 249 88 l 138 -185 l 82 -185 z "},"“":{"ha":553,"x_min":71,"x_max":474,"o":"m 238 864 l 238 506 l 71 506 l 71 592 l 183 864 l 238 864 m 474 864 l 474 506 l 307 506 l 307 592 l 419 864 l 474 864 z "},"”":{"ha":553,"x_min":82,"x_max":486,"o":"m 319 506 l 319 864 l 486 864 l 486 778 l 375 506 l 319 506 m 82 506 l 82 864 l 249 864 l 249 778 l 138 506 l 82 506 z "},"„":{"ha":553,"x_min":82,"x_max":486,"o":"m 319 -185 l 319 174 l 486 174 l 486 88 l 375 -185 l 319 -185 m 82 -185 l 82 174 l 249 174 l 249 88 l 138 -185 l 82 -185 z "},"†":{"ha":836,"x_min":111,"x_max":725,"o":"m 725 642 l 725 560 l 496 560 l 496 -162 l 343 -162 l 343 560 l 111 560 l 111 642 l 343 642 l 343 864 l 496 864 l 496 642 l 725 642 z "},"‡":{"ha":844,"x_min":114,"x_max":729,"o":"m 729 547 l 499 547 l 499 107 l 729 107 l 729 25 l 499 25 l 499 -212 l 347 -212 l 347 25 l 114 25 l 114 107 l 347 107 l 347 547 l 114 547 l 114 629 l 347 629 l 347 864 l 499 864 l 499 629 l 729 629 l 729 547 z "},"•":{"ha":621,"x_min":110,"x_max":513,"o":"m 169 572 q 198 598 169 572 q 311 625 228 625 q 453 572 394 625 q 513 443 513 518 q 453 315 513 368 q 311 261 394 261 q 169 315 228 261 q 110 443 110 368 q 169 572 110 518 z "},"…":{"ha":1043,"x_min":82,"x_max":964,"o":"m 82 0 l 82 161 l 260 161 l 260 0 l 82 0 m 436 0 l 436 161 l 614 161 l 614 0 l 436 0 m 788 0 l 788 161 l 964 161 l 964 0 l 788 0 z "},"‰":{"ha":2171,"x_min":78,"x_max":2090,"o":"m 1451 376 l 1451 92 q 1364 0 1451 0 l 1031 0 q 944 92 944 0 l 944 376 q 1031 468 944 468 l 1364 468 q 1451 376 1451 468 m 1333 110 l 1333 358 q 1327 389 1333 382 q 1297 396 1321 396 l 1100 396 q 1070 389 1076 396 q 1064 358 1064 382 l 1064 110 q 1070 78 1064 85 q 1100 71 1076 71 l 1297 71 q 1327 78 1321 71 q 1333 110 1333 85 m 1021 864 l 1153 864 l 504 0 l 374 0 l 1021 864 m 586 771 l 586 488 q 499 396 586 396 l 165 396 q 78 488 78 396 l 78 771 q 165 863 78 863 l 499 863 q 586 771 586 863 m 468 504 l 468 753 q 462 785 468 778 q 432 792 456 792 l 235 792 q 205 785 211 792 q 199 753 199 778 l 199 504 q 205 474 199 481 q 235 467 211 467 l 432 467 q 462 474 456 467 q 468 504 468 481 m 2090 376 l 2090 92 q 2004 0 2090 0 l 1669 0 q 1583 92 1583 0 l 1583 376 q 1669 468 1583 468 l 2004 468 q 2090 376 2090 468 m 1972 110 l 1972 358 q 1966 389 1972 382 q 1936 396 1960 396 l 1739 396 q 1709 389 1715 396 q 1703 358 1703 382 l 1703 110 q 1709 78 1703 85 q 1739 71 1715 71 l 1936 71 q 1966 78 1960 71 q 1972 110 1972 85 z "},"‹":{"ha":460,"x_min":75,"x_max":411,"o":"m 250 143 l 75 357 l 250 571 l 411 571 l 233 357 l 411 143 l 250 143 z "},"›":{"ha":456,"x_min":53,"x_max":389,"o":"m 389 357 l 213 143 l 53 143 l 231 357 l 53 571 l 213 571 l 389 357 z "},"⁄":{"ha":758,"x_min":29,"x_max":742,"o":"m 603 864 l 742 864 l 167 0 l 29 0 l 603 864 z "},"€":{"ha":971,"x_min":51,"x_max":893,"o":"m 893 569 l 739 569 l 739 739 q 731 774 739 767 q 696 782 722 782 l 381 782 q 345 774 353 782 q 338 739 338 767 l 338 563 l 575 563 l 575 481 l 338 481 l 338 385 l 575 385 l 575 303 l 338 303 l 338 125 q 345 90 338 97 q 381 82 353 82 l 696 82 q 731 90 722 82 q 739 125 739 97 l 739 294 l 893 294 l 893 110 q 783 0 893 0 l 293 0 q 183 110 183 0 l 183 303 l 51 303 l 51 385 l 183 385 l 183 481 l 51 481 l 51 563 l 183 563 l 183 754 q 293 864 183 864 l 783 864 q 893 754 893 864 l 893 569 z "},"™":{"ha":1332,"x_min":29,"x_max":1253,"o":"m 29 779 l 29 864 l 526 864 l 526 779 l 340 779 l 340 407 l 215 407 l 215 779 l 29 779 m 1253 864 l 1253 407 l 1138 407 l 1138 732 l 985 478 l 883 478 l 735 733 l 735 407 l 619 407 l 619 864 l 765 864 l 933 576 l 1106 864 l 1253 864 z "},"Ω":{"ha":1047,"x_min":75,"x_max":972,"o":"m 972 82 l 972 0 l 601 0 l 601 82 l 692 82 q 727 90 719 82 q 735 125 735 97 l 735 739 q 727 774 735 767 q 692 782 719 782 l 358 782 q 323 774 331 782 q 315 739 315 767 l 315 125 q 323 90 315 97 q 358 82 331 82 l 447 82 l 447 0 l 75 0 l 75 82 l 196 82 q 163 157 163 100 l 163 754 q 272 864 163 864 l 776 864 q 886 754 886 864 l 886 157 q 853 82 886 100 l 972 82 z "},"∏":{"ha":1050,"x_min":49,"x_max":918,"o":"m 222 864 l 918 864 l 918 0 l 771 0 l 771 782 l 371 782 l 371 110 q 261 0 371 0 l 49 0 l 49 88 l 179 88 q 214 95 206 88 q 222 131 222 103 l 222 864 z "},"−":{"ha":944,"x_min":78,"x_max":826,"o":"m 78 378 l 78 486 l 826 486 l 826 378 l 78 378 z "},"∕":{"ha":582,"x_min":-31,"x_max":686,"o":"m 543 971 l 686 971 l 111 -189 l -31 -189 l 543 971 z "},"∙":{"ha":263,"x_min":50,"x_max":217,"o":"m 50 514 l 217 514 l 217 347 l 50 347 l 50 514 z "},"∞":{"ha":1326,"x_min":81,"x_max":1246,"o":"m 472 279 l 188 279 q 81 385 81 279 l 81 576 q 188 682 81 682 l 483 682 q 570 666 542 682 q 635 603 599 650 l 678 547 l 707 590 q 773 665 746 649 q 864 682 800 682 l 1136 682 q 1246 576 1246 682 l 1246 385 q 1136 279 1246 279 l 879 279 q 781 294 811 279 q 710 360 750 308 l 678 397 l 667 382 q 588 298 624 317 q 472 279 551 279 m 865 361 l 1078 361 q 1116 370 1108 361 q 1124 408 1124 379 l 1124 553 q 1115 591 1124 581 q 1078 601 1107 601 l 851 601 q 792 560 822 601 l 732 475 l 801 393 q 865 361 826 361 m 482 600 l 250 600 q 211 590 219 600 q 203 551 203 579 l 203 408 q 211 370 203 379 q 250 361 219 361 l 494 361 q 574 406 542 361 l 621 472 l 558 553 q 524 590 539 579 q 482 600 508 600 z "},"∫":{"ha":546,"x_min":33,"x_max":511,"o":"m 349 869 l 349 -60 q 239 -169 349 -169 l 33 -169 l 33 -82 l 153 -82 q 186 -74 179 -82 q 196 -39 193 -67 l 196 890 q 306 1000 196 1000 l 511 1000 l 511 913 l 392 913 q 356 905 364 913 q 349 869 349 897 z "},"≈":{"ha":1089,"x_min":104,"x_max":985,"o":"m 249 407 l 367 407 q 564 336 465 407 q 656 288 601 310 q 758 265 710 265 q 824 279 807 265 q 840 325 840 293 l 840 403 l 725 403 q 599 438 665 403 q 461 509 532 474 q 335 544 390 544 q 265 532 281 544 q 249 486 249 519 l 249 407 m 985 629 l 985 510 q 914 407 985 425 l 985 407 l 985 288 q 875 179 985 179 l 725 179 q 599 215 665 179 q 461 285 532 250 q 335 321 390 321 q 265 308 281 321 q 249 264 249 296 l 249 181 l 104 181 l 104 300 q 181 404 104 390 l 104 404 l 104 524 q 213 629 104 629 l 367 629 q 565 559 464 629 q 768 489 665 489 q 824 502 808 489 q 840 549 840 515 l 840 629 l 985 629 z "},"≠":{"ha":957,"x_min":104,"x_max":851,"o":"m 851 501 l 586 501 l 479 369 l 851 369 l 851 264 l 393 264 l 304 156 l 197 156 l 286 264 l 104 264 l 104 369 l 372 369 l 481 501 l 104 501 l 104 607 l 567 607 l 649 707 l 754 707 l 672 607 l 851 607 l 851 501 z "},"≤":{"ha":1007,"x_min":79,"x_max":914,"o":"m 914 244 l 914 147 l 79 147 l 79 244 l 914 244 m 914 578 l 203 481 l 914 383 l 914 271 l 79 417 l 79 546 l 914 690 l 914 578 z "},"≥":{"ha":1007,"x_min":93,"x_max":928,"o":"m 93 147 l 93 244 l 928 244 l 928 147 l 93 147 m 804 481 l 93 578 l 93 690 l 926 546 l 926 417 l 93 271 l 93 383 l 804 481 z "},"◊":{"ha":1017,"x_min":74,"x_max":943,"o":"m 943 435 l 569 0 l 432 0 l 74 435 l 432 864 l 569 864 l 943 435 m 778 435 l 501 761 l 240 435 l 501 104 l 778 435 z "},"◌":{"ha":586,"x_min":99,"x_max":479,"o":"m 190 210 l 190 108 q 124 136 150 108 q 99 210 99 164 l 190 210 m 99 263 l 99 364 l 190 364 l 190 263 l 99 263 m 99 418 l 99 519 l 190 519 l 190 418 l 99 418 m 190 572 l 99 572 q 124 647 99 619 q 190 674 149 674 l 190 572 m 388 108 l 388 210 l 479 210 q 454 138 479 168 q 388 108 429 108 m 388 263 l 388 364 l 479 364 l 479 263 l 388 263 m 388 418 l 388 519 l 479 519 l 479 418 l 388 418 m 388 572 l 388 674 q 479 572 479 674 l 388 572 m 243 572 l 243 674 l 335 674 l 335 572 l 243 572 m 243 108 l 243 210 l 335 210 l 335 108 l 243 108 z "},"":{"ha":853,"x_min":347,"x_max":506,"o":"m 347 -318 l 347 -68 l 506 -68 l 506 -137 l 399 -318 l 347 -318 z "},"ﬁ":{"ha":871,"x_min":86,"x_max":754,"o":"m 753 674 l 753 0 l 604 0 l 604 592 l 335 592 l 335 0 l 186 0 l 186 592 l 86 592 l 86 674 l 186 674 l 186 819 q 296 929 186 929 l 532 929 l 532 843 l 378 843 q 342 835 350 843 q 335 800 335 828 l 335 674 l 753 674 m 603 929 l 754 929 l 754 821 l 603 821 l 603 929 z "},"ﬂ":{"ha":872,"x_min":86,"x_max":753,"o":"m 604 929 l 753 929 l 753 0 l 604 0 l 604 592 l 335 592 l 335 0 l 186 0 l 186 592 l 86 592 l 86 674 l 186 674 l 186 819 q 296 929 186 929 l 533 929 l 533 843 l 378 843 q 342 835 350 843 q 335 800 335 828 l 335 674 l 604 674 l 604 929 z "}}}
